<svg width="400" height="400" viewBox="0 0 400 400" fill="none" xmlns="http://www.w3.org/2000/svg">
<path d="M42.0778 22.2222C31.1214 22.2222 22.2227 31.1378 22.2227 42.1151C22.2227 53.0923 31.1214 62.0079 42.0778 62.0079C53.0342 62.0079 61.9329 53.0923 61.9329 42.1151C61.9329 31.1378 53.0342 22.2222 42.0778 22.2222Z" fill="white"/>
<path d="M107.334 22.2235C96.3772 22.2235 87.4785 31.1392 87.4785 42.1164C87.4785 53.0936 96.3772 62.0093 107.334 62.0093C118.29 62.0093 127.189 53.0936 127.189 42.1164C127.189 31.1392 118.29 22.2235 107.334 22.2235Z" fill="white"/>
<path d="M172.591 49.7459C176.797 49.7459 180.207 46.3296 180.207 42.1154C180.207 37.9012 176.797 34.4849 172.591 34.4849C168.384 34.4849 164.975 37.9012 164.975 42.1154C164.975 46.3296 168.384 49.7459 172.591 49.7459Z" fill="white"/>
<path d="M42.0802 119.868C48.8101 119.868 54.2658 114.402 54.2658 107.659C54.2658 100.916 48.8101 95.4501 42.0802 95.4501C35.3502 95.4501 29.8945 100.916 29.8945 107.659C29.8945 114.402 35.3502 119.868 42.0802 119.868Z" fill="white"/>
<path d="M107.334 87.7665C96.3772 87.7665 87.4785 96.6821 87.4785 107.659C87.4785 118.637 96.3772 127.552 107.334 127.552C118.29 127.552 127.189 118.637 127.189 107.659C127.189 96.6821 118.29 87.7665 107.334 87.7665Z" fill="white"/>
<path d="M172.592 119.868C179.326 119.868 184.778 114.406 184.778 107.659C184.778 100.912 179.326 95.4501 172.592 95.4501C165.858 95.4501 160.406 100.912 160.406 107.659C160.406 114.406 165.858 119.868 172.592 119.868Z" fill="white"/>
<path d="M42.0779 165.383C37.8824 165.383 34.4619 168.81 34.4619 173.013C34.4619 177.217 37.8824 180.644 42.0779 180.644C46.2734 180.644 49.694 177.217 49.694 173.013C49.694 168.81 46.2734 165.383 42.0779 165.383Z" fill="white"/>
<path d="M107.334 153.122C96.3772 153.122 87.4785 162.037 87.4785 173.015C87.4785 183.992 96.3772 192.907 107.334 192.907C118.29 192.907 127.189 183.992 127.189 173.015C127.189 162.037 118.29 153.122 107.334 153.122Z" fill="white"/>
<path d="M172.589 153.122C161.633 153.122 152.734 162.037 152.734 173.015C152.734 183.992 161.633 192.907 172.589 192.907C183.546 192.907 192.445 183.992 192.445 173.015C192.445 162.037 183.546 153.122 172.589 153.122Z" fill="white"/>
<path d="M237.955 49.7459C242.15 49.7459 245.571 46.3189 245.571 42.1154C245.571 37.9119 242.15 34.4849 237.955 34.4849C233.759 34.4849 230.339 37.9119 230.339 42.1154C230.339 46.3189 233.759 49.7459 237.955 49.7459Z" fill="white"/>
<path d="M303.216 62.0093C314.182 62.0093 323.072 53.1029 323.072 42.1164C323.072 31.1298 314.182 22.2235 303.216 22.2235C292.251 22.2235 283.361 31.1298 283.361 42.1164C283.361 53.1029 292.251 62.0093 303.216 62.0093Z" fill="white"/>
<path d="M368.472 22.2235C357.516 22.2235 348.617 31.1392 348.617 42.1164C348.617 53.0936 357.516 62.0093 368.472 62.0093C379.429 62.0093 388.327 53.0936 388.327 42.1164C388.327 31.1392 379.429 22.2235 368.472 22.2235Z" fill="white"/>
<path d="M237.956 119.868C244.69 119.868 250.142 114.406 250.142 107.659C250.142 100.912 244.69 95.4501 237.956 95.4501C231.222 95.4501 225.771 100.912 225.771 107.659C225.771 114.406 231.222 119.868 237.956 119.868Z" fill="white"/>
<path d="M303.216 87.7665C292.26 87.7665 283.361 96.6821 283.361 107.659C283.361 118.637 292.26 127.552 303.216 127.552C314.173 127.552 323.072 118.637 323.072 107.659C323.072 96.6821 314.173 87.7665 303.216 87.7665Z" fill="white"/>
<path d="M368.474 95.4501C361.74 95.4501 356.288 100.912 356.288 107.659C356.288 114.406 361.74 119.868 368.474 119.868C375.208 119.868 380.659 114.406 380.659 107.659C380.659 100.912 375.208 95.4501 368.474 95.4501Z" fill="white"/>
<path d="M303.216 153.122C292.26 153.122 283.361 162.037 283.361 173.015C283.361 183.992 292.26 192.907 303.216 192.907C314.173 192.907 323.072 183.992 323.072 173.015C323.072 162.037 314.173 153.122 303.216 153.122Z" fill="white"/>
<path d="M368.472 180.644C372.679 180.644 376.088 177.228 376.088 173.013C376.088 168.799 372.679 165.383 368.472 165.383C364.266 165.383 360.856 168.799 360.856 173.013C360.856 177.228 364.266 180.644 368.472 180.644Z" fill="white"/>
<path d="M237.955 153.122C226.998 153.122 218.1 162.037 218.1 173.015C218.1 183.992 226.998 192.907 237.955 192.907C248.911 192.907 257.81 183.992 257.81 173.015C257.81 162.037 248.911 153.122 237.955 153.122Z" fill="white"/>
<path d="M42.0779 230.765C37.8824 230.765 34.4619 234.192 34.4619 238.395C34.4619 242.599 37.8824 246.026 42.0779 246.026C46.2734 246.026 49.694 242.599 49.694 238.395C49.694 234.192 46.2734 230.765 42.0779 230.765Z" fill="white"/>
<path d="M107.336 226.185C100.602 226.185 95.1504 231.647 95.1504 238.394C95.1504 245.141 100.602 250.602 107.336 250.602C114.07 250.602 119.522 245.141 119.522 238.394C119.522 231.647 114.07 226.185 107.336 226.185Z" fill="white"/>
<path d="M172.589 218.501C161.633 218.501 152.734 227.417 152.734 238.394C152.734 249.371 161.633 258.287 172.589 258.287C183.546 258.287 192.445 249.371 192.445 238.394C192.445 227.417 183.546 218.501 172.589 218.501Z" fill="white"/>
<path d="M42.0779 296.145C37.8824 296.145 34.4619 299.572 34.4619 303.775C34.4619 307.978 37.8824 311.406 42.0779 311.406C46.2734 311.406 49.694 307.978 49.694 303.775C49.694 299.572 46.2734 296.145 42.0779 296.145Z" fill="white"/>
<path d="M107.335 296.145C103.139 296.145 99.7188 299.572 99.7188 303.775C99.7188 307.978 103.139 311.406 107.335 311.406C111.53 311.406 114.951 307.978 114.951 303.775C114.951 299.572 111.53 296.145 107.335 296.145Z" fill="white"/>
<path d="M172.589 283.883C161.633 283.883 152.734 292.799 152.734 303.776C152.734 314.753 161.633 323.669 172.589 323.669C183.546 323.669 192.445 314.753 192.445 303.776C192.445 292.799 183.546 283.883 172.589 283.883Z" fill="white"/>
<path d="M42.0779 361.688C37.8824 361.688 34.4619 365.115 34.4619 369.318C34.4619 373.522 37.8824 376.949 42.0779 376.949C46.2734 376.949 49.694 373.522 49.694 369.318C49.694 365.115 46.2734 361.688 42.0779 361.688Z" fill="white"/>
<path d="M107.335 376.949C111.541 376.949 114.951 373.532 114.951 369.318C114.951 365.104 111.541 361.688 107.335 361.688C103.129 361.688 99.7188 365.104 99.7188 369.318C99.7188 373.532 103.129 376.949 107.335 376.949Z" fill="white"/>
<path d="M172.589 349.426C161.633 349.426 152.734 358.342 152.734 369.319C152.734 380.297 161.633 389.212 172.589 389.212C183.546 389.212 192.445 380.297 192.445 369.319C192.445 358.342 183.546 349.426 172.589 349.426Z" fill="white"/>
<path d="M237.955 258.287C248.92 258.287 257.81 249.381 257.81 238.394C257.81 227.407 248.92 218.501 237.955 218.501C226.989 218.501 218.1 227.407 218.1 238.394C218.1 249.381 226.989 258.287 237.955 258.287Z" fill="white"/>
<path d="M303.213 226.185C296.479 226.185 291.027 231.647 291.027 238.394C291.027 245.141 296.479 250.602 303.213 250.602C309.947 250.602 315.399 245.141 315.399 238.394C315.399 231.647 309.947 226.185 303.213 226.185Z" fill="white"/>
<path d="M368.472 246.026C372.679 246.026 376.088 242.61 376.088 238.395C376.088 234.181 372.679 230.765 368.472 230.765C364.266 230.765 360.856 234.181 360.856 238.395C360.856 242.61 364.266 246.026 368.472 246.026Z" fill="white"/>
<path d="M237.955 323.669C248.92 323.669 257.81 314.763 257.81 303.776C257.81 292.79 248.92 283.883 237.955 283.883C226.989 283.883 218.1 292.79 218.1 303.776C218.1 314.763 226.989 323.669 237.955 323.669Z" fill="white"/>
<path d="M303.217 311.406C307.423 311.406 310.833 307.989 310.833 303.775C310.833 299.561 307.423 296.145 303.217 296.145C299.01 296.145 295.601 299.561 295.601 303.775C295.601 307.989 299.01 311.406 303.217 311.406Z" fill="white"/>
<path d="M368.472 311.406C372.679 311.406 376.088 307.989 376.088 303.775C376.088 299.561 372.679 296.145 368.472 296.145C364.266 296.145 360.856 299.561 360.856 303.775C360.856 307.989 364.266 311.406 368.472 311.406Z" fill="white"/>
<path d="M237.955 349.426C226.998 349.426 218.1 358.342 218.1 369.319C218.1 380.297 226.998 389.212 237.955 389.212C248.911 389.212 257.81 380.297 257.81 369.319C257.81 358.342 248.911 349.426 237.955 349.426Z" fill="white"/>
<path d="M303.217 376.949C307.423 376.949 310.833 373.532 310.833 369.318C310.833 365.104 307.423 361.688 303.217 361.688C299.01 361.688 295.601 365.104 295.601 369.318C295.601 373.532 299.01 376.949 303.217 376.949Z" fill="white"/>
<path d="M368.472 376.949C372.679 376.949 376.088 373.532 376.088 369.318C376.088 365.104 372.679 361.688 368.472 361.688C364.266 361.688 360.856 365.104 360.856 369.318C360.856 373.532 364.266 376.949 368.472 376.949Z" fill="white"/>
</svg>
