<?xml version="1.0" encoding="UTF-8"?>
<svg id="Layer_1" data-name="Layer 1" xmlns="http://www.w3.org/2000/svg" viewBox="0 0 512 142.12">
  <defs>
    <style>
      .cls-1 {
        fill: #fff;
      }
    </style>
  </defs>
  <path class="cls-1" d="M65.81,70.63L33.04,1.89H0l50.53,106.64-13.69,33.59h32.34L124.38,1.89h-32.08l-26.5,68.74Z"/>
  <path class="cls-1" d="M216.37,66.28s-11.89,27.58-33.59,19.74c-10.45-3.79-11.49-18.12-11.63-21.43V1.93h-33.06v75.03c0,4.3.22,9.77,1.09,12.92,8.52,31.03,42.48,25.1,48.31,23.62,24.26-6.18,33.27-30.73,33.27-30.73v31.12h28.71V1.93h-33.09v64.35Z"/>
  <path class="cls-1" d="M496.54,17.45c-5.34-5.53-11.74-9.85-18.8-12.68-17.34-6.36-36.29-6.36-53.63,0-7.11,2.82-13.56,7.15-18.94,12.71-5.04,5.26-8.95,11.54-11.49,18.44-2.6,7.08-3.93,14.58-3.92,22.15-.03,7.53,1.3,15,3.92,22.03,2.66,7.12,6.76,13.59,12.01,18.99,5.26,5.39,11.55,9.59,18.48,12.33,8.5,3.29,17.52,4.9,26.59,4.73h.2c9.14.2,18.22-1.41,26.76-4.74,7.09-2.85,13.5-7.22,18.81-12.83,5.04-5.29,8.97-11.58,11.55-18.5,2.61-7.01,3.93-14.46,3.92-21.97.02-7.57-1.31-15.08-3.92-22.15-2.55-6.91-6.48-13.2-11.53-18.47M474.55,73.94l-.09.18c-2.11,4.6-5.45,8.49-9.64,11.21l-.12.09c-3.14,1.92-6.63,3.15-10.24,3.62-1.13.14-2.25.22-3.38.22-4.92,0-9.74-1.41-13.93-4.05-4.18-2.65-7.59-6.43-9.81-10.94l-.09-.19c-2.15-5.08-3.25-10.57-3.25-16.11s1.1-11.03,3.25-16.11c2.11-4.64,5.47-8.56,9.69-11.27l.09-.06c3.14-1.93,6.63-3.17,10.24-3.65,3.62-.48,7.31-.18,10.82.87,3.5,1.05,6.77,2.83,9.58,5.23,2.81,2.4,5.11,5.38,6.75,8.73l.13.31c2.11,5.04,3.19,10.47,3.19,15.95s-1.08,10.91-3.19,15.95Z"/>
  <path class="cls-1" d="M327.38,2.29c-24.27,6.18-33.26,30.72-33.26,30.72V1.9h-28.71v111.92h33.09V49.46s11.9-27.58,33.6-19.74c10.45,3.79,11.48,18.12,11.63,21.43v62.66h33.06V38.83c0-4.3-.21-9.77-1.08-12.92-8.53-31.03-42.48-25.1-48.31-23.62"/>
</svg>