<svg xmlns="http://www.w3.org/2000/svg" viewBox="146.42 35.61 130.54 25.06"><path d="m157.276 35.608-10.86 6.27v12.53l10.86 6.26 10.86-6.26v-12.53zm0 0-10.86 6.27v12.53l10.86 6.26 10.86-6.26v-12.53z" fill="#fff"/><path d="M161.562 55.776h-1.55l-1.84-1.7v-.87l1.91-1.82v-2.9l2.5-1.63 2.85 2.15zm-6.4-4.57.29-2.72-.94-2.44h5.53l-.92 2.44.26 2.72zm1.26 2.87-1.84 1.72h-1.57l-3.89-6.79 2.87-2.13 2.52 1.61v2.9l1.91 1.82zm-3.43-13.05h8.55l1.02 4.35h-10.57zm4.28-5.42-10.85 6.27v12.53l10.85 6.26 10.86-6.26v-12.53z" fill="#03316c"/><path d="M180.316 53.949c-2.87 0-4.98-2.24-4.98-5 0-2.77 2.13-5.07 5-5.07 1.83 0 2.96.67 3.85 1.65l-1.37 1.48c-.67-.72-1.39-1.2-2.5-1.2-1.61 0-2.78 1.4-2.78 3.09 0 1.74 1.19 3.14 2.89 3.14 1.04 0 1.8-.5 2.5-1.2l1.33 1.33c-.96 1.02-2.07 1.78-3.94 1.78m8.137 0h-2.22v-10.05h2.22v2.35c.61-1.44 1.72-2.44 3.42-2.35v2.35h-.13c-1.94 0-3.29 1.26-3.29 3.83zm15.012-10.095-4.89 12.79h-2.25l1.07-2.69-4.2-10.1h2.37l2.85 7.46 2.74-7.46zm6.527 1.936c-1.5 0-2.81 1.22-2.81 3.11s1.33 3.11 2.81 3.11c1.52 0 2.76-1.19 2.76-3.11 0-1.91-1.26-3.11-2.76-3.11m.5 8.14c-1.59 0-2.59-.81-3.26-1.7v4.42h-2.22v-12.8h2.22v1.81c.71-1 1.72-1.81 3.26-1.81 2.28 0 4.5 1.81 4.5 5.03s-2.19 5.05-4.5 5.05m9.355-7.966v4.74c0 .85.44 1.2 1.2 1.2h.87v1.98h-1.53c-1.61 0-2.76-.72-2.76-2.83v-5.09h-1.22v-1.89h1.22v-2.66h2.22v2.66h2.07v1.89zm9.051-.174c-1.78 0-2.91 1.39-2.91 3.09 0 1.72 1.21 3.13 2.93 3.13 1.79 0 2.92-1.39 2.92-3.09.04-1.72-1.2-3.13-2.94-3.13m0 8.16c-2.94 0-5.11-2.24-5.11-5.01 0-2.78 2.2-5.06 5.15-5.06 2.96 0 5.14 2.24 5.14 5.02 0 2.74-2.18 5.05-5.18 5.05m26.347-8.16c-1.78 0-2.91 1.39-2.91 3.09 0 1.72 1.21 3.13 2.93 3.13 1.79 0 2.92-1.39 2.92-3.09.02-1.72-1.2-3.13-2.94-3.13m0 8.16c-2.94 0-5.11-2.24-5.11-5.01 0-2.78 2.2-5.06 5.15-5.06 2.96 0 5.14 2.24 5.14 5.02 0 2.74-2.2 5.05-5.18 5.05m18.319-10.096c2.11 0 3.39 1.33 3.39 3.7v6.37h-2.22v-5.7c0-1.54-.71-2.35-1.95-2.35-1.2 0-2.07.85-2.07 2.4v5.68h-2.22v-5.73c0-1.5-.74-2.35-1.96-2.35s-2.06.92-2.06 2.42v5.66h-2.22v-10.08h2.22v1.65c.63-.84 1.45-1.65 2.93-1.65 1.4 0 2.35.68 2.87 1.7.81-1.05 1.83-1.72 3.29-1.72m-35.419 8.05v1.13l-.07.11-.97.54h-.13l-.96-.54-.07-.11v-1.13l.07-.11.96-.54h.13l.97.54zm6.722 2.023c-2.87-.07-4.94-2.35-4.89-5.11.04-2.77 2.21-5.03 5.11-4.96 1.83.04 2.96.74 3.83 1.74l-1.4 1.45c-.65-.71-1.37-1.23-2.48-1.26-1.61-.02-2.8 1.33-2.82 3.05-.05 1.74 1.13 3.15 2.82 3.18 1.05.02 1.83-.46 2.53-1.16l1.3 1.35c-.98 1.02-2.11 1.76-4 1.72" fill="#002e73"/></svg>