<svg xmlns="http://www.w3.org/2000/svg" version="1.2" viewBox="0 0 141.25 40">
	<style>
		.s0 { fill: #1b1b1c } 
		.s1 { fill: #a7e92f } 
	</style>
	<path fill-rule="evenodd" class="s0" d="m133.99 14.47q0 0 0 0 0 0 0 0zm7.14 8.43h-11.04c0.24 2.01 1.92 3.26 3.79 3.26 1.71 0 3.11-0.78 3.88-2.35l3.04 1.54c-1.24 2.44-3.85 4.03-6.81 4.03-4.46-0.02-7.55-3.34-7.55-7.46 0-4.11 3.12-7.43 7.55-7.45 4.82 0 7.91 3.8 7.14 8.43zm-3.46-2.53c-0.37-1.55-2.04-2.68-3.73-2.68-1.7 0-3.32 1.08-3.74 2.68z"/>
	<path class="s0" d="m122.59 14.87l-3.47 10.13-3.44-10.13h-3.9l5.16 14.11h4.39l5.15-14.11z"/>
	<path class="s0" d="m106.22 28.98h3.67v-14.11h-3.67z"/>
	<path fill-rule="evenodd" class="s0" d="m106.22 9.41h3.67v3.67h-3.67z"/>
	<path class="s0" d="m98.52 16.4l-0.11-1.53h-3.4v14.11h3.67v-6.13c0-3.46 2.63-4.95 5.54-4.31v-3.77c-1.77-0.44-4.37-0.17-5.7 1.63z"/>
	<path class="s0" d="m83.34 11.02h-6.49v17.96h6.49c5.24 0 9.18-3.85 9.18-8.98 0-5.13-3.94-8.98-9.18-8.98v0.01zm0 14.46h-2.82v-10.98h2.82c3.23 0 5.52 2.26 5.52 5.49 0 3.24-2.29 5.49-5.52 5.49z"/>
	<path class="s0" d="m64.14 16.33l-0.11-1.46h-3.4v14.11h3.67v-7.26c0-4.33 5.98-4.66 5.98-0.95v8.21h3.66v-8.54c0-6.32-6.97-7.09-9.8-4.11z"/>
	<path class="s0" d="m54.13 28.98h3.66v-14.11h-3.66z"/>
	<path fill-rule="evenodd" class="s0" d="m54.13 9.41h3.66v3.67h-3.66z"/>
	<path class="s1" d="m0 20c0-5.55 0-8.33 0.77-10.56 1.41-4.06 4.61-7.26 8.67-8.67 2.23-0.77 5.01-0.77 10.56-0.77 5.55 0 8.33 0 10.56 0.77 4.07 1.41 7.26 4.6 8.67 8.67 0.77 2.23 0.77 5.01 0.77 10.56 0 5.55 0 8.33-0.77 10.56-1.41 4.07-4.6 7.26-8.67 8.67-2.23 0.77-5.01 0.77-10.56 0.77-5.55 0-8.33 0-10.56-0.77-4.07-1.41-7.26-4.6-8.67-8.67-0.77-2.23-0.77-5.01-0.77-10.56z"/>
	<path fill-rule="evenodd" class="s0" d="m12.47 9.48q-0.39 0-0.66 0.03-0.29 0.02-0.51 0.23-0.21 0.23-0.23 0.52-0.03 0.26-0.03 0.65v1.73q0 0.39 0.03 0.65c0.02 0.19 0.08 0.38 0.23 0.52q0.22 0.21 0.51 0.23 0.27 0.03 0.66 0.03h1.85q0.39 0 0.66-0.03 0.29-0.02 0.52-0.23 0.2-0.23 0.23-0.52 0.03-0.26 0.02-0.65v-1.73q0.01-0.39-0.02-0.65c-0.03-0.19-0.09-0.38-0.23-0.52q-0.23-0.21-0.52-0.23-0.27-0.03-0.66-0.03zm0 7.89q-0.38-0.01-0.65 0.02c-0.19 0.03-0.37 0.08-0.52 0.23q-0.21 0.23-0.23 0.52-0.03 0.27-0.03 0.66v10.24q0 0.38 0.03 0.65c0.02 0.19 0.08 0.37 0.23 0.52q0.23 0.21 0.52 0.23 0.27 0.03 0.65 0.02h1.86q0.38 0.01 0.65-0.02c0.19-0.03 0.37-0.08 0.52-0.23q0.21-0.23 0.23-0.52 0.03-0.27 0.02-0.65v-10.24q0.01-0.39-0.02-0.66c-0.03-0.19-0.08-0.37-0.23-0.52q-0.23-0.2-0.52-0.23-0.27-0.03-0.65-0.02zm8.14-7.88q-0.39-0.01-0.66 0.02-0.29 0.02-0.52 0.23-0.21 0.23-0.23 0.52-0.03 0.27-0.02 0.65v1.69q-0.01 0.39 0.02 0.66 0.02 0.29 0.23 0.51 0.23 0.21 0.52 0.23 0.27 0.03 0.66 0.03h2.03c1.75 0 3.23 0.61 4.27 1.66 1.04 1.04 1.65 2.52 1.65 4.29 0 1.76-0.61 3.25-1.65 4.29-1.04 1.04-2.52 1.65-4.27 1.65h-2.04q-0.38 0-0.65 0.03-0.29 0.02-0.52 0.23-0.21 0.23-0.23 0.52-0.03 0.27-0.02 0.65v1.69q-0.01 0.39 0.02 0.65 0.02 0.29 0.23 0.52c0.15 0.15 0.33 0.21 0.52 0.23q0.27 0.03 0.65 0.03h2.04c6.05 0 10.63-4.47 10.63-10.49 0-6.03-4.58-10.5-10.63-10.5h-2.04z"/>
</svg>