<svg xmlns="http://www.w3.org/2000/svg" width="100" height="42" viewBox="0 0 26.458333 11.1125">
  <path fill="#ff441f" fill-rule="evenodd" d="M20.558408 4.3869066c-.0361.1959906-.09312.4223-.169641.6717091-.07688.2494092-.175417.5125338-.29164.7792681-.126324.2689006-.257351.520476-.388732.7471457-.129939.2245046-.259876.4176072-.3844.5738932-.121631.1523176-.234611.2649308-.334953.3349528-.07579.052698-.118029.058469-.132462.058469-.0068 0-.01228-.00108-.01805-.00368-.01269-.00573-.05487-.033927-.07327-.167838-.01733-.1227217-.0079-.2840593.02707-.4793268.0361-.2010435.09277-.4295179.169642-.6774837.07579-.2479659.174333-.5110905.292361-.7814344.11695-.2681775.244717-.5183097.38043-.7438962.134985-.2252263.266373-.4161638.390898-.5677586.12092-.147985.233889-.2587933.335673-.3298985.07616-.052698.118028-.058469.132462-.058469.0073 0 .01269.00108.01768.00368.01269.00546.05487.033927.07363.1678367.01695.1227217.0079.2815329-.02671.4728306m-5.066871 0c-.0361.1959906-.09312.4223-.169641.6717091-.07724.2508525-.175778.513617-.29164.7792681-.126692.2696222-.25771.5211976-.388731.7471457-.130293.2248647-.259877.4179673-.384401.5738932-.12163.1523163-.234251.2649294-.335313.3349528-.07579.052698-.117661.058469-.132107.058469-.0068 0-.01228-.00108-.01805-.00355-.01269-.00573-.05486-.033927-.07327-.167838-.01733-.1223534-.0083-.2833377.02707-.4793269.03573-.2006833.09277-.4284361.169641-.6774837.0758-.2483273.174335-.5110904.292361-.7814343.117306-.2689006.245439-.5190314.380071-.7438962.135708-.2255878.267094-.4165255.391257-.5677586.121276-.147985.234611-.2591548.335674-.3298985.07579-.052698.118028-.058469.132461-.058469.0073 0 .01269.00108.01768.00355.01269.00546.05522.033927.07364.1678367.01697.1227217.0079.2815329-.02671.4728306m-5.489882-.0505293c-.022372.1992386-.065685.4266313-.1288603.6764006-.0635299.249049-.1501513.5110905-.2580716.7796296-.1075657.2670971-.2219786.5183111-.3407279.7464239-.1162282.2230614-.2335273.413276-.3493886.5655922-.1126132.1479865-.2183686.2584332-.3147398.3280952-.071101.05162-.1108124.057392-.1241678.057392-.00614 0-.011595-.00108-.017326-.00368-.01296-.00573-.057746-.035019-.080855-.171086-.0216486-.1245267-.023463-.2851413-.0061379-.4778824.0180481-.195629.0588371-.4204951.1216304-.6680995.0628069-.2479659.1497898-.5103688.2580717-.7796295.108998-.2707054.223783-.5215578.3410889-.7467841.1155053-.2226999.2331659-.4150808.3497506-.5720899.1118901-.1515947.218007-.2634848.3140168-.3331467.071101-.05162.1108124-.057392.1245224-.057392.00614 0 .011595.00108.016602.00368.01371.00573.060269.036096.088794.1739727.02526.1227217.02707.2836991.0055.4789667M21.102712 2.6811099c.265291 0 .493406.08121.678206.2418284.178305.1548441.305717.3760993.378266.6572721.07038.2725088.08483.6020472.04331.97995-.04152.3732126-.150511.7991209-.324846 1.2658154-.164228.4410685-.352638.8290784-.559096 1.1528409-.09998.1573706-.202847.3046339-.307158.4407083-.01337.017325.0066.040066.02562.029603.06064-.03285.12092-.068578.18047-.1075657.135709-.087703.266013-.1822751.389815-.282256.345419-.279728.596272-.6579922.71827-1.0831789.07292-.2559067.153759-.5096472.241829-.759778.144376-.4118326.298497-.7962329.458392-1.1427349.158815-.3454188.290919-.6038521.392704-.7688007.115504-.1876895.277201-.3046339.481855-.3479467.191297-.040421.374293-.037542.542492.00791.172168.046928.312933.1321073.417967.2541019.114414.133185.139322.284781.07147.438542-.02021.053053-.07327.1743327-.15773.3609391-.08483.1876881-.180109.4067784-.290919.6709862-.106474.2537417-.21584.5284155-.324846.8157244-.106473.2822545-.189853.5457406-.247603.7832391-.0563.2310009-.07832.4230203-.06569.5706452.01228.1411272.06606.1411272.09529.1411272.04114 0 .114059-.019494.227393-.1118901.108998-.09024.224143-.1988772.342892-.3244842.118752-.1259684.232806-.2616813.338199-.4031701.09637-.1288605.179027-.2429129.246161-.3392827.05847-.084102.151595-.1321073.255186-.1321073.109366 0 .21548.054868.270704.1396826.05378.083011.05234.1819135-.0047.2707054-.07147.1115354-.196351.2984964-.381875.5724499-.183718.2707054-.40353.5497105-.6533.8298-.254101.2840594-.531665.5363565-.825829.7496722-.309326.2248647-.621899.3385611-.928337.3385611-.277201 0-.48402-.096011-.615041-.2858642-.119083-.1732477-.179725-.4056932-.179725-.6908357v-.045482c.000721-.033927-.03899-.053053-.06533-.031758-.05812.04656-.11803.092764-.179027.1382407-.360272.2681775-.776074.4955688-1.236632.6764005-.411112.1617005-.864091.2436333-1.346305.2436333l-.09818-.00108-.09853-.00328c-.328456-.000723-.57209-.1035959-.724766-.3067989-.02706-.035728-.05198-.072547-.07399-.1104441-.01768-.030326-.06353-.025264-.07363.00859-.04945.1649486-.09636.324124-.139684.4764403-.09384.3273721-.173972.6107101-.244356.866255-.07075.256267-.132107.4897951-.182635.6951691-.04873.197796-.08266.358053-.09998.476802l-.0011.0044c-.04439.224864-.196352.303909-.316544.330981-.05342.01187-.108998.01805-.165311.01805-.101781 0-.209344-.01985-.319431-.05847-.167474-.0592-.317986-.161338-.447924-.303909-.134631-.147986-.202848-.333148-.202848-.550433 0-.04404.01118-.140405.09746-.4952081.0646-.2616817.151594-.5872495.259515-.9680416.07292-.2580716.155926-.5388829.247966-.8391843.01078-.036096-.03032-.066054-.06136-.044758-.320876.2183685-.680734.4071399-1.073435.5612609-.411471.1617005-.864091.2436346-1.346305.2436346-.06498 0-.131384-.0015-.197074-.00437-.32809-.0007212-.571724-.103594-.724762-.306797-.02707-.035728-.05162-.072192-.07363-.1104441-.01804-.030326-.06353-.02491-.07363.00859-.04981.1653101-.09674.3248455-.140046.4764402-.09421.3284552-.174333.6121531-.243994.8662543-.07075.256268-.132463.4897951-.182997.6951691-.04873.198157-.08229.358415-.09998.476803l-.000721.0044c-.04439.224862-.196712.303908-.316906.330979-.05342.01187-.108643.01804-.164948.01804-.101782 0-.209346-.01985-.319793-.05847-.167477-.05918-.317627-.161335-.447566-.303906-.134631-.147986-.202848-.333148-.202848-.550434 0-.04439.01078-.140767.09746-.4952081.06498-.2642084.151955-.5897769.259155-.9680412.06353-.2248647.133908-.4645296.212954-.7233229.01159-.038988-.0361-.068578-.06641-.040789-.134631.1227217-.273233.2371369-.415443.3418105-.304993.2248648-.615402.3389212-.922201.3389212-.2772016 0-.4843812-.096011-.6150411-.2858641-.0526771-.0765623-.0938208-.164994-.1237782-.2642532-.0263424-.0884262-.139684-.1155052-.2039301-.0487285-.0902406.093842-.1894943.1793871-.2959714.2548222-.1386007.0981801-.2934435.1804703-.4609199.2447177-.1725294.0656853-.3591343.0992579-.5547635.0992579-.2645692 0-.4966533-.0804867-.6893943-.2396635-.1876895-.1537596-.3266505-.371768-.4136374-.6486081-.0844566-.2681789-.1155053-.597716-.0923961-.9799514.0230956-.3775425.1089981-.8012858.2555452-1.2600395.3122121-.9514373.7193519-1.6577966 1.2105908-2.1006685.500263-.4511756 1.0077438-.6800102 1.5083673-.6800102.211871 0 .3912577.04259.5323857.1263232.138962.083011.246161.1927411.318709.326289.04836.089872.08374.1862447.105397.2887521.0039.018048.02851.02165.03754.00546.02527-.045482.04946-.086257.07219-.1234448.115506-.186968.275038-.3039125.474638-.3475853.186604-.040421.36924-.037897.542131.00764.17722.046928.320514.1324619.425908.254462.114414.133185.139322.284781.0711.438542-.01985.05233-.0711.1707177-.15737.3609337-.0841.1862448-.182274.4118313-.290918.6709861-.107566.2566284-.216923.5313035-.324845.8157244-.106843.2822545-.190215.5461008-.247605.7832378-.0563.2313624-.07832.4233832-.06568.5706465.01228.1411273.06606.1411273.09494.1411273.04152 0 .114414-.019494.227391-.1118902.06244-.05162.127414-.1097211.193825-.1736125.257346-.2479609.429875-.5186663.545015-.8554226.153038-.446843.314017-.8879114.479327-1.313098.1765-.4522574.348668-.8583142.511813-1.2069825.08518-.1804702.220172-.3021061.399921-.360579.168558-.054868.341448-.066409.511452-.034282.169641.032481.318347.099981.44179.2010436.05486.044758.09853.093119.131015.1440152.0086.01371.01877.015156.03068.00396.145819-.1346311.306798-.2580718.48041-.3681584.254101-.162062.54177-.2439947.855065-.2439947.264931 0 .493405.08121.677845.2418283.178666.1552043.306077.3760993.378626.6572721.07038.2721487.08483.6020472.04331.97995-.04152.3728512-.150873.7991209-.324845 1.2658155-.164589.4414299-.353.8294399-.559457 1.1528408-.09998.1573706-.202848.3046339-.30716.4407083-.01337.017326.0068.040066.02599.029603.06028-.03285.120554-.068577.180471-.1075657.09709-.062807.191297-.1292152.282254-.198517.34578-.2627645.603853-.6222603.74137-1.0315651l.05414-.1598971c.162424-.4800499.334232-.9528805.510371-1.405498.176859-.4529792.349028-.8590372.512172-1.2069825.08483-.1804703.219452-.301746.399922-.360579.168559-.054868.341449-.066409.511451-.034282.169641.032481.317988.099981.441429.2006834.05487.045114.09853.093488.131017.1443754.0087.01371.01877.015156.03068.00396.14582-.134631.306799-.2580717.48041-.3681583.254453-.1620767.542122-.2440094.855055-.2440094zM4.5016562.43281672c.3804305 0 .7615828.044036 1.1333508.1302929.3742945.087349.7139388.220172 1.0088256.39486766.2984978.17686052.5435757.39883742.7283772.65979712.1884098.2656511.2836978.5771428.2836978.9258097 0 .3753776-.083733.7276542-.2490476 1.0467253-.1638668.3158216-.3894546.6042135-.6699043.857231-.2779233.2512139-.6074617.472832-.9795898.6583538-.306799.1530393-.6327277.2836992-.9712888.3887329-.021663.00682-.029234.018048-.028156.039698.00723.1660318.019126.3302587.036096.4883509.019126.1815521.04439.3584127.07544.5262493.030312.1649499.067131.3255686.1086434.4775235.032481.1176605.068578.2320839.1071973.3407273.024542.0693.050529.1371562.076886.200682.053053.1281375.1115355.2508538.1736125.3645487.060993.1118903.1270462.2180085.1963508.3154615.0675.094934.140044.1840798.2154805.2656511.073638.07941.1515947.1523176.231724.2172867.077963.063162.1602571.1205528.2443562.1696415.081933.04836.1678365.09024.2555452.1248907.086271.033928.1754159.061361.2652895.08121.09024.019849.1829968.032481.2768416.03862.093488.00573.1909362.00464.288029-.00396.098903-.00859.1999604-.024542.3003027-.048006.1028726-.023818.2075394-.055222.3118516-.093842.1068427-.039697.2147589-.088072.3212359-.1425719.040789-.02094.081933-.043313.1227218-.066408.1328303-.075794.3024662-.039697.3916196.08301.089518.1227218.069668.2923617-.045836.3919808-.056668.04873-.1136909.096366-.1700029.1418491-.136796.1104436-.2739535.2129546-.4078616.3042726-.1270462.08662-.2562682.167476-.3840401.239303-.063885.0361-.131016.07147-.1992386.1053961-.131016.06568-.2634862.123446-.3945077.171807-.1302929.048-.2613197.08807-.3890916.118383-.1274146.03032-.2559068.05233-.3811523.06497-.089518.009-.1790269.01371-.2663741.01371-.035374 0-.070746-.000722-.1061197-.0025-.1212757-.0051-.2418297-.01912-.3587742-.04187-.057746-.01118-.1162281-.02491-.1732509-.04079-.055222-.0148-.1118901-.03248-.1685583-.05305-.1086456-.038946-.2165659-.086952-.3197949-.14289-.1010585-.054867-.2006833-.118028-.2952484-.188049-.076517-.0566681-.1515946-.1191071-.2226998-.1851631-.0855478-.079409-.1689198-.167837-.2479659-.26168-.077963-.092764-.1526778-.1931039-.2219782-.2981364-.0696551-.1046736-.135354-.2165637-.1959905-.3320649-.0602832-.1155051-.1176607-.2382201-.1696415-.3645487-.0516206-.1252455-.0996261-.2580717-.1432922-.3955893-.042958-.1349994-.0822874-.2779247-.1169512-.425188-.0342955-.1469019-.0642529-.2992182-.0891492-.4529792-.0223725-.136077-.0411437-.2772015-.0559451-.4204937-.0043655-.0433125-.0667766-.0490829-.0794089-.0068236-.0541444.1869664-.1032277.3681583-.1465418.5414094-.0544987.2172854-.1046735.4150793-.1501513.5926616-.0443905.173974-.0757942.3140182-.0938423.416164-.0360961.1811919-.1562875.2956099-.3490298.3327865-.1656703.0324808-.3436141.0187715-.526971-.0396981-.1811916-.0581112-.34578-.1588108-.4897952-.299938-.150873-.147985-.2273913-.3338698-.2273913-.5529599 0-.178304.045482-.460197.1386008-.8612022.0909504-.3916182.2219782-.8557876.3901749-1.3802321.1667548-.5201145.3692415-1.0936476.6013256-1.7036358.1992386-.5240843.4230216-1.0517769.665573-1.5722529.079409-.1703629.2436346-.2876676.4331275-.3093239.4284348-.0490833.8002028-.0368193 1.1153027.0360962.1898545.0440357.2916401.2472428.2122325.4222987-.2032084.4468443-.3905364.8926041-.5580129 1.3264533-.135354.3511947-.2652895.6987786-.3880099 1.0369796-.011869.033572.022741.064608.055222.049806.1635067-.073993.3248471-.1613401.4825777-.2609594.2584319-.1635054.4937655-.3587742.6998619-.5800308.2050132-.2212551.3732113-.4706643.4999014-.7417298.1248908-.2685391.1884098-.5601792.1884098-.8676997 0-.3952279-.1111671-.6872281-.3302601-.8673368-.2219768-.1822751-.5345516-.2750366-.9294193-.2750366-.4204939 0-.8048955.09818-1.1423735.2920001-.346502.198517-.6460817.4425118-.8904379.725488-.246161.2851425-.4403467.5897764-.5764211.9055979-.1349857.312935-.2035699.5872487-.2035699.8157231 0 .1635067-.087703.2815329-.2468827.3324264-.1396826.0447584-.2938036.0382655-.45189599-.0198486-.15195615-.055591-.29272184-.1656719-.41869031-.3266507-.12669155-.1617018-.19093633-.3807921-.19093633-.6511359 0-.2360538.0909504-.5139771.27792329-.8496516.18191354-.3273721.45117424-.6460816.79948114-.9474661.3479453-.3006628.7868488-.56162242 1.3058788-.77529818.5219193-.2151205 1.1250497-.324124 1.7924262-.324124ZM25.207679.18304606c.582196 0 1.053944.46561276 1.053944 1.03950594 0 .5738946-.471748 1.0395061-1.053944 1.0395061-.582195 0-1.053945-.4656115-1.053945-1.0395061 0-.57389318.47175-1.03950594 1.053945-1.03950594z" style="stroke-width:.360939"/>
</svg>
