<svg width="101" height="61" viewBox="0 0 101 61" fill="none" xmlns="http://www.w3.org/2000/svg">
<path fill-rule="evenodd" clip-rule="evenodd" d="M41.7174 61C37.0599 61 32.0931 58.0659 32.0931 52.4496C32.0931 46.5813 37.0599 43.8092 41.7174 43.8092C46.3385 43.8092 51.3053 46.9053 51.3053 52.4856C51.3053 58.1559 46.3385 61 41.7174 61ZM41.7174 46.6713C37.9332 46.6713 35.4225 49.2274 35.4225 52.5036C35.4225 55.6357 37.9332 58.1378 41.7174 58.1378C45.4652 58.1378 47.9759 55.7077 47.9759 52.5036C47.9759 49.2454 45.4652 46.6713 41.7174 46.6713Z" fill="#354691"/>
<path d="M8.73281 60.784C10.7887 60.784 12.6444 60.244 13.9543 59.6319C15.3006 59.0199 16.3013 58.3539 16.7561 57.9219V51.4595H8.44172L8.40534 53.9617H13.6996V56.2838C12.4988 57.2378 10.5522 57.8858 8.71462 57.8858C5.71272 57.8858 3.23842 55.7077 3.23842 52.2876C3.23842 48.8854 5.54898 46.8513 8.71462 46.8513C10.1519 46.8513 11.4072 47.0673 12.2805 47.4094C13.0083 47.6974 14.7548 48.5254 15.2824 48.9034L16.7743 46.7433C16.3558 46.3113 14.4819 45.0512 12.8991 44.5652C11.3345 44.0972 9.5879 44.0072 8.75101 44.0072C4.6575 44.0072 0 46.7433 0 52.3416C0 57.8498 4.58472 60.784 8.73281 60.784Z" fill="#354691"/>
<path d="M18.9029 44.2772L18.9393 60.55H32.7299V57.7238H22.4506V44.2772H18.9029Z" fill="#354691"/>
<path fill-rule="evenodd" clip-rule="evenodd" d="M53.07 60.55H62.003C65.0595 60.55 67.8249 58.8399 67.8249 56.0858C67.8249 54.3217 66.4058 52.5936 65.0231 52.3416C65.0413 52.3056 65.0231 52.2876 65.0231 52.2876C66.3876 51.7476 67.643 50.6135 67.643 48.7594C67.643 46.2933 65.387 44.2772 61.7301 44.2772H53.1064L53.07 60.55ZM56.5086 46.8513H61.4572C63.4221 46.8153 64.4045 47.8594 64.4045 48.9934C64.4045 50.2355 63.131 51.2255 61.1661 51.2255L56.5086 51.2075V46.8513ZM56.5086 53.6376H61.3662C63.3311 53.6376 64.3136 54.6817 64.3136 55.9058C64.3136 57.0938 63.131 57.9939 61.1661 57.9939H56.5086V53.6376Z" fill="#354691"/>
<path fill-rule="evenodd" clip-rule="evenodd" d="M81.7974 60.55L80.1964 56.9138L72.6097 56.9318L70.9905 60.55H67.6247L75.175 44.2232H78.0677L85.2905 60.55H81.7974ZM76.4667 48.2014H76.4485L73.7377 54.2857H79.123L76.4667 48.2014Z" fill="#354691"/>
<path d="M86.6732 44.2772L86.7096 60.55H100.5V57.7238H90.2209V44.2772H86.6732Z" fill="#354691"/>
<path d="M66.8685 23.6848C66.8685 21.4527 66.1353 19.5086 64.6323 18.1046C63.0925 16.7005 60.9296 15.6924 58.1434 15.0084C56.7869 14.6844 55.1372 14.3604 53.2309 14.0364C51.3245 13.7124 49.8581 13.4603 48.8683 13.2443C47.0353 12.8483 45.8255 12.2723 45.3489 11.8043C44.8356 11.3002 44.579 10.7242 44.579 9.75215V9.64415C44.6157 8.67211 45.0556 7.95208 46.4487 7.19604C47.6952 6.51201 49.4182 6.15198 51.6178 6.15198H52.1677C54.4407 6.22398 56.6036 6.584 58.7299 7.23203C60.9296 7.95207 62.066 8.70811 63.4225 9.71616L66.1353 4.67592C66.1353 4.67592 61.6994 1.86778 59.5365 1.39976C57.3368 0.93174 54.9539 0.64372 52.351 0.571716H51.5812C47.8418 0.571716 44.6157 1.32776 41.9395 2.87583C39.1166 4.49591 37.4669 6.94402 37.3936 9.82416V10.1122C37.3936 12.4163 38.2368 14.4684 39.9232 16.0165C41.6462 17.6365 44.2124 18.6806 47.5119 19.3646C49.1249 19.6886 50.628 19.9406 52.0577 20.1567C53.4508 20.3727 54.734 20.6247 55.9071 20.9127C57.4102 21.2727 58.4367 21.7767 59.0232 22.2448C59.4631 22.6408 59.7198 23.1808 59.7564 24.2248V24.4049C59.6831 25.5209 59.2065 26.3129 57.7401 27.105C56.4203 27.789 54.4773 28.185 51.9844 28.185H51.2879C49.3082 28.149 47.1453 27.753 44.8357 27.033C42.526 26.3129 39.5932 23.9368 39.5932 23.9368L36.2571 29.1571C38.1635 30.7412 41.6095 32.4332 43.8458 32.9373C46.0088 33.4053 48.4284 33.6933 51.0679 33.7653H52.0211C54.1107 33.7653 55.9804 33.5853 57.6301 33.1533C59.4631 32.6852 61.1129 32.0372 62.5426 31.1372C63.8624 30.3091 64.9622 29.2291 65.7321 27.969C66.5019 26.709 66.9419 25.3769 66.9785 24.0088C66.8563 23.9188 66.8614 23.8288 66.8665 23.7388C66.8675 23.7208 66.8685 23.7028 66.8685 23.6848Z" fill="#354691"/>
<path fill-rule="evenodd" clip-rule="evenodd" d="M32.0778 8.85213C30.6481 6.54802 28.5951 4.67594 26.0289 3.30787C24.4891 2.47983 22.6561 1.86781 20.5665 1.43579C18.4035 0.967765 15.5807 0.751746 12.0979 0.751746H0V33.3693H12.2079C15.5073 33.3693 18.1836 33.1893 20.2732 32.7573C22.3628 32.3613 24.2692 31.7132 25.9922 30.7772C28.4851 29.4451 30.5014 27.573 32.0045 25.1609C33.5076 22.7488 34.2775 20.0127 34.2775 17.0605C34.2775 13.9644 33.5442 11.1922 32.0778 8.85213ZM27.1653 17.0245C27.1653 19.2566 26.7621 21.0567 25.9922 22.4608C25.2223 23.8648 24.0492 24.9809 22.4362 25.8809C21.1164 26.601 19.6866 27.105 18.1102 27.357C16.4972 27.645 14.5542 27.789 12.3545 27.789H6.85549V6.40402H12.3545C14.4809 6.40402 16.3139 6.54803 17.8169 6.80004C19.2834 7.05205 20.6765 7.48407 21.9596 8.1321C23.7193 8.99614 24.9657 10.1482 25.8456 11.5883C26.7254 12.9563 27.1653 14.7564 27.1653 17.0245Z" fill="#354691"/>
<path d="M67.8583 6.40402V0.679747H100.119V6.40402H87.435V33.2973H80.5428V6.40402H67.8583Z" fill="#354691"/>
</svg>
