<?xml version="1.0" encoding="utf-8"?><svg width="600" height="136" viewBox="0 0 600 136" fill="none" xmlns="http://www.w3.org/2000/svg">
<path d="M378.349 116.169L381.769 114.925C383.221 118.087 386.328 120.263 390.47 120.263C395.182 120.263 398.136 117.934 398.136 113.577C398.136 109.122 394.196 106.738 389.949 105.133C384.875 103.215 379.33 100.47 379.33 94.4581C379.33 89.8438 383.27 86.0139 390.004 86.0139C395.342 86.0139 399.123 88.4467 400.109 91.768L396.739 92.9078C395.857 90.9897 393.473 89.2801 389.851 89.2801C385.605 89.2801 383.062 91.3023 383.062 94.4091C383.062 98.2452 387.1 100.004 391.402 101.664C396.322 103.583 401.868 106.689 401.868 113.479C401.868 119.901 397.1 123.529 390.415 123.529C384.305 123.529 379.802 120.109 378.349 116.169Z" fill="black"/>
<path d="M408.143 109.643C408.143 100.837 412.855 95.8124 419.645 95.8124C425.295 95.8124 430.111 99.6975 430.111 108.607C430.111 109.177 430.111 110.005 430.007 111.144H411.979C412.598 116.531 415.294 120.158 419.804 120.158C421.722 120.158 423.745 119.589 425.761 118.087L427.728 120.52C425.657 122.23 422.703 123.523 419.645 123.523C412.494 123.529 408.143 117.107 408.143 109.643ZM426.429 107.884C426.38 100.733 422.439 99.0785 419.639 99.0785C415.392 99.0785 412.181 101.879 411.869 107.884H426.429Z" fill="black"/>
<path d="M442.698 131.091C451.296 130.625 453.165 127.567 453.165 123.939V119.901C451.663 122.132 449.537 123.529 445.909 123.529C440.21 123.529 435.081 118.865 435.081 109.643C435.081 100.941 439.64 95.8124 446.117 95.8124C450.162 95.8124 452.282 97.8836 453.165 98.9192V96.4313H456.792V122.493C456.792 131.195 450.836 133.683 444.359 133.94L442.698 131.091ZM453.165 115.863V103.117C451.663 100.476 448.654 99.0785 446.743 99.0785C441.509 99.0785 438.868 102.859 438.868 109.649C438.868 116.439 442.239 120.269 446.743 120.269C448.918 120.263 451.712 118.608 453.165 115.863Z" fill="black"/>
<path d="M481.714 120.367C479.851 122.8 477.878 123.529 475.133 123.529C468.294 123.529 465.396 119.901 465.396 111.199V96.4313H469.024V112.597C469.024 118.142 471.616 120.263 475.139 120.263C478.871 120.263 481.72 118.449 481.72 112.701V96.4313H485.348V122.904H481.72V120.367H481.714Z" fill="black"/>
<path d="M494.203 96.4313H497.831V100.163C499.749 97.3137 502.494 95.8124 504.927 95.8124C506.171 95.8124 507.415 96.2291 508.242 96.9032L507.672 100.427C506.998 100.01 505.962 99.4401 504.253 99.4401C501.869 99.4401 497.831 101.407 497.831 107.939V122.91H494.203V96.4313Z" fill="black"/>
<path d="M511.919 109.692C511.919 100.99 516.478 95.8062 523.267 95.8062C530.051 95.8062 534.61 100.831 534.61 109.637C534.61 118.338 530.051 123.523 523.267 123.523C516.478 123.529 511.919 118.504 511.919 109.692ZM530.829 109.643C530.829 103.062 528.188 99.0724 523.267 99.0724C518.347 99.0724 515.706 102.804 515.706 109.692C515.706 116.273 518.347 120.263 523.267 120.263C528.084 120.263 530.829 116.273 530.829 109.643Z" fill="black"/>
<path d="M540.003 118.921L542.54 116.69C544.145 118.608 546.682 120.318 549.427 120.318C552.326 120.318 554.605 118.97 554.605 116.482C554.605 113.271 551.235 111.874 548.024 110.574C543.826 108.865 540.095 107.002 540.095 102.547C540.095 98.5025 543.667 95.8124 548.643 95.8124C552.216 95.8124 555.12 97.3137 557.246 99.8568L554.863 101.879C553.515 100.531 551.443 99.0295 548.545 99.0295C545.487 99.0295 543.52 100.378 543.52 102.498C543.52 105.194 546.474 106.334 549.581 107.578C553.521 109.134 558.025 110.948 558.025 116.279C558.025 120.685 554.605 123.535 549.115 123.535C545.542 123.529 542.227 121.562 540.003 118.921Z" fill="black"/>
<path d="M336.514 47.2796H318.841V123.535H336.514V47.2796Z" fill="black"/>
<path d="M327.641 19.9125C322.298 19.9125 317.953 24.2572 317.953 29.6007C317.953 34.9442 322.304 39.2889 327.641 39.2889C332.985 39.2889 337.335 34.9442 337.335 29.6007C337.335 24.2572 332.985 19.9125 327.641 19.9125ZM282.381 64.6583C288.318 64.6583 293.104 66.8949 298.184 71.9995L310.305 59.2167C304.38 53.4014 295.917 47.3532 282.503 47.3532C261.484 47.3532 244.375 64.7318 244.375 86.0874V86.3326C244.375 107.688 261.429 125.067 282.381 125.067C292.963 125.067 301.928 121.31 309.686 113.626L297.155 101.493C292.583 105.795 288 107.762 282.62 107.762C271.344 107.762 262.165 98.0919 262.165 86.21V85.971C262.171 74.0217 271.05 64.6583 282.381 64.6583ZM227.83 71.5582C232.824 66.4292 235.19 59.8602 235.19 53.1624C235.19 37.7875 227.04 25.0354 202.73 25.0354H168.329V123.602H203.386C229.276 123.602 238.217 110.464 238.217 93.9066C238.217 85.1009 235.061 76.5525 227.83 71.5582ZM186.032 42.5121H203.123C214.165 42.5121 215.997 47.7699 215.997 53.1624C215.997 58.4201 213.767 63.9413 204.17 63.9413H186.026V42.5121H186.032ZM203.913 106.126H186.032V81.4119H204.177C215.084 81.4119 219.159 85.3582 219.159 93.9066C219.159 99.9487 216.53 106.126 203.913 106.126Z" fill="black"/>
<path d="M119.63 78.0538C119.63 78.0538 134.19 81.9144 129.637 102.363H129.643C129.392 103.442 129.306 104.575 129.404 105.74C129.907 111.775 135.214 116.255 141.25 115.746C147.285 115.238 151.771 109.937 151.256 103.901C150.251 89.6661 123.448 72.2507 119.814 72.7164C119.814 72.7164 117.731 72.79 117.669 75.4862C117.614 77.6187 119.63 78.0538 119.63 78.0538Z" fill="#0C9647"/>
<path d="M115.133 84.7577C115.133 84.7577 124.649 87.2824 121.677 100.647H121.683C121.683 100.647 118.54 113.252 98.4096 116.567C75.5894 120.318 75.951 111.972 75.951 111.972C75.7671 107.817 74.1923 102.792 96.8409 89.0656C96.8409 89.0717 108.275 82.1166 115.133 84.7577Z" fill="#FDD700"/>
<path d="M39.0243 118.988C39.2695 125.422 44.0553 130.821 50.4099 131.832C51.2801 131.967 52.1686 132.022 53.0572 131.985C56.6665 131.85 60.0123 130.312 62.4696 127.659C64.9207 125.012 66.2015 121.562 66.0666 117.995C66.0728 108.258 70.4665 100.898 79.3396 94.1701C87.3671 88.2751 98.7527 81.0748 114.875 72.1159C134.889 61.4779 147.892 48.9035 150.778 38.6822L150.864 38.3635C151.226 37.046 151.361 35.7285 151.281 34.4662C151.036 28.0319 146.25 22.6333 139.889 21.6222C139.025 21.4812 138.13 21.4322 137.248 21.4629C133.633 21.6038 130.293 23.1358 127.842 25.7891C125.384 28.4364 124.11 31.8925 124.245 35.4528C124.232 45.7108 118.049 52.5128 109.703 60.4974C91.8895 74.4138 75.4362 81.3383 75.4362 81.3383C55.4225 91.9763 42.4192 104.551 39.533 114.766L39.4472 115.085C39.0795 116.414 38.9386 117.732 39.0243 118.988Z" fill="#EF3942"/>
<path d="M60.2758 22.8478C61.4033 41.0108 86.546 61.9988 102.007 70.5533C106.21 72.8819 111.333 73.4517 113.613 72.7532C120.74 69.5728 113.129 66.7601 113.129 66.7601C113.129 66.7601 88.6907 60.0623 96.6263 25.7217H96.6202C97.0491 23.914 97.2207 22.0083 97.0675 20.0473C96.3015 9.88733 87.4284 2.2765 77.2745 3.05474C67.1145 3.82686 59.5037 12.6816 60.2758 22.8478Z" fill="#2C70B8"/>
</svg>
