<svg preserveAspectRatio="none" width="100%" height="100%" overflow="visible" style="display: block;" viewBox="0 0 36.0001 36.0002" fill="none" xmlns="http://www.w3.org/2000/svg">
<g id="logomark_payments_concierge">
<path d="M23.2512 12.0706C23.4054 12.0499 23.6249 12.0546 23.7798 12.0717C25.2717 12.236 26.2591 13.5451 26.0946 15.0103C26.0213 15.6816 25.6835 16.2957 25.1564 16.7163C24.3724 17.3419 23.3486 17.4841 22.4105 17.0821C22.1497 16.9703 21.8353 16.6861 21.5347 16.6645C21.2759 16.646 21.0363 16.7647 20.8438 16.9309C20.5316 17.2003 20.6081 17.5941 20.5831 17.9844C20.5429 18.762 20.1791 19.4956 19.5457 19.9598C19.1648 20.2388 18.6042 20.4343 18.5878 21.0074C18.5641 21.8181 19.3234 21.882 19.7871 22.3584C20.2874 22.8723 20.5991 23.5474 20.591 24.2782C20.5836 24.9533 20.2692 25.6596 19.7851 26.1333C19.2744 26.633 18.6057 26.8807 17.8911 26.8668C17.1878 26.8549 16.5194 26.5576 16.0388 26.0428C15.5717 25.5404 15.3194 24.8748 15.3358 24.1883C15.3588 23.4012 15.7371 22.6362 16.37 22.16C16.5925 21.9926 16.9113 21.8425 17.1014 21.6651C17.2601 21.4958 17.3664 21.2762 17.3502 21.0406C17.3046 20.381 16.6503 20.2081 16.2186 19.8252C15.5356 19.2195 15.3552 18.5643 15.3227 17.6754C15.3134 17.4215 15.2102 17.0859 14.9996 16.9388C14.3982 16.4939 14.0077 16.9345 13.4868 17.1601C11.8484 17.8695 9.90597 16.7631 9.83155 14.9374C9.80035 14.171 9.99654 13.5274 10.5019 12.967C10.947 12.4707 11.572 12.174 12.2371 12.1434C13.0116 12.1067 13.656 12.3092 14.2348 12.835C14.6154 13.191 14.9275 13.7334 15.015 14.2476C15.0998 14.7452 14.9173 15.2709 15.3514 15.6456C15.926 16.1417 16.3952 15.7104 16.9406 15.4656C17.1857 15.3553 17.4473 15.2864 17.7148 15.2617C18.1551 15.2172 18.5993 15.2886 19.0035 15.4688C19.5285 15.7047 20.0052 16.1705 20.5992 15.6533C21.0147 15.2916 20.8355 14.7169 20.9163 14.2181C20.9896 13.7893 21.171 13.3864 21.4435 13.0478C21.9199 12.4642 22.5062 12.149 23.2512 12.0706Z" fill="currentColor"/>
<path d="M17.7599 10.0414C18.5691 9.9265 19.318 10.4913 19.4318 11.3025C19.5456 12.1137 18.9813 12.8636 18.1719 12.9769C17.3635 13.0901 16.6166 12.5255 16.5029 11.7154C16.3892 10.9053 16.9518 10.1561 17.7599 10.0414Z" fill="currentColor"/>
<path d="M23.2442 19.6291C24.0569 19.5024 24.8168 20.0641 24.9362 20.8796C25.0557 21.6952 24.4889 22.4519 23.6741 22.5647C22.8692 22.676 22.1252 22.1162 22.0072 21.3105C21.8892 20.5047 22.4414 19.7542 23.2442 19.6291Z" fill="currentColor"/>
<path d="M28.2242 10.378C29.0372 10.2699 29.7829 10.8449 29.8871 11.6602C29.9912 12.4755 29.4142 13.2202 28.6003 13.321C27.7915 13.4211 27.0541 12.8472 26.9506 12.0371C26.8471 11.227 27.4164 10.4854 28.2242 10.378Z" fill="currentColor"/>
<path d="M17.7208 28.4761C18.5285 28.3406 19.2924 28.8883 19.4253 29.6982C19.5581 30.5081 19.0095 31.2722 18.201 31.4031C17.3958 31.5334 16.6372 30.9862 16.5048 30.1795C16.3725 29.3729 16.9163 28.611 17.7208 28.4761Z" fill="currentColor"/>
<path d="M7.32367 10.3805C8.13501 10.2543 8.89372 10.8144 9.01399 11.6285C9.13426 12.4424 8.57013 13.1989 7.75707 13.3138C6.95204 13.4276 6.20627 12.8689 6.0872 12.0628C5.96808 11.2568 6.52031 10.5055 7.32367 10.3805Z" fill="currentColor"/>
<path d="M12.2964 19.6283C13.1056 19.5134 13.8545 20.0782 13.9683 20.8894C14.0821 21.7006 13.5178 22.4505 12.7084 22.5638C11.9 22.677 11.1531 22.1124 11.0394 21.3023C10.9257 20.4923 11.4883 19.743 12.2964 19.6283Z" fill="currentColor"/>
<path d="M28.1923 22.582C28.9395 22.4699 29.6359 22.9857 29.7483 23.7344C29.8606 24.4832 29.3464 25.1815 28.5994 25.2946C27.8517 25.4077 27.1542 24.8918 27.0418 24.1424C26.9294 23.393 27.4446 22.6943 28.1923 22.582Z" fill="currentColor"/>
<path d="M7.33176 22.5894C7.81998 22.5015 8.31745 22.6854 8.63184 23.07C8.94628 23.4545 9.0284 23.9795 8.84647 24.442C8.66459 24.9046 8.24717 25.2322 7.7555 25.2983C7.01823 25.3975 6.33699 24.8881 6.22178 24.1516C6.10656 23.415 6.59955 22.7211 7.33176 22.5894Z" fill="currentColor"/>
<path d="M17.7637 4.63705C18.3993 4.52453 19.0059 4.94836 19.1204 5.58492C19.2349 6.22148 18.8142 6.83097 18.1794 6.94799C17.5416 7.06558 16.9297 6.64128 16.8147 6.00156C16.6996 5.36183 17.1251 4.75015 17.7637 4.63705Z" fill="currentColor"/>
<path d="M34.9962 17.0959C35.4058 16.9695 35.8401 17.2 35.9658 17.6107C36.0915 18.0214 35.861 18.4564 35.4511 18.582C35.0419 18.7074 34.6086 18.4768 34.483 18.0667C34.3575 17.6566 34.5872 17.2222 34.9962 17.0959Z" fill="currentColor"/>
<path d="M26.1752 2.12599C26.5977 2.06253 26.9918 2.35352 27.0567 2.77678C27.1214 3.19998 26.8324 3.596 26.4104 3.66239C25.9863 3.72908 25.5888 3.43775 25.5237 3.01242C25.4586 2.58714 25.7507 2.1898 26.1752 2.12599Z" fill="currentColor"/>
<path d="M0.651908 17.0779C1.06916 17.0105 1.46336 17.2905 1.53824 17.7074C1.61306 18.1242 1.34097 18.5244 0.926416 18.607C0.651506 18.6618 0.368435 18.5636 0.186215 18.35C0.00393761 18.1366 -0.0491022 17.8411 0.0474382 17.5773C0.144036 17.3135 0.375158 17.1226 0.651908 17.0779Z" fill="currentColor"/>
<path d="M26.0332 32.3812C26.3079 32.3294 26.5891 32.43 26.7689 32.6445C26.9486 32.859 26.9991 33.1539 26.9008 33.4161C26.8025 33.6784 26.5708 33.8671 26.2946 33.9099C26.2031 33.924 26.1098 33.9216 26.0192 33.9028C25.6574 33.8275 25.3992 33.5065 25.4026 33.1362C25.406 32.7659 25.6702 32.4497 26.0332 32.3812Z" fill="currentColor"/>
<path d="M9.26036 2.31896C9.67818 2.23609 10.0842 2.50767 10.1681 2.92626C10.2519 3.3448 9.98205 3.75245 9.56469 3.83768C9.14566 3.92325 8.73691 3.6515 8.65273 3.2313C8.56854 2.81103 8.84081 2.40217 9.26036 2.31896Z" fill="currentColor"/>
<path d="M9.35969 32.3281C9.76372 32.2023 10.1934 32.4263 10.3225 32.8301C10.4516 33.2339 10.2319 33.6665 9.83015 33.7995C9.47008 33.9187 9.07696 33.7576 8.90325 33.4198C8.79889 33.2168 8.78947 32.9779 8.8775 32.7673C8.9656 32.5567 9.14213 32.3959 9.35969 32.3281Z" fill="currentColor"/>
<path d="M5.83314 17.1047C6.09759 17.0623 6.36429 17.1662 6.53059 17.3766C6.69695 17.587 6.73694 17.871 6.63523 18.1193C6.53352 18.3676 6.30596 18.5415 6.04013 18.5741C5.63954 18.6231 5.27349 18.3417 5.21706 17.9412C5.16069 17.5407 5.43468 17.1687 5.83314 17.1047Z" fill="currentColor"/>
<path d="M29.8539 17.114C30.2508 17.0128 30.6543 17.2539 30.7541 17.652C30.854 18.0501 30.6123 18.4538 30.2149 18.5527C29.819 18.6513 29.4181 18.4102 29.3186 18.0137C29.2192 17.6172 29.4586 17.2148 29.8539 17.114Z" fill="currentColor"/>
<path d="M3.09861 8.5178C3.36398 8.49379 3.62166 8.61478 3.77319 8.83441C3.92467 9.0541 3.9465 9.33846 3.83037 9.57877C3.71417 9.81908 3.47799 9.97819 3.21211 9.99518C2.80842 10.021 2.45903 9.71686 2.428 9.31261C2.39691 8.90841 2.69573 8.55425 3.09861 8.5178Z" fill="currentColor"/>
<path d="M11.7175 6.72492C11.9656 6.62708 12.2469 6.67067 12.4539 6.839C12.661 7.00726 12.7615 7.27429 12.7171 7.53769C12.6727 7.80109 12.4902 8.02015 12.2395 8.11102C11.8594 8.24871 11.4394 8.05487 11.2967 7.6759C11.154 7.29692 11.3415 6.87332 11.7175 6.72492Z" fill="currentColor"/>
<path d="M11.9284 27.6943C12.1868 27.6262 12.4617 27.7032 12.6475 27.8958C12.8331 28.0884 12.9006 28.3664 12.8239 28.623C12.7472 28.8794 12.5382 29.0744 12.2775 29.1329C11.8846 29.2209 11.4936 28.9774 11.3985 28.5853C11.3034 28.1932 11.539 27.797 11.9284 27.6943Z" fill="currentColor"/>
<path d="M17.84 34.5267C18.2412 34.4777 18.607 34.7613 18.6605 35.1628C18.714 35.5643 18.4353 35.9343 18.0353 35.9925C17.7724 36.0308 17.5093 35.9245 17.3464 35.7142C17.1836 35.5039 17.146 35.2222 17.2481 34.9764C17.3503 34.7307 17.5763 34.5589 17.84 34.5267Z" fill="currentColor"/>
<path d="M23.7417 6.5934C24.1439 6.53455 24.5178 6.81298 24.5776 7.21591C24.6374 7.6189 24.3605 7.9943 23.9586 8.05529C23.5553 8.1165 23.179 7.83778 23.119 7.43336C23.059 7.02893 23.338 6.65249 23.7417 6.5934Z" fill="currentColor"/>
<path d="M17.8368 0.0113528C18.2376 -0.0589023 18.6194 0.209651 18.6897 0.611332C18.7601 1.01301 18.4924 1.39583 18.0916 1.46659C17.6905 1.53742 17.3082 1.2688 17.2378 0.866778C17.1674 0.464746 17.4356 0.0816771 17.8368 0.0113528Z" fill="currentColor"/>
<path d="M32.7086 8.58421C32.9705 8.54038 33.2357 8.64133 33.4026 8.84836C33.5695 9.05538 33.6122 9.33646 33.5145 9.5839C33.4167 9.83135 33.1936 10.0069 32.9306 10.0434C32.5317 10.0986 32.1625 9.82243 32.1018 9.42347C32.0411 9.02445 32.3114 8.6506 32.7086 8.58421Z" fill="currentColor"/>
<path d="M32.6839 25.9316C33.0789 25.8391 33.4742 26.0844 33.5676 26.4801C33.661 26.8757 33.4173 27.2726 33.0228 27.3672C32.6268 27.4623 32.229 27.217 32.1352 26.8198C32.0414 26.4226 32.2873 26.0246 32.6839 25.9316Z" fill="currentColor"/>
<path d="M23.4984 27.7425C23.8978 27.6936 24.2624 27.9755 24.3166 28.3752C24.3708 28.7749 24.0946 29.1441 23.6966 29.2039C23.4342 29.2433 23.171 29.1382 23.0076 28.9286C22.8442 28.7191 22.8061 28.4377 22.9077 28.192C23.0093 27.9464 23.235 27.7747 23.4984 27.7425Z" fill="currentColor"/>
<path d="M2.98625 25.9505C3.24772 25.9004 3.51573 25.9958 3.68715 26.1998C3.85862 26.4039 3.90672 26.6849 3.81294 26.9346C3.71916 27.1843 3.49815 27.3637 3.23502 27.4039C2.83863 27.4643 2.46695 27.1956 2.39914 26.7995C2.33133 26.4035 2.59239 26.0259 2.98625 25.9505Z" fill="currentColor"/>
</g>
</svg>
