<svg viewBox="200 30 330 80" xmlns="http://www.w3.org/2000/svg"><g fill="#1b1b1c"><path d="M501.82 54.18c18 0 29.63 14.26 26.74 31.58h-41.34c.91 7.52 7.18 12.21 14.2 12.2 6.39 0 11.66-2.9 14.51-8.78l11.42 5.72a28.43 28.43 0 0 1-25.52 15.09c-16.69-.09-28.29-12.51-28.29-27.93s11.69-27.84 28.29-27.93zm13.79 22.1c-1.38-5.79-7.63-10-14-10s-12.42 4.07-14 10zM459.12 55.69l-13 37.94-12.88-37.94h-14.6l19.31 52.83h16.43l19.31-52.83zM397.83 108.52h13.73V55.69h-13.73zM397.83 35.23h13.73v13.74h-13.73zM368.97 61.42l-.4-5.73h-12.73v52.82h13.73V85.57c0-13 9.86-18.53 20.76-16.14V55.31c-6.64-1.65-16.38-.63-21.36 6.11zM312.14 95.46h-10.56V54.35h10.56c12.1 0 20.65 8.45 20.65 20.56s-8.55 20.56-20.65 20.56zm0-54.17h-24.3v67.24h24.3c19.6 0 34.39-14.41 34.39-33.62s-14.79-33.62-34.39-33.62zM240.22 61.14l-.4-5.46h-12.73v52.83h13.73V81.34c0-16.2 22.39-17.44 22.39-3.57v30.74h13.74v-32c0-23.67-26.11-26.57-36.72-15.4zM202.72 108.52h13.78V55.69h-13.78zM202.72 35.23h13.78v13.74h-13.78z"/></g></svg>
