<svg width="161" height="47" viewBox="0 0 161 47" fill="none" xmlns="http://www.w3.org/2000/svg">
<path d="M159.042 1.28809C159.368 1.28809 159.695 1.37648 159.996 1.54065C160.297 1.70482 160.561 1.94476 160.724 2.26047C160.9 2.57618 160.988 2.90452 160.988 3.24548C160.988 3.59908 160.9 3.91478 160.724 4.23049C160.561 4.5462 160.31 4.79877 159.996 4.96294C159.682 5.13974 159.368 5.21551 159.03 5.21551C158.691 5.21551 158.364 5.13974 158.038 4.96294C157.724 4.78614 157.498 4.5462 157.323 4.23049C157.159 3.91478 157.059 3.59908 157.059 3.24548C157.059 2.91714 157.147 2.58881 157.323 2.26047C157.498 1.94476 157.737 1.70482 158.051 1.54065C158.402 1.37648 158.716 1.28809 159.042 1.28809ZM159.042 1.61642C158.753 1.61642 158.502 1.69219 158.226 1.84373C157.963 1.98265 157.749 2.1847 157.611 2.43727C157.473 2.68983 157.398 2.98029 157.398 3.25811C157.398 3.54856 157.473 3.82639 157.611 4.07895C157.749 4.34415 157.963 4.5462 158.226 4.68512C158.49 4.82403 158.753 4.8998 159.042 4.8998C159.331 4.8998 159.582 4.82403 159.858 4.68512C160.109 4.53357 160.31 4.34415 160.46 4.07895C160.598 3.82639 160.674 3.53593 160.674 3.25811C160.674 2.99291 160.598 2.70246 160.46 2.43727C160.31 2.1847 160.096 1.98265 159.845 1.84373C159.582 1.67957 159.331 1.61642 159.042 1.61642ZM158.189 4.34415V2.23521H158.904C159.155 2.23521 159.343 2.26047 159.444 2.29835C159.557 2.32361 159.645 2.39938 159.707 2.50041C159.77 2.58881 159.808 2.68983 159.808 2.81612C159.808 2.96766 159.745 3.10657 159.645 3.22023C159.544 3.34651 159.394 3.39702 159.205 3.40965C159.281 3.44754 159.343 3.48542 159.381 3.52331C159.469 3.6117 159.582 3.75062 159.695 3.94004L159.946 4.35678H159.544L159.356 4.02844C159.205 3.76324 159.08 3.59908 159.004 3.53593C158.942 3.48542 158.854 3.46016 158.728 3.46016H158.54V4.35678L158.189 4.34415ZM158.528 3.14446H158.929C159.13 3.14446 159.255 3.1192 159.343 3.05606C159.419 3.00554 159.444 2.91714 159.444 2.81612C159.444 2.75298 159.431 2.70246 159.394 2.66458C159.368 2.61406 159.318 2.56355 159.243 2.55092C159.18 2.52567 159.067 2.50041 158.904 2.50041H158.515V3.14446H158.528Z" fill="black"/>
<path d="M48.8345 22.3271H48.5081C48.5081 22.3271 47.2154 24.2719 44.3162 24.2719C39.798 24.2719 37.2251 20.6981 37.2251 15.8361C37.2251 10.9742 39.8105 7.40039 44.3162 7.40039C47.2154 7.40039 48.5081 9.34516 48.5081 9.34516H48.8345L49.1608 8.04444L49.4871 7.7161H51.7462L52.0725 8.04444V21.9988C52.0725 28.4898 48.5207 30.7629 44.6551 30.7629C40.7895 30.7629 38.5304 28.8181 38.2041 26.2166L38.5304 25.8883H41.1158L41.417 26.2166C42.0571 27.5174 43.0235 27.8331 44.6425 27.8331C47.5417 27.8457 48.8345 25.8883 48.8345 22.3271ZM44.6425 10.3175C42.0571 10.3175 40.4506 12.2623 40.4506 15.8361C40.4506 19.41 42.0571 21.3547 44.6425 21.3547C47.228 21.3547 48.8345 19.7383 48.8345 15.8361C48.8345 11.9466 47.2154 10.3175 44.6425 10.3175Z" fill="black"/>
<path d="M64.0834 10.6458H62.4769C59.8914 10.6458 58.2849 11.6182 58.2849 15.5078V23.6152L57.9586 23.9435H55.3732L55.0469 23.6152V8.0444L55.3732 7.71606H57.6323L57.9586 8.0444L58.2849 9.34512H58.6113C59.5777 8.37274 60.5441 7.72869 62.8032 7.72869H64.0959L64.4222 8.05703V10.3301L64.0834 10.6458Z" fill="black"/>
<path d="M64.8867 15.8361C64.8867 11.2899 67.1458 7.40039 72.3042 7.40039C77.4625 7.40039 79.7216 11.2899 79.7216 15.8361V16.8085L79.3953 17.1369H68.7523L68.426 17.4652C68.426 18.1092 68.7523 21.3547 72.6179 21.3547C73.9107 21.3547 75.2034 21.0264 75.8435 19.41L76.1698 19.0816H78.7552L79.0815 19.41C78.7552 22.0114 76.4961 24.2719 72.6305 24.2719C67.4722 24.2719 64.8867 20.6981 64.8867 15.8361ZM76.1698 14.2071C76.1698 13.2347 75.8435 10.3175 72.3042 10.3175C68.7523 10.3175 68.4386 13.2347 68.4386 14.2071L68.7649 14.5354H75.856L76.1698 14.2071Z" fill="black"/>
<path d="M81.3408 15.8361C81.3408 11.2899 83.5999 7.40039 88.7583 7.40039C93.9166 7.40039 96.1757 11.2899 96.1757 15.8361V16.8085L95.8494 17.1369H85.2064L84.8801 17.4652C84.8801 18.1092 85.2064 21.3547 89.072 21.3547C90.3648 21.3547 91.6575 21.0264 92.2976 19.41L92.6239 19.0816H95.2093L95.5356 19.41C95.2093 22.0114 92.9502 24.2719 89.0846 24.2719C83.9137 24.2719 81.3408 20.6981 81.3408 15.8361ZM92.6239 14.2071C92.6239 13.2347 92.2976 10.3175 88.7583 10.3175C85.219 10.3175 84.8927 13.2347 84.8927 14.2071L85.219 14.5354H92.3101L92.6239 14.2071Z" fill="black"/>
<path d="M112.291 23.9435H109.705L109.379 23.6152V14.2071C109.379 12.5906 109.053 10.3175 106.154 10.3175C103.254 10.3175 101.962 11.934 101.962 15.8361V23.6278L101.635 23.9562H99.0499L98.7236 23.6278V8.04444L99.0499 7.7161H101.309L101.635 8.04444L101.962 9.34516H102.288C102.288 9.34516 103.581 7.40039 106.48 7.40039C110.998 7.40039 112.605 10.3175 112.605 14.2197V23.6278L112.291 23.9435Z" fill="black"/>
<path d="M129.385 23.9435H127.126L126.799 23.6152L126.473 22.3145H126.147C126.147 22.3145 124.854 24.2592 121.955 24.2592C117.437 24.2592 114.864 20.6854 114.864 15.8235C114.864 10.9616 117.449 7.38774 121.955 7.38774C124.854 7.38774 126.147 9.33251 126.147 9.33251H126.473V1.55344L126.799 1.2251H129.385L129.711 1.55344V23.6152L129.385 23.9435ZM122.281 10.3175C119.696 10.3175 118.089 12.2623 118.089 15.8361C118.089 19.4099 119.696 21.3547 122.281 21.3547C124.867 21.3547 126.473 19.7383 126.473 15.8361C126.473 11.9466 124.867 10.3175 122.281 10.3175Z" fill="black"/>
<path d="M140.027 7.40039C144.859 7.40039 147.771 10.6459 147.771 15.8361C147.771 21.0264 144.872 24.2719 140.027 24.2719C135.195 24.2719 132.284 21.0264 132.284 15.8361C132.284 10.6459 135.183 7.40039 140.027 7.40039ZM140.027 21.3547C142.927 21.3547 144.546 19.41 144.546 15.8361C144.546 12.2623 142.939 10.3175 140.027 10.3175C137.128 10.3175 135.509 12.2623 135.509 15.8361C135.509 19.3973 137.116 21.3547 140.027 21.3547Z" fill="black"/>
<path d="M159.042 23.9434H156.456C154.197 23.9434 151.938 22.6427 151.938 19.7256V10.9615L151.612 10.6331H149.353L149.026 10.3048V8.03169L149.353 7.70336H151.612L151.938 7.37502V4.48312L152.264 4.15479H154.85L155.176 4.48312V7.40027L155.503 7.72861H159.054L159.381 8.05695V10.3301L159.054 10.6584H155.503L155.176 10.9867V19.7508C155.176 20.7232 155.816 21.0515 156.469 21.0515H159.054L159.381 21.3799V23.653L159.042 23.9434Z" fill="black"/>
<path d="M121.465 39.8931C121.465 43.9089 119.595 46.864 115.868 46.864C113.471 46.864 112.14 45.7905 111.601 44.7171H111.337L111.074 46.3209L110.81 46.5861H110.007L109.743 46.3209V28.0982L110.007 27.833H111.074L111.337 28.0982V35.0691H111.601C112.128 33.9956 113.471 32.9222 115.868 32.9222C119.595 32.9349 121.465 35.8773 121.465 39.8931ZM111.337 39.8931C111.337 43.6437 112.931 45.5253 115.604 45.5253C118.265 45.5253 119.872 43.6437 119.872 39.8931C119.872 36.1425 118.278 34.2608 115.604 34.2608C112.931 34.2735 111.337 36.1425 111.337 39.8931Z" fill="black"/>
<path d="M133.175 46.5987H132.372L132.108 46.3335L131.845 44.9949H131.581C131.054 45.8031 129.987 46.8765 127.314 46.8765C124.39 46.8765 122.783 45.2727 122.783 42.8607C122.783 39.9183 124.917 38.5671 128.381 38.5671C129.975 38.5671 131.581 38.8323 131.581 38.8323L131.845 38.5671V37.7589C131.845 35.3468 131.042 34.2734 128.381 34.2734C125.72 34.2734 124.917 35.612 124.917 36.9506L124.653 37.2158H123.586L123.323 36.9506C123.323 34.8038 124.917 32.9348 128.381 32.9348C132.372 32.9348 133.439 34.8164 133.439 37.7589V46.3335L133.175 46.5987ZM131.845 40.4361L131.581 40.1709C131.581 40.1709 130.251 39.9057 128.657 39.9057C125.456 39.9057 124.39 40.9791 124.39 42.8481C124.39 44.4519 125.193 45.5253 127.59 45.5253C130.514 45.5253 131.857 43.3785 131.857 41.5095V40.4361H131.845Z" fill="black"/>
<path d="M146.768 46.5989H145.701L145.437 46.3337V38.2894C145.437 35.6122 144.107 34.2736 141.973 34.2736C139.049 34.2736 137.706 36.1552 137.706 39.0976V46.3337L137.443 46.5989H136.376L136.112 46.3337V33.4654L136.376 33.2002H137.179L137.443 33.4654L137.706 35.0692H137.97C138.773 33.7306 140.367 32.9224 142.237 32.9224C145.161 32.9224 147.031 34.804 147.031 38.2768V46.321L146.768 46.5989Z" fill="black"/>
<path d="M159.544 46.5988H159.017L158.49 46.3336L153.695 40.1709H153.432L151.562 42.0525L151.298 42.5829V46.3336L151.034 46.5988H149.968L149.704 46.3336V28.0982L149.968 27.833H151.034L151.298 28.0982V39.8931H151.562L157.95 33.4653L158.477 33.2001H159.004L159.268 33.4653V34.2735L154.737 38.8323V39.0975L159.795 45.5253V46.3336L159.544 46.5988Z" fill="black"/>
<path d="M15.7887 31.773C24.5086 31.773 31.5775 24.6603 31.5775 15.8865C31.5775 7.11262 24.5086 0 15.7887 0C7.06886 0 0 7.11262 0 15.8865C0 24.6603 7.06886 31.773 15.7887 31.773Z" fill="url(#paint0_radial_648_4917)"/>
<defs>
<radialGradient id="paint0_radial_648_4917" cx="0" cy="0" r="1" gradientUnits="userSpaceOnUse" gradientTransform="translate(19.5246 11.2908) scale(20.8071 20.9359)">
<stop stop-color="#8CFF40"/>
<stop offset="0.1742" stop-color="#8CFF40"/>
<stop offset="0.2498" stop-color="#85FB3F"/>
<stop offset="0.3578" stop-color="#72F03A"/>
<stop offset="0.4853" stop-color="#54DE34"/>
<stop offset="0.6264" stop-color="#29C52A"/>
<stop offset="0.744" stop-color="#00AD21"/>
<stop offset="0.8471" stop-color="#02AE20"/>
<stop offset="0.898" stop-color="#0AB31C"/>
<stop offset="0.9375" stop-color="#17BC15"/>
<stop offset="0.9708" stop-color="#2AC80C"/>
<stop offset="1" stop-color="#41D700"/>
</radialGradient>
</defs>
</svg>
