<?xml version="1.0" encoding="utf-8"?>
<!-- Generator: Adobe Illustrator 25.3.1, SVG Export Plug-In . SVG Version: 6.00 Build 0)  -->
<svg version="1.1" id="Layer_1" xmlns="http://www.w3.org/2000/svg" xmlns:xlink="http://www.w3.org/1999/xlink" x="0px" y="0px"
	 viewBox="0 0 101.3 14.8" style="enable-background:new 0 0 101.3 14.8;" xml:space="preserve">
<style type="text/css">
	.st0{fill:#272358;}
</style>
<path class="st0" d="M99.4,12.8l-0.8-2.2h-3.9l-0.8,2.2H92l3.6-10.2h2.1l3.6,10.2H99.4 M96.7,4.8l-1.4,4h2.8L96.7,4.8 M88.6,4.2v8.5
	h-1.8V4.2h-2.8V2.5h7.4v1.7H88.6 M75.2,12.8V2.5h6.1v1.7H77v2.6h4.2v1.7H77V11h4.4v1.7H75.2 M69.5,12.9l0.7,1.5h-1.9l-0.6-1.5h-1.1
	c-0.4,0-0.8-0.1-1.1-0.3c-0.4-0.2-1-0.9-1.2-1.2C64,11,64,10.7,64,10.4V5c0-0.3,0.1-0.7,0.3-1c0.2-0.3,0.9-1,1.2-1.2
	c0.3-0.2,0.7-0.3,1.1-0.3h2.6c0.4,0,0.8,0.1,1.1,0.3c0.4,0.2,1,0.9,1.2,1.2c0.2,0.3,0.3,0.6,0.3,1v5.3c0,0.3-0.1,0.7-0.3,1
	c-0.2,0.3-0.9,1-1.2,1.2C69.9,12.7,69.8,12.8,69.5,12.9L69.5,12.9 M65.8,10.3L65.8,10.3c0.2,0.4,0.6,0.8,0.8,0.9l0.1,0H67l-0.3-0.6
	l1.6-0.5l0.5,1.1h0.2l0.1,0c0.2-0.1,0.5-0.5,0.7-0.8l0-0.1V5l0-0.1c-0.2-0.3-0.5-0.6-0.7-0.7l-0.1,0h-2.5l-0.1,0
	C66.3,4.3,66,4.7,65.8,5l0,0.1V10.3 M59,12.8l-2.3-4.1h-1.6v4.1h-1.8V2.5h4.7c0.4,0,0.9,0.1,1.2,0.4c0.2,0.2,0.7,0.7,0.9,0.9
	c0.2,0.3,0.3,0.7,0.3,1v1.5c0,0.4-0.1,0.7-0.3,1c-0.2,0.2-0.7,0.7-0.9,0.9c-0.1,0.1-0.4,0.2-0.6,0.3l2.4,4.2H59 M58.7,4.9l0-0.1
	c-0.1-0.2-0.4-0.5-0.5-0.5h-0.1h-3V7h3c0.2,0,0.5-0.3,0.6-0.6l0-0.1V4.9 M49.1,12.8l-0.8-2.2h-3.9l-0.8,2.2h-1.9l3.6-10.2h2.1
	l3.6,10.2H49.1 M46.4,4.8l-1.4,4h2.8L46.4,4.8 M37.1,12.8v-7l-2,4.5h-1.2l-2-4.5v7h-1.8V2.5h2l2.4,5l2.3-5h2v10.2H37.1 M0,0h8.5
	l5.1,7.4L9.8,13h2.8l3.8-5.6L11.4,0h8.5L25,7.4l-5.1,7.4h-2.8l5.1-7.4l-3.8-5.6h-2.8l3.8,5.6l-5.1,7.4H5.7l5.1-7.4L7,1.9H4.1
	l3.8,5.6l-5.1,7.4H0l5.1-7.4L0,0"/>
</svg>
