<?xml version="1.0" encoding="UTF-8"?> <svg xmlns="http://www.w3.org/2000/svg" id="Layer_1" data-name="Layer 1" viewBox="0 0 1200 249.36"><defs><style>.cls-1{fill:#0a0e33;}</style></defs><path class="cls-1" d="M420.84,83.36c69.3,0,120.69,51.06,120.69,120.35s-50.73,121-120.69,121c-69.62,0-120.34-51.72-120.34-121S352.21,83.36,420.84,83.36Zm0,202.91c46.42,0,78.91-34.82,78.91-82.56s-32.16-82.55-78.91-82.55c-46.08,0-78.9,34.81-78.9,82.55S374.76,286.27,420.84,286.27ZM934,83.36c69.29,0,120.68,51.06,120.68,120.35s-50.72,121-120.68,121c-69.63,0-120.35-51.72-120.35-121S865.41,83.36,934,83.36Zm0,202.91c46.41,0,78.9-34.82,78.9-82.56s-32.16-82.55-78.9-82.55c-46.09,0-78.91,34.81-78.91,82.55S888,286.27,934,286.27ZM747,87.67h47.81l-119.71,245-119.36-245h47.46l71.9,163.12Zm397,63.69c0-17.75,14.73-31.81,50.89-31.81,20.4,0,43.48,6,64.55,18.38V96.7c-18.82-8.6-41.9-13.31-64.22-13.31-64.28,0-94.41,32.14-94.41,70,0,87,139.28,53.9,139.28,104.46,0,17.41-15.4,30.47-51.9,30.47-28.8,0-58.59-10.72-77.34-25.78l0,.08v43.85c20.37,11,48.86,18,77.38,18,64.28,0,94.75-32.14,94.75-69.64C1283,168.76,1144.06,201.24,1144.06,151.36ZM126.21,151.3c0-17.75,14.73-31.81,50.9-31.81,20.31,0,43.27,6,64.26,18.21V96.49C222.61,88,199.64,83.32,177.44,83.32c-64.3,0-94.44,32.15-94.44,70,0,87.08,139.32,53.92,139.32,104.49,0,17.41-15.4,30.48-51.91,30.48-28.8,0-58.61-10.72-77.36-25.79l0,.1v43.85c20.38,11,48.88,18,77.41,18,64.3,0,94.78-32.16,94.78-69.66C265.19,168.72,126.21,201.2,126.21,151.3Z" transform="translate(-83 -83.32)"></path></svg> 