<svg width="400" height="400" viewBox="0 0 400 400" fill="none" xmlns="http://www.w3.org/2000/svg">
<path d="M42.0773 22.2222C31.1209 22.2222 22.2222 31.1378 22.2222 42.1151C22.2222 53.0923 31.1209 62.0079 42.0773 62.0079C53.0337 62.0079 61.9325 53.0923 61.9325 42.1151C61.9325 31.1378 53.0337 22.2222 42.0773 22.2222Z" fill="#3E4FE0"/>
<path d="M107.333 22.2235C96.377 22.2235 87.4783 31.1392 87.4783 42.1164C87.4783 53.0936 96.377 62.0093 107.333 62.0093C118.29 62.0093 127.189 53.0936 127.189 42.1164C127.189 31.1392 118.29 22.2235 107.333 22.2235Z" fill="#3E4FE0"/>
<path d="M172.59 49.7459C176.796 49.7459 180.206 46.3296 180.206 42.1154C180.206 37.9012 176.796 34.4849 172.59 34.4849C168.384 34.4849 164.974 37.9012 164.974 42.1154C164.974 46.3296 168.384 49.7459 172.59 49.7459Z" fill="#3E4FE0"/>
<path d="M42.0793 119.868C48.8093 119.868 54.265 114.402 54.265 107.659C54.265 100.916 48.8093 95.4501 42.0793 95.4501C35.3494 95.4501 29.8937 100.916 29.8937 107.659C29.8937 114.402 35.3494 119.868 42.0793 119.868Z" fill="#3E4FE0"/>
<path d="M107.333 87.7665C96.377 87.7665 87.4783 96.6821 87.4783 107.659C87.4783 118.637 96.377 127.552 107.333 127.552C118.29 127.552 127.189 118.637 127.189 107.659C127.189 96.6821 118.29 87.7665 107.333 87.7665Z" fill="#3E4FE0"/>
<path d="M172.591 119.868C179.326 119.868 184.777 114.406 184.777 107.659C184.777 100.912 179.326 95.4501 172.591 95.4501C165.857 95.4501 160.406 100.912 160.406 107.659C160.406 114.406 165.857 119.868 172.591 119.868Z" fill="#3E4FE0"/>
<path d="M42.0778 165.383C37.8823 165.383 34.4618 168.81 34.4618 173.013C34.4618 177.217 37.8823 180.644 42.0778 180.644C46.2733 180.644 49.6939 177.217 49.6939 173.013C49.6939 168.81 46.2733 165.383 42.0778 165.383Z" fill="#3E4FE0"/>
<path d="M107.333 153.122C96.377 153.122 87.4783 162.037 87.4783 173.015C87.4783 183.992 96.377 192.907 107.333 192.907C118.29 192.907 127.189 183.992 127.189 173.015C127.189 162.037 118.29 153.122 107.333 153.122Z" fill="#3E4FE0"/>
<path d="M172.589 153.122C161.633 153.122 152.734 162.037 152.734 173.015C152.734 183.992 161.633 192.907 172.589 192.907C183.546 192.907 192.445 183.992 192.445 173.015C192.445 162.037 183.546 153.122 172.589 153.122Z" fill="#3E4FE0"/>
<path d="M237.955 49.7459C242.15 49.7459 245.571 46.3189 245.571 42.1154C245.571 37.9119 242.15 34.4849 237.955 34.4849C233.759 34.4849 230.339 37.9119 230.339 42.1154C230.339 46.3189 233.759 49.7459 237.955 49.7459Z" fill="#3E4FE0"/>
<path d="M303.216 62.0093C314.181 62.0093 323.071 53.1029 323.071 42.1164C323.071 31.1298 314.181 22.2235 303.216 22.2235C292.25 22.2235 283.36 31.1298 283.36 42.1164C283.36 53.1029 292.25 62.0093 303.216 62.0093Z" fill="#3E4FE0"/>
<path d="M368.472 22.2235C357.515 22.2235 348.617 31.1392 348.617 42.1164C348.617 53.0936 357.515 62.0093 368.472 62.0093C379.428 62.0093 388.327 53.0936 388.327 42.1164C388.327 31.1392 379.428 22.2235 368.472 22.2235Z" fill="#3E4FE0"/>
<path d="M237.956 119.868C244.69 119.868 250.142 114.406 250.142 107.659C250.142 100.912 244.69 95.4501 237.956 95.4501C231.222 95.4501 225.77 100.912 225.77 107.659C225.77 114.406 231.222 119.868 237.956 119.868Z" fill="#3E4FE0"/>
<path d="M303.216 87.7665C292.259 87.7665 283.36 96.6821 283.36 107.659C283.36 118.637 292.259 127.552 303.216 127.552C314.172 127.552 323.071 118.637 323.071 107.659C323.071 96.6821 314.172 87.7665 303.216 87.7665Z" fill="#3E4FE0"/>
<path d="M368.474 95.4501C361.739 95.4501 356.288 100.912 356.288 107.659C356.288 114.406 361.739 119.868 368.474 119.868C375.208 119.868 380.659 114.406 380.659 107.659C380.659 100.912 375.208 95.4501 368.474 95.4501Z" fill="#3E4FE0"/>
<path d="M303.216 153.122C292.259 153.122 283.36 162.037 283.36 173.015C283.36 183.992 292.259 192.907 303.216 192.907C314.172 192.907 323.071 183.992 323.071 173.015C323.071 162.037 314.172 153.122 303.216 153.122Z" fill="#3E4FE0"/>
<path d="M368.472 180.644C372.678 180.644 376.088 177.228 376.088 173.013C376.088 168.799 372.678 165.383 368.472 165.383C364.266 165.383 360.856 168.799 360.856 173.013C360.856 177.228 364.266 180.644 368.472 180.644Z" fill="#3E4FE0"/>
<path d="M237.954 153.122C226.998 153.122 218.099 162.037 218.099 173.015C218.099 183.992 226.998 192.907 237.954 192.907C248.911 192.907 257.809 183.992 257.809 173.015C257.809 162.037 248.911 153.122 237.954 153.122Z" fill="#3E4FE0"/>
<path d="M42.0778 230.765C37.8823 230.765 34.4618 234.192 34.4618 238.395C34.4618 242.599 37.8823 246.026 42.0778 246.026C46.2733 246.026 49.6939 242.599 49.6939 238.395C49.6939 234.192 46.2733 230.765 42.0778 230.765Z" fill="#3E4FE0"/>
<path d="M107.335 226.185C100.601 226.185 95.1497 231.647 95.1497 238.394C95.1497 245.141 100.601 250.602 107.335 250.602C114.07 250.602 119.521 245.141 119.521 238.394C119.521 231.647 114.07 226.185 107.335 226.185Z" fill="#3E4FE0"/>
<path d="M172.589 218.501C161.633 218.501 152.734 227.417 152.734 238.394C152.734 249.371 161.633 258.287 172.589 258.287C183.546 258.287 192.445 249.371 192.445 238.394C192.445 227.417 183.546 218.501 172.589 218.501Z" fill="#3E4FE0"/>
<path d="M42.0778 296.145C37.8823 296.145 34.4618 299.572 34.4618 303.775C34.4618 307.978 37.8823 311.406 42.0778 311.406C46.2733 311.406 49.6939 307.978 49.6939 303.775C49.6939 299.572 46.2733 296.145 42.0778 296.145Z" fill="#3E4FE0"/>
<path d="M107.334 296.145C103.138 296.145 99.7179 299.572 99.7179 303.775C99.7179 307.978 103.138 311.406 107.334 311.406C111.529 311.406 114.95 307.978 114.95 303.775C114.95 299.572 111.529 296.145 107.334 296.145Z" fill="#3E4FE0"/>
<path d="M172.589 283.883C161.633 283.883 152.734 292.799 152.734 303.776C152.734 314.753 161.633 323.669 172.589 323.669C183.546 323.669 192.445 314.753 192.445 303.776C192.445 292.799 183.546 283.883 172.589 283.883Z" fill="#3E4FE0"/>
<path d="M42.0778 361.688C37.8823 361.688 34.4618 365.115 34.4618 369.318C34.4618 373.522 37.8823 376.949 42.0778 376.949C46.2733 376.949 49.6939 373.522 49.6939 369.318C49.6939 365.115 46.2733 361.688 42.0778 361.688Z" fill="#3E4FE0"/>
<path d="M107.334 376.949C111.54 376.949 114.95 373.532 114.95 369.318C114.95 365.104 111.54 361.688 107.334 361.688C103.128 361.688 99.7179 365.104 99.7179 369.318C99.7179 373.532 103.128 376.949 107.334 376.949Z" fill="#3E4FE0"/>
<path d="M172.589 349.426C161.633 349.426 152.734 358.342 152.734 369.319C152.734 380.297 161.633 389.212 172.589 389.212C183.546 389.212 192.445 380.297 192.445 369.319C192.445 358.342 183.546 349.426 172.589 349.426Z" fill="#3E4FE0"/>
<path d="M237.954 258.287C248.92 258.287 257.809 249.381 257.809 238.394C257.809 227.407 248.92 218.501 237.954 218.501C226.988 218.501 218.099 227.407 218.099 238.394C218.099 249.381 226.988 258.287 237.954 258.287Z" fill="#3E4FE0"/>
<path d="M303.212 226.185C296.478 226.185 291.026 231.647 291.026 238.394C291.026 245.141 296.478 250.602 303.212 250.602C309.946 250.602 315.398 245.141 315.398 238.394C315.398 231.647 309.946 226.185 303.212 226.185Z" fill="#3E4FE0"/>
<path d="M368.472 246.026C372.678 246.026 376.088 242.61 376.088 238.395C376.088 234.181 372.678 230.765 368.472 230.765C364.266 230.765 360.856 234.181 360.856 238.395C360.856 242.61 364.266 246.026 368.472 246.026Z" fill="#3E4FE0"/>
<path d="M237.954 323.669C248.92 323.669 257.809 314.763 257.809 303.776C257.809 292.79 248.92 283.883 237.954 283.883C226.988 283.883 218.099 292.79 218.099 303.776C218.099 314.763 226.988 323.669 237.954 323.669Z" fill="#3E4FE0"/>
<path d="M303.216 311.406C307.422 311.406 310.832 307.989 310.832 303.775C310.832 299.561 307.422 296.145 303.216 296.145C299.01 296.145 295.6 299.561 295.6 303.775C295.6 307.989 299.01 311.406 303.216 311.406Z" fill="#3E4FE0"/>
<path d="M368.472 311.406C372.678 311.406 376.088 307.989 376.088 303.775C376.088 299.561 372.678 296.145 368.472 296.145C364.266 296.145 360.856 299.561 360.856 303.775C360.856 307.989 364.266 311.406 368.472 311.406Z" fill="#3E4FE0"/>
<path d="M237.954 349.426C226.998 349.426 218.099 358.342 218.099 369.319C218.099 380.297 226.998 389.212 237.954 389.212C248.911 389.212 257.809 380.297 257.809 369.319C257.809 358.342 248.911 349.426 237.954 349.426Z" fill="#3E4FE0"/>
<path d="M303.216 376.949C307.422 376.949 310.832 373.532 310.832 369.318C310.832 365.104 307.422 361.688 303.216 361.688C299.01 361.688 295.6 365.104 295.6 369.318C295.6 373.532 299.01 376.949 303.216 376.949Z" fill="#3E4FE0"/>
<path d="M368.472 376.949C372.678 376.949 376.088 373.532 376.088 369.318C376.088 365.104 372.678 361.688 368.472 361.688C364.266 361.688 360.856 365.104 360.856 369.318C360.856 373.532 364.266 376.949 368.472 376.949Z" fill="#3E4FE0"/>
</svg>
