<?xml version="1.0" encoding="UTF-8"?>
<svg xmlns="http://www.w3.org/2000/svg" viewBox="0 0 2000 1000" preserveAspectRatio="xMidYMid meet">
  <path d="M791.936,982.863L791.695,983.927L791.353,984.824L783.877,984.555L776.21,984.672L771.317,984.006L771.252,983.927L768.847,983.318L776.758,983.4L784.432,983.604L786.37,982.736L787.644,981.967ZM441.594,981.672L435.47,981.978L429.296,981.186L425.596,980.365L425.178,980.225L421.586,979.57L421.927,978.657L429.284,979.046L434.296,979.806L438.619,980.643ZM839.727,978.216L844.667,979.286L846.963,980.733L847.903,981.714L848.639,982.831L843.601,983.495L838.232,984.016L831.98,984.488L824.947,984.873L816.656,984.758L811.65,984.095L811.695,983.247L818.766,982.663L821.314,981.933L822.907,980.96L823.97,980.089L825.591,979.237L827.281,978.216L829.083,978.216L834.066,977.67ZM550.925,964.922L556.418,965.441L560.059,964.86L559.513,966.017L557.175,966.843L551.702,966.587L546.417,965.441L545.69,964.337ZM534.726,964.86L542.198,966.143L539.84,966.017L534.61,965.696L528.239,964.793L529.913,964.076ZM627.352,959.538L632.009,960.025L635.683,959.611L640.006,961.601L636.792,961.331L632.396,961.466L627.624,961.331L622.785,961.536L618.2,960.852L614.592,959.4L616.25,958.77L621.585,959.261ZM739.645,955.992L741.32,957.645L741.707,959.055L741.674,960.377L737.638,960.858L733.978,961.542L729.021,961.478L729.761,960.102L725.726,960.585L721.931,961.065L718.214,960.031L716.791,958.563L719.795,957.145L722.043,956.71L726.541,956.853L726.201,954.965L725.349,953.566L722.917,950.465L723.737,948.608L726.857,947.979L729.986,949.46L731.954,950.921L734.892,952.668L737.359,954.303ZM388.963,990.634L388.964,990.634L388.963,990.634L389.182,990.644L390.526,989.926L397.563,990.321L397.855,990.277L398.576,990.174L399.431,990.043L400.167,989.93L400.541,989.873L401.048,989.875L401.453,989.897L407.549,990.42L410.694,989.897L411.299,989.822L420.792,989.588L424.713,989.897L426.64,990.052L432.653,990.463L442.935,990.763L451.297,991.112L464.88,991.36L474.048,991.07L488.865,991.279L497.628,991.596L506.006,991.299L514.886,991.005L514.622,990.463L501.155,990.416L489.612,990.125L485.761,989.615L476.039,989.319L475.373,988.671L475.417,988.041L475.539,987.441L473.513,986.745L466.843,986.261L462.948,985.614L456.429,985.021L465.071,985.135L472.499,984.831L478.722,985.469L483.846,984.91L488.198,984.174L489.747,983.491L486.932,982.619L481.319,982.02L474.958,981.359L467.49,981.224L460.574,980.91L453.317,980.682L449.361,979.802L443.344,979.042L438.9,978.165L432.11,975.176L434.369,975.443L439.17,976.284L444.562,976.022L449.562,975.654L454.602,976.802L459.796,976.544L463.525,975.972L466.69,975.231L469.143,974.312L474.093,974.037L472.128,972.98L469.007,971.899L468.282,970.855L472.089,970.325L475.898,971.319L480.486,970.738L483.419,969.965L488.531,969.903L492.981,969.608L496.771,968.881L499.647,968.204L503.043,967.525L506.217,967.713L509.107,967.959L513.919,967.525L519.651,968.082L524.596,968.023L528.767,967.59L534.172,967.895L540.089,968.204L545.011,968.082L550.423,968.146L555.959,968.204L560.821,968.082L563.288,967.147L567.082,966.647L572.627,967.336L576.268,966.773L578.767,965.63L582.459,966.647L585.211,967.772L588.941,968.818L591.555,967.895L597.418,969.06L602.815,969.426L608.08,970.263L613.001,970.083L616.994,969.545L622.632,969.665L628.068,970.083L633.691,970.616L634.097,969.306L630.525,968.268L627.429,967.147L622.381,966.898L618.871,965.691L616.637,964.461L612.397,961.935L615.803,962.406L620.925,962.609L625.52,962.406L630.51,962.944L635.402,963.94L638.284,965.112L643.509,965.307L647.805,964.855L652.198,964.201L656.357,963.803L660.953,964.59L665.63,964.331L666.234,961.736L670.771,963.278L675.655,963.872L679.992,963.541L684.305,964.855L689.296,964.983L694.15,965.369L699.227,966.077L701.007,964.855L701.379,963.672L706.272,964.983L711.066,964.658L715.461,965.369L718.933,966.456L723.573,966.138L726.812,965.435L729.886,964.59L734.016,964.133L738.948,963.741L743.328,963.278L746.418,962.545L747.795,961.46L747.553,959.953L746.032,958.478L743.806,957.058L741.405,955.609L739.141,954.143L737.184,952.798L735.871,951.29L735.145,949.754L735.912,948.277L736.285,946.624L735.805,945.03L733.808,943.247L732.237,941.604L732.895,939.695L734.242,938.439L735.781,936.826L737.642,935.449L740.059,934.157L740.458,932.233L741.926,930.999L743.778,929.841L747.535,929.579L749.257,928.14L751.632,927.244L754.686,926.696L757.022,925.517L758.553,924.045L761.498,923.496L764.545,924.695L763.838,926.241L760.399,927.602L759.176,928.59L755.753,927.875L752.64,928.326L750.465,929.402L748.178,930.555L746.976,931.884L747.468,933.631L748.707,935.278L751.466,936.738L749.357,937.759L745.817,938.096L744.528,939.528L743.054,940.861L741.763,942.676L742.164,944.222L744.67,945.909L747.582,947.177L751.417,948.122L755.2,949.366L757.802,950.908L759.585,952.35L761.711,953.849L764.327,955.098L766.368,956.48L769.115,959.809L771.094,961.118L772.311,962.476L774.382,963.803L775.08,965.563L773.988,966.898L772.58,967.959L768.004,968.39L767.158,969.483L765.693,970.498L761.054,971.61L756.585,972.073L752.549,972.698L748.166,973.319L746.235,974.476L740.557,974.584L734.137,974.476L728.624,974.692L722.573,974.692L724.679,975.763L730.566,976.234L735.211,976.957L738.248,977.865L734.995,978.653L728.656,978.407L724.185,979.042L724.913,980.037L725.651,980.956L730.502,981.71L732.035,982.531L737.219,983.325L744.898,983.653L751.664,984.211L757.185,984.831L764.017,985.434L772.853,985.724L781.726,986.225L788.005,986.745L794.844,987.312L798.776,988.073L800.875,988.643L804.633,988.102L809.943,987.635L815.57,987.113L822.431,986.677L828.266,986.191L836.829,986.155L845.417,986.4L852.592,986.812L854.417,986.047L858.939,985.507L867.664,985.469L874.33,985.06L880.661,984.639L887.76,984.367L895.307,984.013L900.506,983.491L897.776,982.743L895.998,981.975L895.691,981.135L888.907,981.224L881.834,981.581L874.963,981.581L873.615,980.729L873.331,978.946L874.694,978.407L879.522,977.817L885.276,977.212L889.31,976.441L893.362,975.654L896.229,974.584L900.985,974.094L905.737,973.708L908.134,973.483L913.685,973.372L918.879,972.98L923.198,972.413L927.427,971.725L931.255,971.027L936.114,970.083L939.132,969.06L942.404,968.146L943.267,966.898L939.227,966.138L940.283,964.787L942.569,963.741L946.317,963.077L950.288,962.273L953.945,961.189L956.697,959.809L958.336,958.13L960.973,957.126L965.512,957.343L967.48,958.551L972.004,958.691L972.045,957.343L973.875,955.904L977.993,956.268L979.046,957.633L983.567,957.842L988.449,957.201L993.189,956.773L997.495,956.984L999.137,958.478L1003.295,957.275L1007.169,956.623L1011.491,956.118L1015.757,955.609L1019.684,954.73L1023.983,954.143L1027.349,953.322L1029.778,951.972L1032.556,952.953L1036.586,952.428L1039.185,954.214L1041.192,955.54L1045.618,954.806L1047.532,953.322L1051.585,952.272L1056.6,952.5L1057.865,953.919L1061.259,952.5L1065.474,952.05L1070.016,951.9L1074.074,951.972L1078.268,952.428L1082.366,952.649L1083.867,953.919L1086.079,955.028L1090.42,954.367L1094.959,954.214L1099.293,954.214L1103.58,954.143L1107.562,953.624L1111.754,953.173L1115.469,952.122L1119.304,951.441L1123.357,951.06L1126.668,949.987L1129.537,947.81L1132.218,946.466L1136.037,947.102L1137.052,948.513L1140.042,949.447L1144.19,949.139L1146.377,950.525L1148.836,951.52L1153.142,950.604L1155.214,948.904L1159.002,948.203L1163.624,946.863L1167.687,946.308L1172.631,945.508L1176.105,944.627L1179.775,943.655L1183.28,942.761L1186.751,943.247L1191.008,941.775L1194.135,940.617L1197.819,940.696L1201.589,939.695L1203.12,938.184L1207.081,936.996L1210.801,936.139L1215.17,935.449L1219.05,935.107L1222.438,935.367L1225.989,935.798L1228.542,936.996L1227.888,938.854L1230.579,940.279L1232.298,941.44L1236.726,941.939L1238.658,943.085L1241.199,944.222L1244.804,944.467L1248.474,943.655L1252.977,941.939L1256.101,942.838L1259.632,943.332L1263.002,943.816L1266.63,944.138L1270.546,944.138L1270.77,948.358L1269.887,949.366L1268.137,951.139L1263.735,952.122L1259.693,953.547L1259.142,955.028L1263.455,954.952L1261.85,956.411L1258.911,957.774L1256.028,959.255L1258.065,960.365L1262.139,960.71L1266.96,960.09L1270.129,958.691L1272.435,957.343L1275.424,956.193L1278.666,955.098L1280.667,953.772L1284.158,951.9L1286.866,951.52L1291.372,951.362L1295.58,950.908L1300.011,950.293L1303.16,948.749L1305.513,947.259L1309.402,945.75L1314.086,944.704L1318.048,943.901L1321.352,942.513L1324.188,941.775L1327.61,941.111L1331.211,941.526L1335.119,941.111L1339.416,940.617L1343.557,940.861L1347.435,939.695L1351.945,936.826L1352.4,938.016L1352.513,940.034L1355.119,940.861L1358.608,941.197L1362.869,940.696L1366.601,941.025L1370.24,941.111L1373.109,940.696L1376.209,940.947L1378.364,941.853L1382.477,941.276L1386.75,941.276L1390.952,940.696L1394.498,941.276L1398.545,939.861L1401.976,938.439L1405.903,937.246L1414.159,933.985L1416.15,934.591L1418.003,935.798L1419.105,937.334L1421.465,939.947L1425.26,940.034L1428.917,940.034L1433.735,939.528L1438.651,938.941L1443.222,937.759L1447.348,936.479L1452.003,936.309L1456.025,935.367L1458.221,936.228L1458.727,937.591L1460.011,938.941L1464.572,938.774L1466.035,939.861L1469.501,940.947L1473.966,941.361L1478.472,941.025L1483.186,939.695L1487.452,938.351L1491.445,938.016L1494.328,938.607L1497.937,939.028L1502.515,938.351L1506.102,938.351L1509.085,938.774L1512.219,939.195L1516.764,938.439L1521.925,937.759L1526.209,937.591L1530.751,937.591L1534.973,937.165L1539.03,936.826L1542.943,934.674L1545.469,932.847L1546.413,934.067L1544.52,936.05L1543.46,937.847L1543.192,939.275L1545.509,940.034L1550.356,939.781L1555.694,939.695L1559.622,939.442L1564.829,939.442L1568.691,939.362L1573.662,939.528L1577.618,939.861L1578.477,941.197L1575.421,942.761L1576.161,943.978L1578.937,944.947L1581.725,945.991L1585.691,946.706L1589.979,947.334L1592.952,947.966L1597.233,948.047L1601.884,946.706L1603.561,947.81L1604.513,949.058L1606.414,949.987L1610.469,950.372L1614.172,950.829L1613.503,952.35L1616.338,953.251L1616.967,954.583L1620.2,955.173L1624.739,955.098L1628.452,955.319L1633.142,955.243L1637.164,955.54L1640.491,956.049L1642.846,956.915L1645.466,957.633L1646.148,958.691L1643.086,960.09L1638.772,961.325L1634.152,962.875L1630.562,964.07L1626.204,965.435L1620.375,965.95L1616.041,967.088L1609.971,967.772L1605.975,969.002L1601.293,970.145L1596.855,971.088L1593.028,972.3L1590.053,973.372L1587.245,974.636L1585.342,975.654L1585.325,976.7L1584.187,977.666L1584.08,978.556L1589.992,978.896L1589.253,979.944L1582.136,980.317L1575.752,980.82L1568.886,980.91L1563.388,982.191L1560.757,983.204L1557.728,983.975L1554.407,984.718L1557.741,985.357L1557.948,986.121L1559.576,986.777L1562.596,987.343L1566.298,987.856L1570.435,988.346L1577.266,988.816L1577.517,989.507L1586.695,989.798L1587.125,989.897L1588.84,990.273L1598.955,989.95L1605.842,990.346L1611.037,990.634L1603.765,993.752L1000,993.752L396.235,993.752ZM693.789,874.553L701.269,877.925L708.219,879.311L707.533,882.088L703.422,882.358L700.198,880.411L699.822,882.648L696.862,884.35L691.721,883.728L687.628,882.078L682.53,881.274L675.26,878.17L669.099,875.163L659.539,868.806L663.912,870.005L672.232,873.799L679.267,875.82L680.291,873.235L679.842,869.338L682.91,866.972L686.49,867.652L689.486,870.304ZM729.039,858.74L733.745,861.371L733.159,863.406L727.65,865.139L724.766,863.112L721.929,865.715L718.558,863.112L722.674,859.622L727.175,861.085ZM1328.99,850.524L1321.627,850.908L1322.885,847.729L1324.643,845.245L1325.49,844.009L1327.717,845.908L1331.846,846.662L1331.498,847.8ZM1725.927,794.607L1729.141,796.865L1732.497,795.969L1737.297,794.718L1739.967,795.15L1734.61,802.884L1731.24,805.105L1726.75,810.286L1726.391,808.527L1719.522,812.99L1718.786,812.645L1715.928,812.44L1717.083,806.96L1719.578,802.698L1720.827,797.031L1723.081,794.031ZM1863.139,795.438L1861.968,798.134L1867.779,795.493L1866.852,798.245L1864.466,800.986L1859.981,803.99L1852.505,808.733L1847.652,811.315L1846.652,814.382L1842.814,814.457L1836.41,816.855L1831.22,820.995L1822.426,827.327L1815.926,830.106L1811.805,831.878L1807.52,831.742L1806.384,829.707L1801.58,829.265L1802.955,826.979L1809.894,822.337L1821.727,816.103L1825.958,814.91L1831.674,812.483L1838.887,809.125L1844.798,805.793L1851.197,800.964L1854.501,799.325L1858.336,795.682L1864.385,792.654ZM1896.324,763.671L1894.698,770.794L1898.278,766.185L1899.212,768.029L1896.055,773.13L1898.451,775.312L1901.46,775.856L1906.38,773.289L1908.345,774.074L1902.362,780.009L1897.632,783.894L1893.894,783.759L1890.893,785.768L1888.993,788.61L1887.218,789.838L1882.307,793.387L1875.964,797.859L1869.859,800.458L1870.494,798.752L1869.23,797.815L1876.711,792.432L1878.115,788.8L1874.876,786.16L1876.969,783.759L1882.486,781.441L1887.415,776.298L1890.54,771.957L1891.888,767.434L1892.924,766.243L1892.537,763.441L1892.843,757.408L1894.054,752.56L1896.363,752.025L1896.52,755.833L1899.277,757.605ZM1912.577,664.55L1909.788,666.31L1907.597,664.327L1905.01,661.027L1903.006,657.136L1901.333,651.954L1901.503,649.445L1903.816,649.557L1905.975,652.066L1907.446,654.559L1908.41,656.626L1911.113,661.176ZM1987.861,628.948L1989.036,631.101L1986.761,634.975L1982.976,635.992L1980.259,635.075L1980.865,631.806L1983.871,629.25L1986.065,630.182ZM1998.826,623.109L1994.69,624.938L1990.638,626.502L1990.834,623.727L1994.106,622.199L1995.999,621.782L2000,619.458L1998.826,623.109ZM0,619.458L0.001,619.457L1.032,619.116L1.502,622.704L1.174,623.108L1.174,623.108L1.174,623.109L0,619.458ZM1931.588,622.439L1929.451,623.424L1928.574,620.153L1929.36,618.155ZM1930.779,610.987L1929.99,617.016L1928.757,616.08L1927.481,616.485L1927.284,614.421L1928.734,608.679ZM1279.617,600.637L1279.821,609.668L1280.976,613.167L1280.109,616.763L1278.936,618.964L1277.432,614.573L1276.183,616.789L1276.758,622.326L1275.992,625.481L1274.295,627.209L1273.337,633.504L1270.303,642.152L1266.505,652.328L1261.523,666.248L1258.203,676.388L1254.682,684.804L1250.06,686.519L1244.94,689.577L1242.068,687.731L1238.112,685.147L1237.076,681.32L1237.479,674.873L1236.211,669.057L1236.267,663.794L1237.803,658.504L1240.457,657.236L1240.726,654.783L1243.911,649.208L1244.862,644.494L1243.902,640.987L1243.291,636.319L1243.424,629.477L1245.705,625.304L1246.845,620.57L1249.626,620.292L1252.848,618.762L1255.016,617.409L1257.465,617.32L1260.966,613.053L1265.914,608.438L1267.863,604.667L1267.333,601.451L1269.64,602.354L1273.089,597.137L1273.518,592.602L1275.593,589.235L1277.315,592.474L1278.586,595.673ZM1801.596,602.201L1802.295,608.095L1806.529,605.264L1807.655,608.438L1809.636,611.368L1808.252,614.687L1807.838,621.088L1807.695,624.812L1808.848,625.721L1808.576,632.082L1806.922,635.942L1807.207,640.962L1811.974,644.832L1814.747,648.346L1817.365,651.554L1816.032,653.338L1817.576,657.957L1816.838,665.889L1819.615,664.278L1820.654,667.449L1822.412,666.322L1820.38,674.059L1822.442,678.53L1823.818,681.308L1825.562,687.168L1824.525,692.97L1822.802,697.074L1820.379,701.506L1820.016,707.58L1816.588,713.879L1813.999,717.168L1809.29,723.471L1807.248,727.508L1803.463,732.527L1797.576,738.88L1791.767,742.29L1786.725,747.653L1782.961,751.059L1777.839,756.98L1773.748,760.377L1769.244,765.463L1765.575,770.121L1764.434,772.253L1759.978,774.585L1754.119,774.835L1747.604,777.579L1743.56,780.167L1738.577,783.029L1736.369,780.077L1734.045,778.902L1737.105,775.414L1733.503,776.684L1725.909,781.52L1722.72,779.715L1720.525,778.653L1717.929,778.178L1714.244,776.242L1713.539,772.105L1715.695,766.976L1716.544,763.556L1715.622,760.793L1711.146,759.974L1714.72,756.656L1716.305,751.571L1711.142,756.308L1705.846,757.57L1710.67,753.78L1713.624,749.812L1717.443,746.438L1719.74,741.303L1712.387,747.209L1707.871,749.567L1702.923,755.033L1700.418,752.211L1702.536,748.564L1701.897,743.545L1700.459,740.951L1702.25,739.339L1697.627,735.118L1694.042,734.917L1690.618,731.52L1680.88,732.184L1672.924,734.68L1665.848,737.006L1661.065,736.546L1653.855,740.116L1648.565,741.726L1645.851,745.35L1642.572,748.156L1638.073,748.331L1634.528,748.938L1630.522,747.689L1626.446,748.436L1622.725,748.751L1617.907,752.42L1616.54,752.118L1613.008,754.059L1609.495,756.227L1605.848,755.961L1602.39,755.961L1598.938,751.583L1596.758,750.267L1598.647,746.321L1601.656,745.373L1603.235,743.803L1604.142,741.315L1606.875,736.475L1608.038,732.338L1608.159,725.235L1608.898,721.214L1610.688,717.192L1610.316,712.569L1610.96,710.474L1609.634,707.64L1610.957,702.039L1609.858,696.368L1610.131,693.299L1611.452,696.405L1611.869,689.723L1613.843,691.811L1614.519,694.603L1615.654,690.908L1614.814,685.221L1615.027,682.94L1614.435,680.767L1616.318,676.573L1617.952,674.774L1619.77,671.134L1620.432,666.855L1624.146,661.586L1622.995,667.164L1626.731,662.132L1631.84,659.673L1635.375,656.539L1640.286,653.836L1642.927,653.263L1644.204,654.173L1649.266,651.43L1652.806,650.606L1654.063,648.995L1655.705,648.321L1658.688,648.496L1665.039,646.333L1668.884,643.054L1671.299,639.093L1675.471,635.326L1676.447,632.359L1677.538,628.318L1682.844,621.985L1683.716,628.418L1686.436,626.931L1685.263,623.411L1687.805,619.786L1689.888,621.403L1691.801,615.725L1695.616,612.039L1697.56,609.085L1700.625,607.803L1701.119,605.708L1703.396,606.585L1703.865,604.705L1706.525,603.625L1709.413,602.608L1712.859,606.051L1715.064,610.493L1718.523,610.544L1721.922,611.254L1721.596,607.131L1725.46,601.12L1728.372,599.149L1727.838,597.278L1731.059,592.971L1734.912,590.319L1737.619,591.212L1742.585,589.796L1743.144,585.941L1739.435,583.45L1742.601,582.351L1746.011,584.229L1748.48,587.32L1752.865,589.247L1754.593,588.482L1757.648,590.804L1761.3,588.648L1763.302,589.298L1764.869,587.856L1766.759,591.582L1764.511,595.609L1761.805,598.652L1759.823,598.907L1759.865,601.909L1757.46,605.658L1754.681,609.351L1754.62,611.456L1758.108,615.599L1761.829,617.99L1764.067,620.57L1766.98,624.989L1768.541,624.976L1770.943,626.881L1771.195,629.187L1775.798,631.705L1780.133,629.162L1782.287,625.166L1784.255,621.858L1785.956,617.763L1789.082,611.811L1789.13,608.184L1790.016,606.013L1790.303,601.705L1792.212,596.042L1793.583,594.514L1793.204,592.003L1795.303,588.009L1797.097,583.859L1797.609,581.712L1800.187,578.873L1801.138,582.568L1800.677,587.307L1801.922,588.214L1801.545,591.39L1802.828,595.214L1802.376,599.479ZM1910.508,577.478L1911.596,580.075L1907.686,580.024L1906.399,575.379L1909.427,577.197ZM1678.22,575.635L1675.835,575.776L1669.07,570.473L1674.497,568.986L1677.167,571.293L1678.834,573.599ZM1904.212,572.856L1901.996,573.036L1898.687,572.267L1897.709,571.101L1898.546,568.089L1902.059,569.281L1903.639,570.871ZM1909.219,570.794L1908.132,572.19L1905.033,565.627L1904.558,561.097L1906.464,561.097L1907.566,567.166ZM1699.238,574.88L1694.195,576.544L1693.653,575.635L1694.506,573.061L1697.51,568.448L1703.451,565.434L1704.312,563.651L1709.356,561.944L1713.319,561.687L1715.192,560.737L1717.212,561.687L1714.903,563.741L1708.643,567.05L1703.649,569.23ZM1664.308,559.389L1666.123,561.417L1669.677,560.801L1670.722,564.023L1664.044,565.55L1660.017,566.563L1657.006,566.499L1659.415,562.136L1662.524,562.072ZM1692.504,559.389L1691.203,563.599L1682.501,565.755L1675.111,564.818L1675.422,562.046L1680.055,560.467L1683.334,562.74L1687.149,562.162ZM1900.564,561.225L1900.584,562.752L1896.627,559.53L1893.916,556.807L1892.134,554.275L1893.064,553.504L1895.429,555.329L1899.586,558.824ZM1888.408,553.723L1887.218,554.147L1884.975,552.424L1883.029,549.299L1883.458,548.026L1886.458,551.241ZM1612.91,549.389L1623.675,550.148L1625.165,547.009L1635.331,550.663L1636.944,555.586L1645.276,556.974L1651.739,561.482L1645.004,564.369L1639.123,561.315L1634.012,561.52L1628.229,560.955L1623.09,559.594L1616.831,556.704L1612.76,555.946L1610.32,556.897L1600.324,553.774L1599.618,550.508L1594.483,549.942L1598.894,542.685L1605.714,543.136L1610.054,546.109L1612.347,546.688ZM1760.609,545.105L1757.21,550.277L1757.204,544.551L1758.436,541.822L1759.826,539.247L1760.925,541.475ZM1879.529,549.711L1877.856,550.47L1875.749,547.55L1873.773,542.724L1873.108,536.928L1873.944,536.194L1874.358,538.448L1875.909,540.174L1878.176,545.002L1880.562,547.576ZM1858.583,539.504L1855.557,540.123L1854.463,542.26L1851.193,544.114L1848.127,545.89L1845.121,545.877L1840.706,543.676L1837.695,541.552L1838.374,539.195L1843.34,540.303L1846.484,539.711L1847.65,536.065L1848.479,535.872L1848.682,539.917L1851.947,539.337L1853.758,536.735L1857.132,534.016L1856.849,529.531L1860.238,529.389L1861.291,530.64L1860.87,534.854ZM1719.792,524.128L1717.548,526.656L1713.709,525.263L1712.761,521.987L1718.5,521.613ZM1738.146,521.342L1739.917,527.171L1735.314,524.025L1730.619,523.393L1727.398,523.896L1723.501,523.625L1725.006,519.433L1732.025,519.123ZM1865.726,532.057L1863.801,534.081L1863.074,529.595L1861.944,526.643L1859.527,524.154L1856.482,520.903L1852.514,518.659L1854.162,516.813L1857.125,518.955L1858.96,520.632L1861.249,522.464L1863.328,525.663L1865.332,528.1ZM1759.376,506.54L1760.615,518.865L1766.256,523.432L1771.319,515.342L1777.955,510.748L1782.988,510.735L1787.763,513.394L1791.868,516.13L1797.883,517.588L1807.464,522.838L1817.668,527.197L1821.325,531.091L1824.181,534.918L1824.688,539.414L1833.651,544.114L1834.624,548.142L1829.335,548.965L1830.026,554.018L1834.444,559.003L1836.983,567.05L1840.241,566.794L1839.513,570.153L1843.666,571.434L1841.74,572.856L1847.183,576.045L1846.203,578.233L1842.392,578.758L1841.333,576.8L1836.661,575.955L1831.165,574.816L1827.552,569.986L1824.963,565.819L1822.939,559.183L1816.006,555.856L1810.973,558.027L1807.21,560.532L1807.17,566.127L1802.384,568.73L1799.426,567.461L1793.636,567.14L1789.456,560.917L1783.924,559.402L1782.257,561.559L1775.091,561.79L1778.223,555.612L1782.011,553.504L1781.388,545.246L1779.218,538.86L1768.747,532.418L1764.129,531.774L1756.049,524.734L1754.178,528.435L1751.96,529.106L1750.835,526.32L1750.982,523.006L1746.829,519.265L1753.023,516.517L1757.052,516.659L1756.652,514.646L1748.36,514.633L1746.243,510.09L1741.219,508.683L1738.898,504.901L1746.542,503.055L1749.455,500.576L1758.519,503.7ZM1708.942,486.918L1704.491,494.496L1700.238,495.954L1694.79,494.47L1685.355,494.844L1680.407,495.942L1679.601,501.712L1684.57,508.502L1687.681,505.043L1698.265,502.448L1697.777,505.959L1695.326,504.849L1692.787,509.328L1687.728,512.284L1692.758,522.051L1691.624,524.67L1696.213,533.462L1695.839,538.461L1692.666,540.689L1690.642,538.023L1693.771,531.787L1688.034,534.738L1686.761,532.625L1687.663,529.686L1683.819,525.224L1684.549,517.794L1680.677,520.103L1680.759,528.989L1680.3,539.891L1676.641,540.985L1674.381,538.757L1676.434,531.748L1675.936,524.399L1673.556,524.347L1672.015,519.123L1674.517,514.129L1675.469,508.076L1678.391,496.574L1679.558,493.437L1684.319,487.77L1688.776,490.016L1695.922,491.075L1702.419,490.752L1707.928,485.214ZM1728.503,489.113L1728.262,495.787L1725.344,495.038L1724.492,499.672L1726.786,503.7L1725.186,504.617L1722.942,499.789L1721.221,490.042L1722.244,483.95L1724.042,481.175L1724.559,485.331L1727.916,486.002ZM1597.595,542.35L1591.323,542.505L1586.955,536.142L1580.032,529.931L1577.809,525.315L1573.751,519.11L1571.091,513.394L1566.928,502.719L1561.971,496.355L1560.277,489.797L1558.087,483.846L1552.884,479.046L1549.733,472.518L1545.317,468.262L1539.03,459.858L1538.333,455.993L1541.971,456.303L1550.799,457.771L1556.179,465.206L1560.773,470.377L1564.004,473.55L1569.595,481.743L1575.364,481.859L1580.212,487.086L1583.563,493.476L1587.876,496.961L1585.593,503.184L1588.807,505.83L1590.843,506.024L1591.715,511.342L1593.592,515.6L1597.73,516.271L1600.328,521.097L1598.503,530.575ZM1667.183,483.821L1673.664,490.868L1666.969,491.772L1665.102,496.974L1665.316,503.881L1659.799,509.096L1659.467,516.697L1656.812,528.345L1656.108,525.637L1649.508,529.067L1647.488,524.412L1643.474,523.973L1640.742,521.535L1633.911,524.27L1631.998,520.594L1628.276,521.007L1623.643,520.129L1623.043,509.896L1620.267,507.779L1617.604,501.26L1616.831,494.586L1617.41,487.512L1620.673,482.453L1624.886,485.06L1629.217,483.64L1630.182,477.188L1632.557,475.743L1639.28,474.091L1643.074,468.068L1645.612,463.247L1647.685,460.399L1652.218,456.238L1656.184,450.946L1658.539,445.002L1660.812,444.977L1664.043,448.823L1664.569,452.131L1668.448,454.255L1673.308,456.534L1673.102,459.523L1669.342,459.897L1670.585,463.621L1666.555,466.212L1663.66,473.085L1668.069,480.31ZM1711.804,433.695L1712.93,438.73L1713.691,442.997L1712.422,449.943L1709.633,442.199L1707.362,446.057L1709.659,451.654L1708.334,455.221L1701.336,450.805L1699.269,445.298L1700.63,441.698L1696.691,438.1L1695.246,441.248L1692.558,440.953L1688.799,445.195L1687.658,442.971L1689.225,436.571L1692.543,434.44L1695.28,431.578L1697.657,435.018L1701.721,432.938L1702.233,429.551L1706.181,429.358L1705.11,423.5L1710.132,427.088L1711.069,430.898ZM1458.535,450.535L1453.709,452.272L1450.692,446.224L1448.992,435.313L1450.584,423.013L1454.822,427.217L1457.854,432.553L1461.135,440.464L1460.772,448.373ZM657.573,420.849L652.823,421.681L651.857,421.002L653.639,418.916L653.729,415.934L657.033,414.95L658.186,415.218ZM1696.544,419.568L1694.86,422.065L1693.716,426.845L1692.229,429.089L1688.112,423.846L1689.001,421.822L1690.132,419.709L1690.075,415.014L1693.101,414.566L1692.936,419.658L1696.026,412.367ZM1666.68,426.858L1660.015,434.055L1662.182,428.743L1665.672,424.076L1668.374,418.839L1670.267,411.332L1672.135,417.495L1668.988,421.655ZM1682.963,407.386L1686.677,409.723L1690.248,409.71L1690.628,412.866L1688.491,416.075L1685.253,418.352L1684.553,414.835L1684.388,410.987ZM1702.901,405.345L1705.812,413.773L1701.184,411.767L1701.67,414.31L1703.72,418.967L1701.287,420.669L1700.308,415.346L1698.553,414.95L1696.994,410.387L1700.377,410.987L1699.846,408.127L1695.489,402.374L1700.876,402.539ZM1679.503,398.526L1679.098,405.026L1676.083,401.265L1672.239,395.535L1677.076,395.815ZM1669.843,357.911L1673.761,360.021L1674.978,358.099L1675.96,359.983L1675.79,363.063L1678.932,368.39L1678.861,374.587L1676.113,377.065L1676.497,383.091L1678.91,389.066L1682.018,389.891L1684.318,389.002L1692.078,393.17L1692.28,397.253L1694.432,399.061L1694.447,402.527L1689.46,398.832L1686.684,394.886L1685.75,397.648L1681.38,393.144L1676.495,394.25L1673.421,392.597L1673.128,389.497L1674.51,387.58L1672.512,385.855L1672.308,388.558L1668.727,384.244L1667.257,380.988L1665.544,373.829L1668.308,376.294L1666.298,364.624L1666.481,357.898ZM637.592,359.958L635.934,361.831L631.781,361.781L628.501,362.045L628.609,358.865L629.552,357.785L634.058,357.823L636.793,358.476ZM574.687,362.623L572.827,363.869L569.901,362.673L567.155,359.971L568.098,358.275L570.486,357.76L571.718,358.011L575.331,358.677L577.98,360.461L578.59,362.485ZM600.835,347.79L605.425,348.952L606.296,347.69L610.586,347.727L613.562,349.628L615.037,349.44L615.636,352.056L618.671,351.918L618.17,354.123L620.593,354.386L622.908,357.108L620.443,360.121L618.041,358.514L615.472,358.828L613.692,358.476L612.508,359.82L610.334,360.285L609.736,358.476L607.754,359.543L604.83,364.636L603.58,363.453L603.602,361.315L600.102,360.059L597.421,360.574L594.138,360.033L591.349,361.416L588.727,359.104L589.566,356.719L594.497,357.748L598.584,358.338L600.814,356.694L598.777,353.484L599.254,350.654L595.968,349.503L597.521,347.465ZM1608.909,356.618L1604.932,360.184L1599.893,357.886L1598.289,351.505L1600.218,348.165L1605.734,346.091L1608.923,346.266L1610.838,349.09L1609.193,352.344ZM142.616,353.609L141.398,354.85L140.372,353.797L141.212,351.73L141.207,349.027L141.761,348.215L143.126,347.003L143.25,345.554L143.806,344.867L144.173,345.005L145.858,346.253L146.608,346.89L147.163,347.877L147.699,350.466L147.423,350.879L144.76,352.457ZM143.6,342.086L141.552,342.622L141.181,341.064L140.765,340.466L140.873,340.005L141.631,339.383L143.332,340.08L144.37,341.201ZM141.284,338.175L140.819,338.959L137.957,338.748L138.701,337.852ZM136.77,337.106L136.317,337.529L135.979,337.429L134.164,337.168L134.095,335.515L133.991,335.217L135.834,334.198L136.108,334.67ZM129.356,332.262L128.428,332.982L127.115,331.654L127.599,331.121L128.726,330.402L129.926,330.551ZM565.788,326.528L567.414,329.201L572.681,328.383L574.274,330.093L578.039,334.633L580.843,337.951L582.675,337.852L585.665,339.345L584.907,341.425L588.904,341.724L592.545,344.742L591.608,346.465L587.792,347.402L584.03,347.765L580.344,347.19L572.345,347.902L576.731,343.794L574.835,341.874L571.386,341.388L569.877,339.258L569.35,335.08L566.204,335.366L561.483,333.391L560.151,331.853L553.258,330.725L551.641,329.3L554.058,327.468L548.777,327.096L544.082,330.898L541.801,330.997L540.648,332.783L537.768,333.59L535.588,332.895L538.929,330.625L540.661,327.987L543.476,326.367L546.565,324.933L550.828,324.241L552.311,323.438L556.904,323.957L561.178,324.043ZM578.914,319.283L577.511,319.64L577.015,315.456L575.435,313.356L577.604,308.759L579.176,309.04L579.771,315.063ZM1660.301,326.342L1659.768,332.349L1655.05,326.169L1652.748,320.761L1653.625,313.614L1656.12,308.135L1659.327,310.29L1659.844,314.67ZM581.839,298.875L575.706,300.031L575.966,297.367L578.614,296.796L582.118,297.015ZM586.266,298.802L584.175,303.919L583.392,303.004L584.327,299.239L582.592,296.395L582.765,295.582ZM1698.68,245.558L1700.586,247.927L1699.831,252.106L1696.553,249.891L1694.696,251.496L1695.376,255.559L1690.983,253.584L1689.353,250.289L1690.111,246.176L1693.48,246.969L1694.084,244.079ZM1177.968,235.133L1174.889,238.033L1175.457,239.318L1175.683,239.874L1170.752,242.66L1168.101,241.765L1166.55,239.017L1168.969,238.762L1169.318,238.727L1169.838,237.073L1173.562,237.165ZM1121.967,234.902L1125.013,237.2L1128.982,236.807L1132.874,237.293L1132.87,238.484L1135.587,237.663L1135.153,239.689L1127.773,240.268L1127.714,239.132L1121.285,237.801ZM1078.73,217.852L1077.26,223.132L1078.152,225.218L1077.312,228.683L1073.229,226.143L1070.592,225.412L1063.292,221.994L1063.795,218.543L1069.771,219.155L1074.915,218.43ZM1045.863,198.17L1049.061,202.812L1048.759,211.549L1046.453,211.122L1044.493,213.337L1042.515,211.582L1041.999,203.612L1040.697,199.862L1043.458,200.194ZM1719.633,225.161L1720.987,230.564L1723.89,233.969L1723.987,238.773L1719.203,241.998L1710.341,242.416L1707.164,250.289L1702.285,247.635L1699.309,242.486L1691.112,243.997L1686.668,247.25L1680.655,247.378L1688.525,252.469L1690.79,264.31L1688.772,267.253L1684.949,264.535L1683.258,258.233L1678.96,256.206L1674.5,251.449L1678.365,249.318L1678.862,244.987L1682.218,241.429L1683.477,236.761L1692.599,234.718L1698.886,236.114L1697.276,224.066L1702.595,227.286L1706.009,220.551L1707.28,217.954L1705.219,209.809L1699.43,202.401L1698.693,198.259L1703.146,197.067L1712.14,206.152L1715.556,211.515L1715.232,218.226ZM1047.308,192.045L1045.902,197.056L1043.588,195.734L1042.255,191.367L1043.145,188.975L1046.204,186.516ZM1702.378,179.084L1706.859,180.439L1708.218,177.754L1714.865,184.899L1708.906,186.657L1709.297,193.064L1698.323,188.648L1700.697,195.723L1695.259,195.822L1690,189.39L1688.837,184.444L1693.802,184.087L1688.531,175.304L1686.122,170.413L1696.986,176.961ZM694.572,164.198L697.76,165.026L702.263,164.858L698.983,167.402L697.071,167.803L691.914,165.173L691.494,163.099L694.02,161.188ZM709.273,148.604L706.943,148.716L701.597,146.827L698.389,144.007L700.207,143.514L705.749,145.006L709.561,147.507ZM416.304,152.198L413.285,153.038L407.642,150.285L407.882,148.157L405.355,146.057L405.876,144.36L401.94,143.283L402.802,140.064L404.345,138.698L408.14,139.984L410.272,140.874L414.134,141.505L414.063,143.554L414.146,146.381L416.902,148.858ZM739.328,139.186L734.358,144.37L738.123,142.368L740.814,143.635L738.429,145.713L742.028,147.354L744.692,145.895L748.746,147.74L745.821,152.157L749.458,151.123L749.031,154.333L749.3,158.123L745.604,163.538L743.375,163.768L740.582,162.607L743.219,157.574L742.152,156.798L734.894,162.127L732.106,161.908L736.421,159.025L732.338,157.532L727.109,157.895L717.938,157.708L717.846,155.899L721.565,153.757L720.095,152.116L725.387,148.482L733.711,139.006L737.83,135.67L742.588,133.657L744.632,133.913L743.152,135.492ZM401.211,119.88L405.97,119.433L398.618,125.862L398.427,130.478L396.603,130.468L396.222,127.838L396.944,125.206L396.299,123.435L397.81,120.947L399.772,119.158ZM1666.738,138.837L1681.119,149.378L1672.382,147.395L1677.14,156.137L1687.116,162.419L1690.569,166.749L1683.838,163.015L1684.624,167.813L1679.482,162.607L1674.998,156.633L1668.787,150.081L1665.848,145.552L1658.817,137.633L1650.695,131.898L1643.449,124.05L1645.039,121.453L1640.6,118.844L1641.787,118.058L1646.769,121.778L1653.819,127.256L1659.232,132.928ZM968.893,130.019L960.562,133.44L954.104,132.565L958.206,126.549L956.219,120.775L962.631,116.387L966.166,113.796L969.925,113.571L974.575,116.999L971.994,120.851L972.57,124.897ZM1056.443,111.169L1054.183,115.634L1049.235,112.517L1048.423,110.233L1054.779,108.433ZM328.867,103.012L322.062,105.055L321.459,103.673L323.793,101.172L330.04,99.29L333.337,98.487L335.803,98.844L335.669,100.481ZM987.013,95.007L982.207,100.687L986.674,99.961L991.448,99.988L990.242,104.327L986.17,109.179L990.745,109.53L994.999,116.613L998.066,117.509L1000.842,123.925L1002.141,126.172L1007.681,127.266L1007.162,130.947L1004.828,132.643L1006.695,135.65L1002.548,138.727L996.35,138.668L988.422,140.294L986.267,139.136L983.144,141.896L978.851,141.225L975.505,143.494L973.06,142.308L980.067,136.115L984.24,134.859L977.029,133.883L975.8,131.574L980.663,129.785L978.257,126.684L979.23,122.955L985.976,123.473L986.698,120.194L983.703,116.669L978.291,115.69L977.282,114.189L978.994,111.726L977.576,110.214L975.086,112.806L975.036,107.541L972.937,104.791L974.786,99.281L978.344,95.024L981.785,95.438ZM293.157,88.452L289.432,89.243L287.948,88.298L287.303,86.921L292.71,86.061L295.432,86.52ZM669.205,77.318L665.796,79.869L664.228,79.456L664.149,78.007L664.583,77.67L667.216,76.225L668.85,76.331ZM660.162,74.661L653.346,77.31L650.48,77.204L650.537,75.9L655.284,73.694L660.928,73.742ZM295.287,69.614L296.412,70.505L299.726,70.024L301.135,71.258L304.261,71.886L303.137,72.396L298.464,73.397L296.901,72.372L296.649,71.52L292.591,71.79L292.259,71.377ZM657.353,61.112L656.504,63.063L659.14,62.375L660.54,63.549L663.754,65.099L667.316,66.517L666.023,68.704L669.3,68.344L671.094,69.882L666.351,71.353L660.794,70.229L660.088,68.141L654.125,70.608L646.365,73.044L647.105,70.292L641.166,70.743L646.578,68.445L649.996,64.846L654.745,60.746ZM942.111,57.618L940.787,60.44L944.933,63.473L939.188,66.935L926.904,70.102L923.21,70.948L917.928,70.26L906.77,68.79L911.208,66.757L902.829,64.533L910.196,63.663L910.3,62.345L902.071,61.314L905.451,58.454L911.648,57.816L917.278,60.776L923.826,58.396L928.635,59.629L935.539,57.311ZM699.554,54.648L694.941,54.863L695.547,52.805L699.024,50.486L703.06,49.918L705.252,51.049L703.946,52.826L703.054,53.407ZM1244.419,197.696L1248.074,202.334L1250.489,202.645L1252.449,204.413L1248.461,204.937L1248.776,210.067L1248.456,212.392L1246.953,213.945L1247.817,217.253L1250.51,222.198L1255.64,223.599L1259.929,226.978L1267.462,228.145L1275.044,226.36L1275.168,224.773L1273.088,220.028L1272.113,213.044L1267.633,210.796L1267.782,206.264L1264.362,205.884L1264.049,200.349L1269.178,201.956L1273.009,199.862L1268.334,195.943L1265.899,192.232L1262.351,193.887L1263.107,198.656L1260.444,194.436L1259.757,192.856L1260.247,190.165L1258.696,187.919L1252.397,185.723L1248.638,179.998L1245.492,178.387L1244.77,176.33L1249.668,176.929L1248.557,172.322L1252.375,171.303L1256.884,172.237L1255.923,166.15L1253.884,162.325L1249.182,162.618L1244.664,161.115L1239.934,163.831L1235.831,165.131L1234.66,168.816L1230.265,169.841L1227.149,176.33L1233.11,182.358L1233.712,186.668L1240.973,194.272ZM1729.435,64.136L1729.444,64.158L1727.596,66.154L1721.755,65.814L1729.483,68.258L1738.242,72.101L1742.211,73.373L1745.861,75.34L1746.837,76.616L1737.409,75.567L1731.403,79.208L1728.544,79.778L1727.285,83.238L1725.606,86.299L1727.337,88.598L1716.268,85.11L1710.76,89.071L1706.202,87.185L1705.1,89.364L1698.438,88.667L1701.589,92.022L1703.035,97.047L1705.936,99.174L1712.413,100.355L1721.666,108.166L1717.804,108.369L1721.444,112.946L1726.152,115.333L1721.62,118.172L1727.386,124.618L1722.128,126.007L1727.091,131.849L1726.151,137.285L1720.258,133.263L1709.331,124.868L1692.879,112.424L1686.145,104.882L1685.965,101.685L1683.146,99.21L1688.426,98.033L1687.706,91.492L1688.052,86.265L1690.133,82.291L1683.608,75.429L1679.157,75.835L1682.389,79.828L1679.228,85.254L1667.415,79.183L1658.877,80.848L1659.336,89.226L1666.893,92.362L1658.972,93.707L1652.954,94.242L1648.649,90.521L1641.033,89.743L1638.826,92.266L1624.606,91.379L1612.272,92.903L1609.673,103.157L1605.933,116.029L1613.697,116.726L1619.357,120.232L1624.982,121.491L1625.089,118.674L1630.405,119.044L1643.126,125.264L1648.015,130.136L1649.915,135.947L1655.962,142.981L1662.25,152.577L1662.47,161.418L1664.287,165.698L1663.391,172.971L1662.267,180.267L1661.822,184.033L1657.91,187.788L1654.866,187.875L1649.609,184.758L1646.214,189.455L1646.892,191.607L1644.742,191.214L1644.06,193.415L1644.019,195.624L1647.201,200.305L1645.541,201.746L1645.37,202.912L1644.696,204.847L1642.019,205.929L1640.909,207.705L1642.463,210.572L1642.315,211.302L1644.969,212.38L1649.542,215.298L1658.487,223.2L1662.197,227.573L1666.532,235.398L1666.579,239.156L1662.576,240.465L1659.901,243.311L1655.537,243.904L1653.061,240.164L1651.369,235.041L1645.325,227.973L1648.501,226.84L1641.817,221.073L1638.627,219.79L1638.716,221.062L1637.542,221.619L1636.652,220.346L1634.992,219.733L1633.025,218.668L1632.77,215.727L1633.51,214.948L1632.357,213.731L1631.565,210.146L1630.6,209.059L1627.227,208.342L1623.817,206.576L1617.916,208.488L1615.997,211.594L1611.563,213.404L1612.518,210.325L1609.998,207.749L1611.395,203.323L1606.712,199.884L1603.731,202.201L1600.708,206.777L1600.004,211.043L1595.247,211.369L1594.347,214.463L1599.442,218.985L1604.176,220.085L1605.927,223.098L1610.99,225.058L1614.154,220.267L1620.083,222.881L1623.458,223.052L1626.192,226.589L1619.927,228.477L1619.408,232.138L1616.121,235.548L1615.826,240.338L1623.205,244.102L1628.443,250.898L1634.527,257.254L1640.49,262.616L1642.665,267.824L1640.178,269.74L1643.011,273.496L1647.051,275.695L1648.576,281.463L1649.435,287.098L1646.703,287.738L1645.7,295.485L1644.698,304.92L1642.57,313.552L1637.233,320.256L1631.521,326.404L1625.624,327.245L1623.211,330.489L1620.652,328.111L1618.59,331.754L1611.952,335.428L1606.455,336.546L1606.564,344.318L1603.626,344.755L1600.846,339.407L1601.417,336.571L1593.455,334.211L1591.188,335.415L1585.447,341.699L1582.531,348.665L1582.483,353.797L1588.386,361.617L1595.549,371.342L1601.478,375.952L1605.98,381.963L1610.902,395.84L1612.134,409.084L1608.116,414.055L1602.299,418.928L1598.432,425.23L1592.156,432.283L1589.617,427.435L1590.636,422.296L1585.971,418.007L1581.128,416.894L1578.385,412.968L1574.521,405.166L1569.026,401.711L1564.251,401.851L1564.23,395.942L1559.308,395.98L1560.025,404.261L1558.382,415.282L1557.312,421.963L1558.264,427.447L1561.953,427.678L1564.9,434.594L1566.477,441.171L1569.963,445.517L1573.442,446.404L1576.649,450.342L1577.999,451.062L1581.63,455.646L1584.285,460.747L1584.87,465.877L1584.433,469.345L1585.087,471.963L1585.649,476.465L1587.708,478.568L1590.086,485.318L1590.027,487.886L1586.019,488.403L1580.559,482.749L1573.699,476.697L1572.919,472.814L1569.44,467.72L1568.368,461.417L1566.107,457.269L1566.375,451.719L1564.918,448.501L1562.473,445.581L1561.231,441.827L1557.875,437.535L1554.823,433.939L1554.295,438.396L1552.858,434.183L1553.029,429.448L1553.957,422.193L1552.792,416.574L1553.844,410.796L1551.385,406.327L1550.741,398.119L1547.91,394.225L1544.735,385.246L1542.173,375.801L1538.665,369.613L1535.674,373.362L1530.272,378.684L1527.04,378.014L1523.312,376.268L1523.637,367.029L1521.199,360.059L1515.211,351.517L1515.347,348.852L1511.925,347.902L1506.784,341.899L1504.404,338.051L1503.271,334.31L1501.44,330.787L1498.189,326.528L1493.102,326.243L1494.275,329.25L1493.469,333.329L1490.822,331.84L1490.308,333.18L1488.598,332.374L1486.331,331.716L1486.141,334.397L1482.402,334.31L1475.964,335.825L1477.405,341.363L1475.333,345.716L1468.345,350.691L1463.701,359.405L1460.315,364.095L1455.578,368.958L1456.077,372.39L1453.592,374.234L1448.977,376.913L1446.431,377.305L1445.524,383.002L1447.926,392.763L1448.96,398.997L1447.363,406.149L1448.592,418.98L1445.713,419.351L1443.654,425.114L1445.557,427.614L1440.597,429.756L1439.087,434.915L1436.964,437.098L1431.133,430.012L1427.698,419.415L1424.856,411.792L1422.56,408.229L1418.85,400.984L1416.438,391.581L1414.929,386.895L1408.588,376.622L1404.324,362.183L1401.261,352.694L1399.856,343.744L1397.634,336.857L1390.399,341.251L1386.387,340.379L1377.778,331.481L1379.937,328.829L1377.826,325.959L1370.341,319.775L1366.041,317.928L1363.469,312.705L1358.257,307.205L1348.556,308.563L1339.81,308.698L1332.382,309.714L1321.837,307.523L1315.69,305.86L1309.44,304.932L1305.662,296.104L1302.874,294.829L1298.962,296.116L1294.125,299.592L1287.183,297.209L1280.868,291.703L1275.397,289.671L1270.717,282.905L1265.206,273.46L1262.562,274.607L1258.794,272.266L1257.292,275.026L1254.089,274.679L1255.703,277.803L1255.485,279.422L1258.035,284.771L1261.08,290.928L1263.969,292.562L1265.256,295.072L1269.38,298.084L1270.133,301.053L1269.962,303.455L1270.993,305.885L1272.837,307.902L1273.895,310.278L1274.944,312.055L1273.843,306.789L1274.743,303.004L1276.1,302.223L1278.068,304.492L1278.787,308.71L1278.211,312.975L1279.634,315.751L1280.54,315.395L1281.033,317.387L1285.11,316.243L1289.627,316.427L1292.939,316.649L1295.916,311.736L1299.225,307.095L1301.926,302.65L1303.071,300.201L1303.852,300.822L1303.84,303.797L1303.336,305.115L1304.984,310.817L1308.192,315.776L1311.622,318.408L1315.757,319.369L1319.167,320.687L1322.254,324.871L1324.089,327.294L1326.191,328.223L1326.415,329.857L1325.064,334.223L1324.489,336.285L1322.51,338.636L1321.134,343.669L1318.593,343.283L1317.675,345.042L1317.282,348.79L1318.566,353.734L1318.159,354.637L1315.615,354.612L1312.485,357.384L1312.36,361.001L1311.281,362.573L1307.83,362.51L1305.862,364.385L1306.2,367.395L1303.74,369.462L1300.615,368.756L1297.153,371.266L1294.637,371.683L1290.813,373.69L1290.041,377.014L1290.15,379.557L1284.876,382.711L1276.26,386.21L1271.669,391.504L1269.248,391.911L1267.548,391.479L1264.496,394.594L1261.035,396.031L1256.375,396.426L1254.995,396.858L1253.897,398.844L1252.462,399.392L1251.737,401.303L1248.947,401.137L1247.216,402.157L1243.325,401.774L1241.607,397.38L1241.507,393.271L1240.437,391.06L1238.978,385.512L1237.158,382.432L1238.254,382.065L1237.425,378.646L1237.999,377.204L1237.513,373.956L1236.547,370.761L1234.694,368.529L1234.017,365.555L1230.951,362.887L1227.489,356.668L1225.401,350.629L1221.148,345.554L1218.587,344.343L1214.318,337.33L1213.21,332.225L1213.027,327.888L1209.105,319.8L1206.275,316.956L1203.194,315.456L1200.975,311.295L1201.097,309.665L1199.206,305.909L1197.464,304.309L1194.798,298.948L1190.885,293.168L1187.627,288.257L1184.958,288.293L1185.368,284.374L1185.317,281.895L1185.641,279.062L1185.349,278.03L1184.187,280.886L1183.639,286.254L1182.601,289.973L1181.482,291.219L1179.448,288.909L1176.709,285.735L1171.819,275.564L1171.336,276.198L1174.342,283.688L1178.382,290.856L1183.579,302.028L1185.947,305.946L1188.097,310.032L1193.726,318.064L1192.771,319.332L1193.385,324.068L1200.32,330.625L1201.419,332.126L1203.827,339.333L1202.737,340.665L1204.159,348.252L1206.88,357.095L1209.127,358.915L1212.36,361.667L1216.206,370.269L1218.226,377.128L1221.516,380.773L1229.584,387.847L1232.951,392.114L1236.258,396.451L1238.166,399.035L1241.041,401.303L1242.508,403.636L1242.506,406.761L1239.42,408.574L1241.933,410.63L1243.845,412.022L1245.099,415.141L1247.787,418.314L1250.578,418.34L1255.775,416.408L1261.83,415.512L1266.648,413.16L1269.406,412.661L1271.324,411.281L1274.498,411.026L1276.286,410.872L1278.8,409.748L1281.719,408.995L1284.214,406.416L1286.33,406.391L1286.589,408.471L1286.364,412.866L1286.624,416.83L1285.589,419.568L1284.449,427.755L1282.131,436.212L1279.029,445.916L1274.551,457.062L1269.941,465.58L1263.47,475.975L1257.881,482.156L1249.481,489.719L1244.221,495.528L1238.012,504.759L1236.686,508.786L1235.39,510.593L1231.391,513.639L1229.973,516.813L1227.848,517.381L1226.965,522.748L1225.107,525.818L1223.92,530.885L1221.593,533.398L1218.78,542.775L1218.993,547.087L1222.531,549.865L1222.635,551.833L1220.947,556.421L1221.195,558.734L1220.703,562.355L1222.49,567.102L1224.509,574.573L1226.478,576.224L1227.231,579.615L1226.637,587.129L1226.966,593.749L1226.49,605.493L1227.238,609.174L1225.216,614.523L1222.694,619.71L1218.827,624.333L1213.552,627.171L1207.05,630.786L1200.238,638.754L1198.012,640.109L1193.768,645.37L1191.36,647.071L1190.499,652.328L1192.655,657.907L1193.357,662.206L1193.246,664.402L1194.241,664.042L1193.445,671.208L1192.253,674.589L1193.408,675.846L1192.32,678.874L1189.81,681.455L1185.114,683.897L1178.246,687.816L1175.626,690.493L1175.804,693.519L1177.133,694.006L1176.299,697.791L1174.427,703.009L1173.205,708.943L1171.488,712.16L1167.475,715.741L1166.335,716.773L1163.705,720.365L1161.857,723.983L1158.319,729.029L1151.609,736.239L1147.471,740.422L1143.21,743.581L1137.475,746.262L1134.797,746.625L1133.93,748.541L1130.871,747.513L1128.161,748.833L1122.656,747.502L1119.436,748.342L1117.317,747.98L1111.736,750.698L1107.202,751.792L1103.804,754.384L1101.426,754.546L1099.436,752.106L1097.693,751.978L1095.679,748.903L1095.366,749.859L1094.808,748.004L1095.131,743.956L1093.758,739.304L1095.521,738.032L1095.746,732.681L1092.714,726.116L1090.425,720.138L1090.406,720.126L1087.109,710.908L1083.405,705.526L1081.572,700.293L1080.689,693.299L1079.593,688.073L1078.228,676.905L1078.416,668.179L1077.87,664.191L1075.848,661.176L1073.204,655.095L1070.576,646.258L1069.512,641.613L1065.201,634.371L1064.993,628.67L1064.576,623.979L1065.472,617.421L1067.533,610.569L1067.897,607.346L1069.832,600.586L1071.217,597.494L1074.508,592.576L1076.383,589.222L1077.065,583.629L1076.833,579.346L1075.197,576.646L1073.766,572.062L1072.45,567.512L1072.773,565.947L1074.534,562.932L1072.914,555.612L1071.808,550.521L1069.027,545.71L1069.567,544.23L1068.793,541.874L1067.328,536.155L1062.734,528.087L1056.961,520.4L1053.229,514.104L1049.798,506.23L1049.984,503.7L1051.228,501.26L1052.594,495.709L1053.732,490.055L1052.671,488.893L1054.612,480.336L1055.41,474.311L1053.193,469.281L1050.602,467.991L1049.449,464.575L1047.999,463.479L1048.051,461.378L1042.181,464.124L1040.043,463.711L1037.87,465.425L1033.351,465.258L1030.306,460.489L1028.438,454.989L1024.418,449.968L1020.171,450.071L1015.192,450.058L1010.539,450.946L1005.987,452.568L997.122,457.024L993.988,459.639L988.9,461.842L983.857,459.678L981.293,459.768L977.349,458.273L973.728,458.363L967.032,459.69L963.097,461.881L957.491,464.678L956.393,464.484L954.907,464.549L949.102,460.914L944.007,455.118L939.216,450.959L935.454,446.057L933.936,445.491L929.902,442.431L927.022,438.37L926.059,435.595L925.438,429.987L923.027,425.512L920.884,422.539L919.462,421.566L918.09,420.055L917.499,416.715L916.699,415.052L915.105,413.812L912.155,410.655L909.803,410.157L908.576,408.037L908.62,406.889L906.96,405.294L906.634,403.674L905.842,397.902L906.647,394.568L904.488,388.723L901.792,386.058L904.279,384.637L907.113,379.38L908.544,375.535L908.184,371.519L909.852,367.848L910.749,360.838L910.396,353.521L909.85,349.84L910.536,346.153L909.242,342.647L906.481,339.47L906.842,336.372L907.237,332.969L909.403,330.972L911.346,327.158L911.096,324.686L913.191,319.541L916.413,314.915L918.275,313.749L919.892,309.53L920.17,305.677L922.299,301.224L925.99,298.595L929.706,291.279L932.592,288.438L937.602,287.641L941.982,282.785L944.71,280.886L949.34,274.978L948.304,266.22L950.519,260.204L951.345,256.524L954.869,251.836L960.18,248.675L964.115,245.826L967.768,238.716L969.487,234.533L973.283,234.556L976.321,237.454L981.229,236.98L986.558,238.496L988.805,238.565L993.785,234.833L999.343,233.657L1002.576,230.851L1007.512,228.786L1016.177,227.584L1024.618,227.035L1027.218,228.03L1031.973,225.378L1037.43,225.321L1039.559,226.886L1043.041,226.486L1048.484,223.758L1052.1,224.568L1052.085,227.985L1056.314,225.504L1056.744,226.795L1054.337,230.105L1054.44,233.254L1056.294,234.948L1055.889,240.86L1052.622,244.312L1053.764,248.067L1056.446,248.184L1057.897,251.473L1059.934,252.551L1066.171,254.947L1068.342,254.348L1072.765,255.5L1079.867,258.61L1082.675,264.832L1087.491,266.184L1095.092,269.132L1100.947,272.624L1103.413,270.8L1105.715,267.562L1104.101,262.202L1105.495,258.799L1109.014,255.536L1112.551,254.595L1119.726,256.018L1121.783,259.129L1123.748,259.153L1125.513,260.346L1130.799,261.161L1132.296,263.481L1139.268,263.362L1144.522,265.211L1149.943,267.289L1152.502,268.383L1156.331,266.149L1158.276,264.144L1162.85,263.563L1166.699,264.452L1168.515,267.931L1169.487,265.638L1173.89,267.301L1178.054,267.693L1180.439,265.923L1181.67,263.623L1181.261,263.22L1182.248,259.956L1182.621,254.701L1183.141,252.95L1183.282,252.88L1184.369,247.238L1186.26,242.393L1186.318,242.149L1185.069,236.911L1185.911,234.107L1183.559,231.023L1185.105,228.477L1182.08,229.061L1177.552,227.504L1174.601,231.403L1166.928,232.161L1162.279,228.523L1156.72,228.294L1155.905,231.104L1152.461,231.92L1147.066,228.305L1141.497,228.42L1137.667,221.721L1133.51,218L1135.342,212.819L1131.756,209.641L1136.521,203.334L1144.196,203.078L1145.593,198.104L1155.207,198.966L1160.52,194.744L1165.998,192.911L1174.157,192.768L1183.651,197.343L1191.276,199.873L1196.88,198.866L1201.284,199.452L1206.469,196.042L1206.64,193.273L1204.458,188.866L1201.114,186.494L1198.231,185.756L1196.013,183.795L1188.649,178.419L1182.594,176.031L1177.642,172.333L1180.954,171.324L1183.847,166.108L1180.613,163.653L1187.114,161.136L1186.667,159.794L1182.612,160.782L1178.904,161.282L1176.148,163.276L1171.73,163.601L1168.071,165.908L1169.122,169.788L1171.786,171.293L1176.657,170.921L1176.151,173.151L1171.059,174.248L1165.15,177.904L1162.212,176.608L1162.735,173.652L1157.094,171.812L1157.746,170.614L1161.963,168.531L1160.304,167.107L1152.532,165.54L1151.779,163.224L1147.482,163.988L1146.3,167.402L1143.345,172.025L1143.716,173.641L1141.578,175.005L1140.013,174.408L1139.834,182.055L1137.689,184.704L1136.565,189.291L1138.673,192.977L1139.615,195.481L1144.262,197.574L1143.576,199.176L1137.704,199.541L1135.854,201.557L1132.133,205.104L1130.179,202.045L1130.061,200.692L1127,200.504L1124.32,199.884L1118.484,201.59L1122.372,205.282L1119.949,206.353L1117.166,206.353L1114.14,202.967L1113.361,204.413L1114.907,208.353L1117.763,211.459L1116.012,212.92L1119.16,215.987L1121.868,217.92L1122.348,221.709L1117.456,219.926L1119.312,223.36L1116.153,224.066L1118.676,230.025L1115.289,230.105L1110.808,227.161L1108.393,221.778L1107.074,217.321L1104.813,214.249L1101.856,210.46L1101.351,208.577L1100.439,208.118L1100.211,206.665L1097.222,204.447L1096.498,201.324L1096.486,196.868L1096.968,194.843L1096.047,193.821L1094.945,193.317L1093.352,191.214L1091.094,189.924L1086.24,187.549L1083.181,185.235L1078.527,183.33L1074.033,178.644L1074.977,178.172L1072.532,175.518L1072.269,173.386L1069.065,172.397L1067.793,175.112L1066.199,173.003L1066.138,170.826L1066.304,170.731L1067.339,170.159L1063.427,169.249L1059.655,171.473L1060.13,174.589L1059.657,176.383L1061.472,179.611L1066.292,182.822L1069.152,188.115L1075.037,193.317L1078.906,193.284L1080.235,194.711L1078.945,196.009L1083.595,198.358L1087.423,200.338L1092.003,203.757L1092.635,204.992L1091.902,207.347L1088.857,204.268L1084.405,203.189L1082.65,207.447L1086.466,209.899L1086.142,213.371L1084.063,213.765L1081.788,219.484L1079.703,220.006L1079.577,217.954L1080.359,214.373L1081.346,212.954L1079.102,209.115L1077.319,205.784L1075.183,204.959L1073.503,202.123L1070.2,200.936L1067.867,198.303L1064.147,197.883L1060.081,194.942L1055.304,190.733L1051.74,187.016L1049.875,180.697L1047.408,179.966L1043.332,177.872L1041.126,178.73L1038.422,181.678L1036.414,182.142L1032.096,185.756L1022.356,184.022L1015.253,186.103L1014.746,189.968L1015.071,193.734L1010.423,198.06L1004.047,199.441L1003.606,201.646L1000.532,205.282L998.594,210.662L1000.555,214.463L997.636,217.434L996.528,221.789L992.671,223.132L989.009,228.328L982.521,228.42L977.64,228.294L974.383,230.69L972.368,233.254L969.866,232.69L968.021,230.403L966.672,226.509L961.941,225.458L959.823,227.206L957.169,226.257L954.51,227.001L955.485,221.732L955.171,217.615L952.933,216.993L951.821,214.463L952.411,210.123L954.526,207.716L955.002,205.048L956.216,201.102L956.227,198.336L955.327,195.998L955.212,193.799L955.673,189.204L953.784,186.407L960.938,181.797L966.889,182.952L973.472,182.908L978.669,184.001L982.739,183.665L990.665,183.871L993.237,180.052L994.252,167.518L989.359,161.022L985.887,157.915L978.684,155.559L978.329,151.143L984.472,149.826L992.36,151.379L990.947,144.582L995.361,147.151L1006.239,142.498L1007.599,137.663L1011.633,136.482L1015.305,135.324L1017.641,133.725L1021.416,125.244L1027.54,122.869L1031.317,123.032L1032.139,121.835L1035.902,121.529L1036.82,122.773L1039.714,119.994L1038.561,117.888L1038.155,114.732L1036.151,111.67L1035.683,106.104L1036.321,104.654L1037.481,103.039L1041.311,102.714L1042.745,101.244L1046.131,99.746L1046.215,102.479L1045.06,104.218L1045.703,105.729L1048.167,106.543L1047.252,108.589L1045.882,108.001L1042.981,111.931L1044.397,114.62L1044.617,116.764L1049.262,118.067L1049.37,120.061L1053.878,119.006L1056.27,117.472L1061.551,119.68L1063.876,121.481L1066.779,119.823L1073.523,117.236L1078.943,115.352L1083.537,116.292L1084.061,117.651L1088.408,117.717L1089.073,115.267L1094.969,113.478L1093.296,108.866L1092.8,104.791L1094.392,101.433L1098.197,99.621L1102.391,103.601L1105.896,103.492L1105.958,99.415L1105.855,96.312L1104.392,96.976L1101.294,95.121L1100.354,92.144L1105.499,90.72L1110.742,89.976L1115.569,90.815L1119.966,90.668L1124.16,87.852L1119.128,85.466L1111.517,85.865L1104.421,87.707L1097.69,88.779L1094.698,86.027L1090.284,84.375L1090.326,79.522L1087.474,75.154L1088.926,72.388L1092.069,69.449L1100.3,64.487L1102.774,63.541L1101.909,61.652L1095.816,59.57L1089.185,60.813L1085.923,63.93L1087.108,66.702L1081.317,70.418L1074.028,74.483L1072.042,81.306L1075.577,84.797L1080.063,87.587L1077.003,93.349L1072.685,94.558L1072.191,103.411L1070.325,108.47L1064.895,107.946L1062.836,112.275L1057.71,112.526L1055.793,107.367L1051.547,101.271L1047.572,93.856L1044.4,90.694L1036.35,96.684L1030.643,97.908L1024.498,95.245L1022.716,89.709L1020.87,78.22L1024.56,75.121L1035.214,71.147L1042.887,66.378L1049.602,60.127L1058.05,51.875L1064.118,48.796L1073.843,43.831L1081.915,42.148L1088.268,42.348L1093.289,39.241L1100.259,39.404L1106.865,38.668L1119.653,41.397L1115.05,42.413L1120.056,44.838L1123.573,43.485L1130.724,45.848L1141.684,46.787L1158.245,51.37L1162.076,53.35L1163.485,56.169L1159.97,58.44L1153.869,59.599L1134.88,56.306L1132.138,56.851L1139.715,60.038L1142.451,66.702L1148.177,68.102L1151.782,69.3L1151.544,67.067L1148.293,65.038L1150.391,63.397L1161.231,66.215L1164.24,65.107L1160.262,61.818L1167.899,57.53L1171.68,57.779L1176.066,59.296L1177.091,56.321L1172.685,53.791L1173.512,51.301L1169.503,48.762L1181.033,50.07L1184.357,52.381L1179.617,52.897L1180.711,55.237L1184.497,56.706L1190.206,55.778L1189.883,53.081L1197.129,51.098L1208.902,47.611L1211.938,47.807L1209.465,50.271L1214.551,50.694L1216.569,49.297L1223.831,49.187L1228.612,47.516L1234.549,49.952L1237.308,47.279L1231.803,44.984L1233.002,43.7L1245.148,44.878L1251.333,46.109L1268.607,50.715L1269.726,48.584L1264.274,46.464L1263.569,45.628L1258.634,45.243L1258.611,43.4L1254.444,40.436L1253.481,39.247L1258.036,35.964L1258.075,32.795L1260.332,32.128L1270.911,33.027L1273.246,34.953L1271.973,37.851L1275.251,39.022L1278.508,41.634L1281.699,46.955L1287.861,49.421L1288.219,52.17L1284.783,58.204L1289.809,58.845L1290.28,57.282L1293.872,56.183L1293.378,54.076L1295.295,52.086L1291.231,49.745L1291.009,47.083L1286.506,46.753L1283.891,44.568L1283.94,40.722L1276.608,37.716L1281.401,35.305L1278.486,32.83L1280.29,32.755L1283.85,34.674L1285.223,38.123L1289.827,38.792L1285.933,36.181L1291.049,34.787L1298.68,34.603L1307.417,36.623L1301.456,33.691L1297.833,30.095L1303.664,29.437L1312.68,29.58L1320.267,29.157L1315.623,27.485L1317.819,25.451L1321.922,25.368L1327.447,23.883L1336.606,23.49L1336.947,22.693L1346.13,22.426L1349.819,23.075L1356.177,21.557L1362.844,21.604L1362.407,20.406L1364.428,19.256L1371.522,18.182L1378.699,19.027L1374.666,19.686L1383.294,20.097L1385.999,21.462L1388.426,20.788L1398.968,20.821L1408.904,22.194L1413.248,23.272L1414.395,24.811L1411.549,25.709L1404.147,27.432L1402.564,28.372L1407.704,28.823L1414.185,29.641L1416.719,29.025L1421.313,31.132L1421.838,30.274L1427.078,29.757L1439.67,30.296L1442.651,31.853L1458.905,32.357L1455.573,29.812L1464.237,30.385L1470.118,30.368L1478.656,32.133L1483.531,34.331L1483.389,35.802L1492.137,38.643L1500.234,40.146L1498.411,36.314L1506.834,37.938L1511.843,36.963L1520.827,38.079L1522.076,37.061L1529.037,37.569L1521.253,34.266L1523.868,32.772L1561.291,35.024L1567.972,37.14L1582.495,39.938L1596.687,39.235L1605.306,39.849L1611.124,41.397L1615.41,44.199L1622.028,45.309L1625.843,44.508L1632.503,44.409L1641.124,45.176L1647.672,44.739L1660.618,48.27L1663.181,46.989L1655.58,44.469L1654.196,42.75L1668.423,43.831L1675.997,43.596L1690.549,45.455L1699.201,47.184L1729.435,64.136ZM300.799,47.184L300.799,47.184L300.799,47.184L304.694,50.271L307.656,54.412L302.72,57.063L303.564,58.138L308.007,55.021L317.686,55.655L318.721,59.703L311.572,61.622L304.215,62.081L296.903,66.493L293.747,67.44L290.139,67.307L289.628,65.714L286.414,64.395L288.781,62.443L285.896,61.72L280.349,62.292L280.826,60.738L284.511,59.111L277.899,60.149L276.124,62.232L270.566,64.135L270.565,64.136L300.799,47.184ZM629.03,46.612L625.22,48.011L621.201,46.8L617.597,47.238L614.133,45.455L618.798,44.245L623.222,42.575L626.173,43.668L627.765,44.363L628.184,45.103ZM1683.01,38.689L1685.507,39.975L1681.69,40.165L1678.758,38.991L1680.616,37.465L1683.01,38.689ZM319.384,37.465L319.385,37.464L319.384,37.464L316.99,38.689L319.384,37.465ZM319.384,37.464L320.162,37.317L323.348,37.324L326.81,38.364L325.514,38.867L319.905,39.749L314.492,39.975ZM650.264,45.077L646.427,49.153L654.535,46.015L656.823,48.584L652.928,51.615L654.255,54.441L661.008,51.419L666.94,47.903L671.019,43.583L676.214,43.877L681.414,44.449L684.937,46.397L683.509,48.379L678.786,50.548L679.731,52.762L677.551,54.813L667.327,57.808L661.227,58.476L658.192,57.172L655.166,59.355L648.176,63.086L645.368,65.053L638.099,68.148L631.999,68.453L627.114,70.418L624.321,73.477L619.016,74.072L610.711,77.966L601.655,83.49L596.838,87.442L591.957,93.375L597.629,94.242L595.93,99.138L595.053,103.166L601.93,102.109L608.479,104.427L611.478,106.478L612.941,109.041L617.526,110.538L620.765,112.853L627.941,113.17L632.465,113.712L628.853,118.522L626.941,124.194L626.63,130.605L630.512,136.125L635.071,134.228L640.722,128.285L643.317,119.31L641.832,116.368L650.503,113.777L657.766,109.918L662.418,106.14L664.191,102.551L663.949,98.051L661.142,94.119L669.661,88.744L670.793,84.189L674.58,76.543L678.258,75.429L684.497,76.738L688.481,77.204L692.764,75.941L695.573,77.572L698.935,80.399L699.04,82.307L706.328,82.684L703.72,86.878L701.422,93.331L704.914,94.137L706.363,97.207L714.189,94.312L721.365,88.65L725.465,86.307L726.358,90.833L728.589,97.446L730.316,103.809L726.941,107.193L731.425,110.26L734.031,113.403L740.529,114.826L742.669,116.603L742.507,121.348L745.727,122.093L746.713,124.233L744.569,130.674L740.405,132.85L736.329,134.889L727.911,136.968L720.201,141.816L711.933,142.78L702.467,141.525L695.49,141.485L690.501,141.896L684.763,146.169L677.647,148.828L667.428,156.85L659.57,162.513L664.053,161.501L675.025,153.47L687.026,148.431L694.312,147.831L697.28,150.786L691.211,154.858L690.166,161.459L689.986,166.129L695.117,169.239L703.408,168.33L710.666,161.365L709.417,165.856L711.762,168.109L704.385,172.205L692.355,175.945L686.627,178.505L679.576,183.092L676.02,182.617L677.74,177.24L688.058,172.035L680.227,172.237L674.553,173.003L674.625,175.069L668.31,178.129L662.473,180.321L656.611,182.207L652.25,186.386L651.238,187.451L649.939,190.864L650.349,194.294L652.344,194.458L652.667,192.089L653.637,193.525L652.592,195.382L648.858,196.439L646.525,196.306L642.447,197.453L640.165,197.773L637.147,198.093L632.32,199.983L640.083,198.756L641.116,199.995L633.428,201.956L630.239,201.968L630.671,201.169L628.504,202.989L629.874,203.289L627.119,208.018L621.661,213.123L621.891,211.414L620.905,211.066L619.835,209.417L619.617,212.988L620.405,214.182L619.693,216.687L617.186,219.291L612.513,224.659L612.145,224.385L615.254,219.813L613.533,217.253L614.862,211.728L612.888,214.599L612.496,218.838L609.642,217.841L612.262,219.949L610.337,226.349L611.636,226.818L611.408,229.153L609.963,235.952L605.115,241.034L599.122,243.067L594.484,247.098L591.748,247.542L588.331,250.079L586.891,252.411L579.801,256.913L575.852,260.227L572.152,264.381L569.899,269.359L569.472,274.261L569.58,280.31L570.632,285.338L569.858,288.426L570.343,296.723L569.013,301.565L568.125,304.37L565.774,308.783L563.954,309.69L561.487,308.82L561.364,305.653L559.697,303.992L558.347,297.804L557.236,292.32L557.149,289.525L559.494,284.783L559.074,280.874L556.579,274.954L554.831,273.866L548.548,277.084L547.715,276.725L546.1,273.424L543.303,271.682L537.058,272.577L532.595,271.789L528.41,272.278L525.858,273.269L526.282,275.253L525.32,278.126L526.031,279.53L524.744,280.454L523.083,279.41L520.693,280.754L516.892,280.538L514.077,276.785L509.181,277.671L505.837,276.03L502.377,276.533L497.384,278.186L490.892,283.447L484.644,286.519L480.677,289.924L478.49,293.144L476.97,298.084L476.242,301.541L476.554,303.992L476.57,304.004L476.547,304.016L472.721,310.327L470.363,315.554L467.468,325.304L466.057,328.879L466.041,332.87L466.898,336.447L466.713,342.148L469.162,347.64L469.571,351.855L470.998,355.502L476.472,357.472L478.147,360.574L483.391,358.501L487.748,357.748L492.132,356.418L495.848,355.151L499.919,352.131L502.091,347.815L503.781,341.625L505.177,339.47L509.291,337.541L515.444,335.838L520.236,336.099L523.694,335.477L524.674,337.031L523.778,340.578L519.969,344.955L517.796,349.453L518.563,350.741L517.138,353.935L514.726,359.719L513.654,357.811L512.478,357.936L512.303,359.028L513.35,359.066L512.896,361.077L511.442,364.297L511.726,365.442L510.7,368.113L510.942,368.819L509.69,372.592L508.278,374.562L507.241,374.802L505.736,377.394L507.329,378.747L507.98,377.634L509.476,378.583L510.012,378.874L511.433,377.558L513.029,377.457L513.457,378.064L514.374,377.697L516.854,378.368L519.446,378.165L521.37,377.343L522.136,376.509L523.857,376.901L525.102,377.406L526.589,377.229L527.785,376.584L530.173,377.621L531.029,377.786L532.529,379.178L533.892,380.849L535.754,382.001L536.934,384.054L536.355,384.777L535.849,386.451L536.07,389.193L534.454,391.759L533.474,394.772L532.889,398.093L532.962,400.029L532.713,403.419L531.763,404.159L530.883,407.386L531.053,409.378L529.721,411.307L529.755,413.339L530.499,414.579L531.517,418.685L533.42,421.732L535.768,424.961L537.565,427.678L537.313,429.281L539.535,429.628L540.111,429.012L541.524,430.872L544.323,430.333L546.885,428.409L550.41,426.883L552.519,424.627L555.58,425.063L555.317,425.806L558.434,426.076L560.842,427.383L562.491,429.653L564.463,431.757L567.345,431.988L571.974,426.704L574.345,425.896L574.603,423.397L576.17,416.996L579.693,413.492L583.241,413.352L583.827,411.78L588.173,412.406L592.921,408.599L595.277,406.914L598.326,403.279L600.257,403.738L601.539,405.727L600.215,408.267L599.893,410.042L596.524,410.924L598.062,414.349L597.672,418.301L594.836,422.693L596.518,428.704L598.984,428.217L600.64,422.744L599.107,420.08L599.294,414.361L606.547,411.281L606.094,407.731L608.268,405.357L609.811,410.655L613.737,410.77L617.022,414.988L617.046,417.482L622.074,417.559L628.138,416.779L631.101,420.157L635.343,421.092L638.647,418.736L638.868,416.83L645.854,416.382L652.593,416.267L647.662,418.506L649.336,422.078L653.791,422.642L657.804,426.37L658.357,432.437L661.285,432.271L663.397,434.055L666.962,436.841L670.19,441.788L670.177,445.697L672.302,445.877L675.177,449.595L677.292,452.234L684.007,453.766L684.665,452.388L689.259,451.835L695.247,453.882L697.15,454.718L701.242,456.521L707.041,462.951L707.901,466.07L709.844,465.709L711.157,469.925L714.111,483.253L717.135,484.505L717.238,489.771L712.977,496.058L714.729,498.356L724.737,499.543L724.971,507.198L729.247,502.19L736.371,504.927L745.815,509.586L748.605,514.052L747.737,518.271L754.289,515.923L765.339,519.962L773.788,519.665L782.246,525.972L789.621,534.506L794.018,536.696L798.845,537.006L800.948,539.401L803.083,549.081L804.139,553.684L802.296,566.23L799.597,571.165L792.12,581.686L788.95,590.217L785.141,596.755L783.76,596.896L782.506,602.43L783.786,616.472L783.055,627.965L782.828,632.875L781.306,635.804L781.152,645.708L776.442,655.331L776.25,662.914L772.149,666.087L771.337,670.479L765.413,670.454L757.168,673.257L753.736,676.499L747.92,678.628L742.286,684.4L738.697,691.567L738.671,696.94L740.141,700.9L740.253,708.123L739.589,711.606L736.484,715.513L732.747,727.936L729.142,733.486L726.195,736.759L725.109,743.369L722.486,747.315L721.14,751.653L716.141,755.462L712.019,754.093L709.373,754.825L703.935,751.885L700.46,752.106L696.429,748.296L696.902,751.885L704.845,757.755L705.258,762.463L709.166,765.417L709.714,768.727L706.994,777.341L700.432,780.923L690.68,782.308L684.944,781.644L687.156,785.6L687.581,790.54L689.495,793.853L687.198,796.157L682.385,797.064L676.839,794.674L675.445,796.39L678.242,802.851L682.232,804.799L684.275,802.764L686.825,806.12L682.959,808.114L680.366,812.094L681.889,818.495L681.948,821.869L677.38,821.89L674.778,825.097L675.182,829.77L681.675,834.301L686.714,835.54L687.233,841.033L683.038,844.448L682.962,851.472L679.722,853.824L679.062,856.583L683.316,862.66L687.926,866.008L685.86,865.715L681.768,865.676L680.233,867.088L677.127,869.154L679.032,874.458L677.179,874.592L671.143,872.756L663.912,868.787L656.542,865.5L653.245,861.834L652.854,858.413L648.593,854.495L643.133,844.305L642.49,838.464L645.422,833.717L637.363,831.92L639.586,826.43L636.92,815.964L643.238,818.195L640.694,804.952L636.743,803.235L638.259,811.271L634.815,810.372L632.844,801.151L630.17,789.023L630.907,784.501L627.286,778.009L624.396,770.441L626.477,770.224L626.232,759.269L626.622,748.296L626.012,737.961L622.087,727.484L622.225,721.68L619.486,712.93L620.642,704.231L618.661,690.334L617.47,675.279L616.308,658.927L613.991,646.871L611.303,636.444L605.149,632.17L604.252,629.124L592.251,621.644L581.234,613.471L576.371,608.844L573.327,602.646L574.006,600.485L568.192,590.612L561.331,576.685L554.819,561.597L552.265,558.143L550.135,552.553L545.451,547.588L541.257,544.513L542.91,541.114L539.853,533.862L541.397,528.525L545.741,523.715L548.606,518.013L547.314,514.684L545.229,518.233L541.776,514.891L542.877,512.736L541.828,505.817L543.795,504.668L544.83,499.918L546.972,494.999L546.58,491.888L549.71,490.261L553.613,487.215L552.89,484.853L554.997,484.285L554.818,480.465L556.2,477.704L559.023,477.188L561.527,472.402L563.805,468.404L561.789,466.586L563.009,462.164L562.046,455.208L563.342,453.212L562.785,446.777L560.748,442.727L558.996,440.541L558.069,436.443L559.589,434.414L558.206,433.901L557.334,431.398L554.698,429.281L552.188,429.769L550.854,432.399L548.443,434.312L547.188,434.568L546.527,436.148L548.925,440.271L547.339,441.248L546.456,442.367L543.792,442.752L543.117,438.216L542.298,439.513L540.461,439.064L539.539,436.006L537.263,435.506L535.868,434.62L533.454,434.632L533.171,436.276L532.605,435.133L529.67,433.451L528.658,431.86L529.411,430.538L529.323,428.871L527.915,427.05L525.835,425.563L523.997,424.589L523.812,422.373L522.458,421.028L522.621,423.231L521.346,425.037L520.239,422.936L518.506,422.193L517.881,420.657L518.141,418.365L519.105,415.973L517.636,414.911L519.078,413.454L517.389,411.077L515.096,408.037L514.154,405.485L512.07,403.126L509.661,399.723L510.431,398.552L511.216,399.685L511.703,399.163L511.032,396.807L509.427,396.146L508.577,397.928L505.351,397.813L503.431,397.087L501.311,395.599L498.275,395.128L496.903,393.513L494.227,392.203L490.75,392.064L488.407,390.577L485.861,387.479L480.799,379.418L478.31,376.989L474.113,375.042L470.902,375.586L465.97,378.406L463.047,379.14L459.454,377.166L455.536,375.75L450.943,372.326L446.978,371.279L441.357,367.811L437.4,364.259L436.401,362.271L433.404,361.831L428.236,359.481L426.647,356.091L421.631,351.893L419.94,347.227L419.481,343.632L421.489,342.921L421.423,340.815L423.151,338.91L423.799,336.372L422.803,333.069L423.064,330.155L422.195,326.466L419.413,319.221L415.589,313.54L414.316,309.028L410.601,306.08L410.168,304.309L412.408,299.86L410.205,298.193L408.202,294.696L408.581,289.707L405.916,289.127L404.135,285.374L402.903,281.907L403.491,279.698L402.667,274.356L402.89,268.966L404.063,266.268L401.389,263.481L399.502,263.789L397.294,261.859L395.283,264.701L394.778,268.074L393.182,273.365L393.861,276.27L395.945,281.15L396.205,282.821L396.824,283.327L396.639,285.771L397.615,285.675L397.045,290.275L398.046,292.09L398.303,294.635L400.431,298.279L400.019,304.981L400.626,308.147L401.071,311.54L400.205,315.358L402.747,315.604L403.963,318.901L404.983,322.155L404.495,323.463L401.45,326.144L400.499,326.107L400.305,321.674L397.959,317.522L395.113,314.006L392.911,312.165L394.752,306.875L395.201,302.967L393.379,300.737L390.767,297.525L389.737,298.449L389.024,296.577L386.324,294.841L384.635,290.686L385.212,290.154L387.282,290.553L390.226,287.883L391.59,284.675L389.392,279.602L387.028,277.647L386.814,273.233L386.719,268.609L386.6,263.007L387.161,256.736L387.863,253.185L386.285,249.201L384.231,248.371L384.584,246.398L381.832,246.048L380.838,244.195L376.352,243.509L375.579,242.404L376.78,238.646L375.224,231.793L375.92,222.403L376.948,220.846L375.911,218.634L375.129,213.044L377.566,207.637L377.026,204.035L381.405,198.612L384.69,193.031L386.26,188.082L392.131,182.045L401.083,170.582L406.136,162.252L408.488,156.994L409.242,154.169L410.701,152.987L416.01,155.044L414.313,160.824L416.654,159.201L419.581,154.189L421.713,149.235L421.077,149.225L416.603,143.343L415.322,140.784L408.92,138.339L410.718,133.164L414.446,129.619L410.746,127.169L414.097,122.581L412.417,118.494L415.035,115.624L414.577,113.534L412.351,111.782L415.832,107.028L414.611,102.678L417.527,97.677L413.716,97.34L406.968,97.207L403.538,95.703L400.712,90.348L397.739,89.381L392.415,87.57L385.992,87.998L380.451,85.687L378.077,83.557L372.039,84.611L368.549,88.109L365.778,88.435L359.524,89.493L353.606,91.214L347.496,92.31L350.658,89.295L358.895,84.349L365.365,82.818L365.819,81.581L356.848,84.341L349.627,87.69L338.852,91.31L338.848,93.813L330.13,97.553L322.74,99.755L316.379,101.379L312.418,103.737L302.179,106.515L297.727,109.069L289.751,111.401L287.191,110.983L281.204,112.517L274.43,114.395L268.505,116.245L258.897,117.84L259.317,116.905L267.335,114.311L273.741,112.61L282.123,109.604L288.37,108.995L293.266,106.762L303.308,103.546L305.613,102.47L311.159,100.597L316.91,96.604L323.011,93.532L316.028,95.104L315.778,94.207L311.014,96.1L311.603,93.462L308.023,95.324L309.763,92.746L302.741,94.813L300.096,94.813L303.792,91.735L307.079,89.855L306.768,88.049L299.897,89.02L299.556,86.648L298.336,85.441L302.301,82.626L302.073,80.524L307.782,77.72L315.122,75.032L320.215,72.596L324.072,72.252L325.799,73.004L332.485,70.735L334.865,71.139L340.14,69.693L342.52,67.58L341.48,66.757L347.142,65L344.575,65.053L338.758,66.038L335.969,67.051L334.303,66.038L327.759,66.555L323.498,65.46L324.657,63.64L323.704,61.052L332.317,59.214L344.67,57.092L347.94,57.092L343.926,59.259L352.632,59.096L353.656,56.415L351.404,54.785L352.049,52.685L351.217,50.917L348.038,49.621L353.828,47.509L360.947,47.38L368.917,45.568L373.075,43.674L380.134,41.852L384.617,41.417L394.691,39.755L397.77,40.007L406.949,38.042L411.398,38.811L411.368,40.481L414.246,39.761L420.312,39.982L418.686,40.843L423.489,41.487L427.988,41.11L434.157,42.303L440.967,42.665L443.156,43.165L449.221,42.542L453.304,43.694L456.679,44.238L462.497,45.176L465.868,47.076L469.383,47.448L475.135,45.788L481.533,44.568L486.605,45.044L494.743,43.341L502.36,42.381L502.819,43.976L506.91,43.074L510.208,41.282L512.302,41.686L514.185,45.143L522.761,42.516L519.439,45.455L525.006,44.819L527.933,43.681L532.316,43.903L536.132,45.542L543.402,46.995L547.942,47.672L552.058,47.414L554.905,49.462L547.018,51.496L553.095,52.388L564.277,51.896L568.421,51.175L569.867,53.67L576.451,51.559L574.379,49.814L578.437,48.427L583.382,48.243L586.949,47.841L589.044,48.803L590.6,51.021L595.322,50.694L600.339,52.557L607.118,51.896L612.754,51.994L614.858,49.442L619.041,48.735L623.739,50.111L619.899,54.04L625.612,50.722L628.652,50.833L634.366,46.766L632.615,44.344L629.708,42.782L634.293,38.637L641.51,36.012L645.881,36.587L648.078,38.184L649.099,42.394L643.844,44.284ZM575.398,31.853L571.489,33.451L581.104,32.415L584.137,34.148L590.52,32.392L592.56,33.515L591.489,36.976L595.132,35.502L596.735,31.956L600.594,31.466L603.645,32.002L606.187,33.381L604.584,36.805L602.833,39.379L607.167,41.231L612.144,43.029L609.901,44.733L603.224,45.05L604.086,46.565L601.219,48.032L594.848,47.401L589.344,46.323L584.583,46.565L575.762,47.923L563.407,48.625L557.831,48.906L557.937,47.009L553.933,45.928L549.971,46.37L548.991,43.276L552.049,42.873L558.776,42.219L563.982,42.387L569.771,41.724L563.449,40.843L554.912,41.142L549.589,41.065L549.327,39.692L560.003,38.215L554.093,38.271L548.722,37.311L555.364,34.644L559.774,33.265L572.433,31.206ZM612.526,30.85L606.636,33.079L603.632,30.721L605.458,30.257L610.574,30.123ZM716.023,31.916L715.559,32.853L711.669,32.755L707.72,32.68L703.229,33.143L702.339,32.934L699.852,31.144L701.101,29.951L703.068,29.735L711.22,30.084ZM678.187,31.728L679.076,33.861L685.129,31.115L695.792,29.762L698.997,33.23L696.391,35.514L704.725,34.491L709.464,33.114L716.27,34.87L720.063,36.562L719.276,38.141L726.948,37.317L729.095,39.648L737.18,41.129L739.402,42.659L740.472,46.303L732.034,48.161L739.396,50.819L745.025,51.727L748.233,55.59L754.306,55.872L751.216,58.897L741.033,64.052L737.235,62.134L733.618,57.911L728.097,58.454L725.936,60.962L728.498,63.557L732.698,65.637L733.625,66.85L733.546,71.432L730.119,74.838L725.657,73.549L717.628,69.787L720.951,73.839L723.545,76.73L723.234,78.417L713.071,76.486L705.898,73.71L702.377,71.417L704.686,70.095L700.179,67.712L695.771,65.499L694.919,66.819L682.602,67.548L680.301,65.976L685.432,62.655L693.075,62.579L701.781,62.006L701.575,60.425L704.527,58.248L712.701,54.076L712.958,52.226L712.497,50.805L708.006,48.83L701.183,47.462L704.473,46.451L702.339,44.015L699.125,43.792L697.183,42.484L694.169,43.622L686.775,44.12L673.527,43.256L666.432,42.129L660.765,41.557L658.846,40.24L664.438,38.55L659.07,38.537L661.457,34.899L667.396,31.825L672.58,30.463L682.993,29.586ZM629.471,29.459L633.098,30.145L640.164,29.729L640.069,30.688L634.843,32.294L638.889,33.767L634.829,36.945L627.139,38.351L623.815,38.042L622.698,36.665L616.402,33.943L617.726,32.841L624.866,33.265L623.266,31.053ZM1533.59,31.546L1527.994,31.569L1519.793,31.194L1518.863,31.019L1520.295,29.713L1524.444,29.415L1531.721,30.671ZM652.154,33.038L645.428,35.646L641.274,35.514L642.179,32.466L644.036,30.794L647.48,29.398L652.095,28.518L659.654,28.627L665.869,29.415L657.284,32.374ZM543.965,37.888L531.566,39.717L531.709,38.104L525.585,36.199L528.445,35.042L535.355,32.185L541.642,29.995L540.836,28.016L553.956,27.517L558.293,28.177L567.44,28.356L569.777,29.288L571.927,30.671L566.165,31.512L553.866,33.908L545.955,36.374ZM1549.759,25.549L1547.653,26.769L1541.326,26.49L1532.486,25.281L1531.689,24.305L1539.241,24.755ZM658.218,25.869L654.93,27.07L649.868,26.838L646.333,26.025L649.806,24.659L655.916,23.858L657.939,24.908ZM1526.74,24.109L1527.648,26.359L1514.046,26.276L1509.149,27.007L1498.732,25.01L1497.419,22.977L1501.302,22.436L1511.053,22.562ZM646.239,20.797L647.482,22.093L645.897,23.574L641.689,25.807L635.31,26.119L631.959,25.631L634.083,23.878L627.865,24.109L630.329,21.867L634.105,21.953L640.673,20.999L645.532,21.159ZM609.493,22.252L609.609,23.277L613.439,22.791L617.068,22.918L615.928,24.355L611.943,25.792L598.991,26.265L588.018,27.619L582.33,27.693L583.208,26.669L592.565,25.312L575.612,25.673L571.247,25.127L580.125,22.257L584.606,21.466L593.47,22.421L597.634,24.149L603.685,24.375L602.088,21.604L606.709,20.592L609.995,20.91ZM1219.369,40.392L1217.319,40.722L1204.577,40.234L1202.616,38.593L1195.2,37.618L1193.562,35.676L1196.973,34.923L1195.734,33.027L1201.39,30.168L1197.747,29.762L1204.804,26.959L1202.916,25.559L1210.002,23.973L1220.642,22.107L1232.252,21.58L1237.597,20.546L1244.301,20.194L1247.681,21.282L1245.967,22.16L1234.277,23.594L1224.232,25.015L1214.907,27.962L1211.489,31.144L1207.707,34.426L1210.267,37.379ZM661.11,19.763L664.103,20.639L671.177,20.634L673.296,21.547L671.32,22.616L674.776,23.272L676.357,23.968L681.109,24.099L686.162,24.35L692.565,23.709L700.199,23.455L705.883,23.664L708.724,24.786L708.374,26.041L705.322,26.864L699.228,27.538L694.904,27.155L683.907,27.64L676.313,27.699L670.779,27.309L662.102,26.307L662.638,24.633L663.783,23.169L661.533,21.915L654.474,21.571L651.293,20.709L653.921,19.595ZM586.107,18.318L582.771,20.365L578.674,21.324L575.127,21.462L566.713,22.674L560.301,23.12L556.292,22.494L565.436,20.397L575.267,18.662L580.679,18.702ZM665.383,18.644L663.68,18.719L657.184,18.551L657.073,17.829L664.184,17.868L666.144,18.344ZM607.702,18.182L600.051,18.933L595.92,18.09L599.893,17.279L605.424,17.024L609.908,17.416ZM1087.902,17.782L1080.252,18.839L1073.807,18.234L1076.086,17.575L1073.747,16.771L1080.944,16.275L1082.608,17.207ZM612.573,15.922L607.622,16.396L601.755,16.391L602.293,16.045L606.895,15.327L608.639,15.435ZM659.874,17.266L654.007,17.79L651.816,17.198L651.403,16.271L652.321,15.275L656.775,15.371L658.646,15.528L661.887,16.367ZM645.674,16.595L645.787,17.643L640.338,17.36L635.507,16.55L627.729,16.462L632.061,15.738L628.539,15.167L629.423,14.276L635.928,14.591L644.385,15.443ZM1372.143,16.641L1353.34,17.609L1355.91,14.431L1358.488,14.176L1361.303,14.322L1371.922,15.653ZM1063.909,13.38L1075.892,15.075L1067.246,16.016L1065.684,17.851L1062.676,18.335L1061.437,20.55L1057.129,20.657L1049.13,19.009L1052.205,18.081L1046.759,17.347L1039.563,15.283L1036.592,13.488L1046.011,12.706L1048.052,13.469L1053.04,13.44L1054.222,12.695L1059.337,12.623ZM1088.634,11.873L1095.718,12.609L1090.915,13.786L1080.815,14.053L1070.374,13.68L1069.594,13.072L1064.573,13.031L1060.535,12.055L1071.155,11.481L1076.336,11.974L1079.686,11.361ZM1177.932,11.584L1173.427,11.855L1170.388,12.013L1170.107,12.357L1166.245,12.71L1162.17,12.207L1163.775,11.56L1156,11.498L1162.575,11.134L1167.836,11.107L1168.879,11.653L1170.575,11.168L1173.649,10.843L1179.074,11.276ZM1352.261,15.255L1344.922,15.548L1334.316,14.869L1327.456,13.992L1322.977,12.425L1317.745,12.009L1325.196,10.634L1332.168,10.202L1340.096,11.181L1350.621,13.209ZM695.182,13.473L698.632,14.195L693.082,14.881L684.617,16.692L678.149,16.868L671.171,16.55L668.486,15.564L669.52,14.708L673.002,14.099L666.564,14.114L663.573,13.372L662.526,12.393L666.045,11.474L669.172,10.866L672.897,10.727L671.896,10.286L680.062,10.189L683.303,11.229L688.674,11.664L693.948,12.055ZM765.576,7.032L774.616,7.154L781.816,7.35L787.743,7.782L787.253,8.218L778.257,8.964L769.617,9.323L766.15,9.733L773.685,9.724L764.542,10.879L758.406,11.443L750.928,13.164L743.38,13.529L740.734,13.984L729.877,14.23L734.454,14.516L731.639,14.929L733.472,16.106L729.332,16.948L723.186,17.661L720.54,18.675L714.805,19.463L714.727,20.074L720.952,19.969L720.412,20.634L709.217,22.319L700.551,21.538L689.532,21.972L684.51,21.633L677.859,21.485L678.819,20.157L686.087,19.549L686.325,17.661L688.686,17.484L697.037,18.595L693.879,16.957L688.64,16.483L692.503,15.544L699.341,14.98L701.181,14.176L697.156,13.302L696.857,12.197L706.289,12.289L708.814,12.518L715.033,11.754L707.445,11.519L695.129,11.65L689.739,10.966L687.722,10.183L684.31,9.636L684.261,9.021L689.762,8.69L693.841,8.634L700.899,8.357L706.627,7.744L710.789,7.826L714.008,8.289L717.535,7.413L722.319,7.164L728.627,6.997L739.144,6.935L740.812,7.097L750.931,6.842L758.244,6.938ZM907.469,6.425L928.503,7.624L921.988,8.252L908.82,8.326L890.233,8.492L891.846,8.798L904.116,8.608L914.286,9.213L921.148,8.675L923.835,9.307L919.732,10.389L928.731,9.689L945.64,8.991L955.922,9.335L957.739,10.125L943.35,11.519L941.285,11.992L930.055,12.353L938.11,12.454L933.666,14.053L930.472,15.56L929.925,18.335L933.812,20.07L928.187,20.18L922.066,21.051L928.354,22.547L928.625,25.051L924.664,25.332L928.791,28.005L920.571,28.231L924.529,29.547L923.047,30.704L917.702,31.217L912.514,31.228L916.59,33.527L916.261,35.078L909.227,33.638L907.046,34.567L911.88,35.448L916.276,37.636L917.008,40.608L910.026,41.333L907.458,39.887L903.327,37.771L903.941,40.272L898.963,42.258L909.023,42.419L914.261,42.626L903.079,46.015L891.649,49.173L879.778,50.583L875.456,50.597L870.862,52.191L863.871,56.655L854.236,59.696L851.401,59.874L845.657,60.955L839.483,61.991L834.956,64.762L833.676,67.969L830.442,71.02L822.264,74.798L822.519,78.565L819.124,82.617L815.165,87.501L809.052,87.809L804.363,83.717L795.909,83.692L792.965,80.981L792.232,76.233L787.773,70.339L787.141,67.323L788.587,63.253L785.108,59.163L788.213,55.98L786.354,54.484L792.87,49.628L799.55,48.12L801.975,46.451L804.41,43.4L799.257,44.772L796.838,45.355L793.061,45.915L789.042,44.634L790.29,42.02L792.956,40.019L796.526,39.963L803.751,40.957L798.528,38.599L795.858,37.354L791.797,37.864L789.183,36.963L795.377,33.679L793.889,32.403L792.399,30.09L790.157,26.701L786.316,25.502L787.213,24.244L778.7,22.533L771.184,22.324L761.438,22.441L752.465,22.654L749.008,21.747L744.233,20.005L754.328,19.161L761.627,19.022L746.94,18.34L739.821,17.296L741.173,16.333L755.538,15.175L769.347,14.064L771.348,13.257L762.552,12.479L766.296,11.65L779.434,10.27L784.628,10.068L783.844,9.244L792.37,8.778L803.156,8.507L813.732,8.492L817.124,9.033L826.87,8.092L834.686,8.725L839.441,8.86L846.274,9.439L838.63,8.492L839.521,7.782L851.547,6.854L863.516,6.923L868.141,6.384L880.271,6.248Z" fill="none" stroke="#FFFFFF" stroke-opacity="1" stroke-width="1.5" stroke-linejoin="round" stroke-linecap="round" vector-effect="non-scaling-stroke"/>
</svg>
